<svg width="16" height="16" preserveAspectRatio="xMidYMid" xmlns="http://www.w3.org/2000/svg"><path d="M13.124 8a5.248 5.248 0 01-.83 2.797l2.093 2.098A8.103 8.103 0 0016 8.042a7.86 7.86 0 00-1.656-4.852l-2.051 2.054c.54.816.83 1.773.83 2.753z" fill="#e3d8cd" opacity=".25"/><path d="M7.978 13.157A5.161 5.161 0 012.834 8a5.161 5.161 0 015.144-5.16c1.047 0 2.006.307 2.79.832l2.05-2.057A8.055 8.055 0 007.977 0C3.574 0 0 3.583 0 8c0 4.414 3.574 8 7.978 8a7.814 7.814 0 004.84-1.663l-2.093-2.097c-.742.611-1.7.917-2.747.917z" fill="#e3d8cd" opacity=".5"/></svg>