<svg width="17" height="14" xmlns="http://www.w3.org/2000/svg"><path d="M16.875 1.603a6.958 6.958 0 0 1-1.988.538 3.414 3.414 0 0 0 1.522-1.89 6.79 6.79 0 0 1-2.2.83A3.486 3.486 0 0 0 11.68 0C9.77 0 8.22 1.53 8.22 3.418c0 .268.032.53.09.78A9.875 9.875 0 0 1 1.176.625a3.37 3.37 0 0 0-.47 1.718c0 1.186.612 2.233 1.54 2.845A3.487 3.487 0 0 1 .679 4.76v.043C.68 6.46 1.87 7.84 3.45 8.155a3.509 3.509 0 0 1-1.562.058 3.46 3.46 0 0 0 3.234 2.374 7.01 7.01 0 0 1-4.3 1.463c-.28 0-.555-.016-.826-.048a9.89 9.89 0 0 0 5.307 1.536c6.368 0 9.85-5.208 9.85-9.725 0-.15-.003-.296-.01-.443a6.939 6.939 0 0 0 1.728-1.77" fill="#E3D8CD" opacity=".5" fill-rule="evenodd"/></svg>