<svg width="58" height="48" viewBox="0 0 58 48" xmlns="http://www.w3.org/2000/svg"><title>cssmodulessss</title><g fill="#000" fill-rule="evenodd"><path d="M6.528 22.217c1.033 0 1.835.274 2.407.823.57.55.884 1.173.952 1.872H8.805c-.122-.528-.367-.953-.734-1.262-.36-.308-.876-.466-1.536-.466-.802 0-1.455.288-1.95.857-.49.57-.742 1.44-.742 2.62 0 .967.224 1.75.666 2.346.45.596 1.115.898 2 .898.815 0 1.434-.315 1.862-.946.225-.33.395-.768.503-1.31h1.082c-.096.864-.415 1.59-.96 2.18-.645.707-1.522 1.057-2.624 1.057-.944 0-1.746-.288-2.385-.87-.85-.77-1.272-1.95-1.272-3.546 0-1.215.32-2.21.96-2.99.692-.845 1.644-1.263 2.855-1.263zm5.507 5.8c.027.468.136.845.327 1.14.367.548 1.013.816 1.937.816.414 0 .795-.062 1.135-.18.66-.232.986-.643.986-1.24 0-.446-.135-.768-.414-.96-.28-.185-.72-.35-1.32-.487l-1.107-.253c-.722-.165-1.232-.343-1.538-.542-.517-.342-.775-.856-.775-1.542 0-.74.25-1.344.76-1.824.51-.473 1.225-.713 2.157-.713.857 0 1.584.213 2.176.632.598.41.897 1.076.897 1.995h-1.04c-.055-.44-.177-.782-.354-1.015-.34-.432-.91-.644-1.72-.644-.653 0-1.122.137-1.407.41-.286.275-.43.598-.43.968 0 .405.17.7.504.885.218.117.714.268 1.483.446l1.142.26c.55.13.98.303 1.278.522.517.384.775.946.775 1.673 0 .913-.326 1.565-.986 1.955-.652.39-1.42.59-2.29.59-1.014 0-1.81-.26-2.388-.782-.57-.52-.856-1.22-.843-2.112l1.055.008zm7.575 0c.027.468.136.845.326 1.14.367.548 1.013.816 1.938.816.415 0 .796-.062 1.136-.18.66-.232.986-.643.986-1.24 0-.446-.136-.768-.415-.96-.278-.185-.72-.35-1.318-.487l-1.11-.253c-.72-.165-1.23-.343-1.535-.542-.517-.342-.775-.856-.775-1.542 0-.74.25-1.344.76-1.824.51-.473 1.225-.713 2.156-.713.857 0 1.585.213 2.176.632.6.41.898 1.076.898 1.995h-1.04c-.055-.44-.177-.782-.354-1.015-.34-.432-.91-.644-1.72-.644-.653 0-1.122.137-1.408.41-.285.275-.428.598-.428.968 0 .405.17.7.503.885.218.117.714.268 1.482.446l1.143.26c.55.13.98.303 1.278.522.517.384.775.946.775 1.673 0 .913-.326 1.565-.986 1.955-.653.39-1.42.59-2.29.59-1.014 0-1.81-.26-2.388-.782-.572-.52-.858-1.22-.844-2.112l1.054.008zM3.06 36.783h1.584l2.346 6.96 2.325-6.96h1.564v8.228H9.83v-4.855c0-.17.007-.445.014-.836.007-.392.013-.803.013-1.25l-2.326 6.94H6.44l-2.347-6.94v.255c0 .198.007.507.014.925.014.412.014.713.014.905v4.855H3.068l-.007-8.228zm13.04-.22c1.443 0 2.51.467 3.204 1.4.544.726.81 1.66.81 2.797 0 1.226-.307 2.248-.926 3.064-.727.953-1.768 1.433-3.107 1.433-1.257 0-2.243-.418-2.964-1.255-.64-.81-.958-1.824-.958-3.058 0-1.11.272-2.064.822-2.86.7-1.014 1.74-1.522 3.12-1.522zm.11 7.7c.972 0 1.68-.35 2.115-1.055.435-.706.652-1.516.652-2.434 0-.967-.25-1.75-.754-2.34-.503-.588-1.183-.883-2.054-.883-.844 0-1.537.295-2.068.877-.53.583-.802 1.447-.802 2.586 0 .912.23 1.68.687 2.31.455.624 1.196.94 2.223.94zm8.35-.198c.374 0 .68-.04.925-.117.428-.144.782-.425 1.054-.843.216-.33.373-.76.468-1.275.054-.31.08-.598.08-.865 0-1.022-.203-1.81-.604-2.373-.4-.562-1.047-.843-1.938-.843h-1.958v6.32l1.972-.006zm-3.087-7.282h3.304c1.122 0 1.993.404 2.612 1.207.55.725.828 1.65.828 2.783 0 .87-.163 1.666-.49 2.372-.57 1.248-1.563 1.872-2.964 1.872h-3.298l.007-8.235zm9.376 0v5.088c0 .596.108 1.097.333 1.488.326.596.884.898 1.666.898.937 0 1.576-.322 1.91-.967.183-.35.27-.824.27-1.42v-5.088h1.123v4.62c0 1.016-.136 1.79-.408 2.34-.496.994-1.435 1.488-2.808 1.488-1.38 0-2.312-.494-2.808-1.488-.273-.55-.41-1.324-.41-2.34v-4.62h1.13zm6.996 0h1.11v7.248h4.133v.98h-5.244v-8.228zm6.44 0h5.95v1.008H45.36v2.496h4.508v.953H45.36v2.79h4.957v.98h-6.032v-8.228zm8.22 5.58c.027.468.136.845.326 1.14.368.548 1.013.816 1.938.816.415 0 .796-.062 1.136-.18.66-.232.986-.643.986-1.24 0-.445-.136-.768-.415-.96-.28-.185-.72-.35-1.32-.487L54.05 41.2c-.72-.165-1.23-.343-1.537-.542-.517-.343-.775-.857-.775-1.543 0-.74.25-1.344.76-1.824.51-.474 1.225-.714 2.157-.714.856 0 1.584.213 2.175.63.6.412.898 1.077.898 1.996h-1.04c-.055-.44-.177-.78-.354-1.015-.34-.432-.91-.644-1.72-.644-.653 0-1.122.137-1.408.41-.285.276-.428.598-.428.968 0 .406.17.7.503.886.22.116.715.267 1.483.445l1.143.262c.55.13.98.302 1.278.52.517.385.775.947.775 1.674 0 .912-.327 1.564-.987 1.955-.652.39-1.42.59-2.29.59-1.014 0-1.81-.26-2.388-.78-.57-.523-.857-1.222-.843-2.113l1.054.006z"/><path d="M47.597 48H0V0h47.597v48zM.34 47.657h46.917V.343H.34v47.314z"/></g></svg>