<svg width="45" height="55" viewBox="0 0 45 55" xmlns="http://www.w3.org/2000/svg"><title>download</title><defs><linearGradient x1="50.002%" y1=".003%" x2="50.002%" y2="100%" id="a"><stop stop-color="#5C70B5" offset="0%"/><stop stop-color="#507DBF" offset="67.5%"/><stop stop-color="#428BCA" offset="100%"/></linearGradient><linearGradient x1="49.999%" y1="-27.14%" x2="49.999%" y2="124.765%" id="b"><stop stop-color="#5C70B5" offset="0%"/><stop stop-color="#507DBF" offset="67.5%"/><stop stop-color="#428BCA" offset="100%"/></linearGradient><linearGradient x1="50.01%" y1="-36.855%" x2="50.01%" y2="134.212%" id="c"><stop stop-color="#5C70B5" offset="0%"/><stop stop-color="#507DBF" offset="67.5%"/><stop stop-color="#428BCA" offset="100%"/></linearGradient><linearGradient x1="49.998%" y1="-45.87%" x2="49.998%" y2="142.961%" id="d"><stop stop-color="#5C70B5" offset="0%"/><stop stop-color="#507DBF" offset="67.5%"/><stop stop-color="#428BCA" offset="100%"/></linearGradient><linearGradient x1="49.998%" y1="-62.79%" x2="49.998%" y2="159.334%" id="e"><stop stop-color="#5C70B5" offset="0%"/><stop stop-color="#507DBF" offset="67.5%"/><stop stop-color="#428BCA" offset="100%"/></linearGradient></defs><g fill="none" fill-rule="evenodd"><path d="M18.902 3.84c-1.09 0-1.95.53-2.57 1.608-.622 1.072-1.054 2.256-1.285 3.54l-2.16 10.6c-.312 1.374-.77 2.536-1.375 3.495-.608.953-1.236 1.74-1.897 2.34-.664.606-1.316 1.073-1.96 1.408-.64.33-1.144.538-1.49.622l-.055.166c.273.046.62.162 1.05.355.428.19.846.514 1.258.965.41.448.76 1.013 1.054 1.698.29.685.436 1.556.436 2.605 0 .356-.038.703-.118 1.056-.08.355-.156.743-.233 1.176l-2.16 10.546c-.12.668-.175 1.323-.175 1.992 0 .9.117 1.646.352 2.256.236.61.758.902 1.578.902h2.92l-.76 3.515H7.225c-.588 0-1.178-.116-1.782-.352-.61-.236-1.138-.564-1.606-.993-.472-.422-.845-.974-1.14-1.64-.29-.67-.436-1.427-.436-2.28 0-.356.02-.737.056-1.15.037-.408.098-.826.176-1.258l2.217-10.6c.075-.432.136-.85.173-1.266.036-.41.055-.79.055-1.142 0-1.366-.357-2.446-1.077-3.25-.72-.798-1.59-1.204-2.598-1.204l.875-3.982c.62 0 1.257-.164 1.897-.496.64-.332 1.248-.786 1.81-1.375.562-.586 1.073-1.306 1.522-2.166.446-.864.79-1.818 1.02-2.873L10.605 7.99c.233-1.25.642-2.35 1.224-3.31.584-.954 1.247-1.757 1.986-2.4.736-.643 1.517-1.134 2.338-1.463.818-.33 1.597-.5 2.332-.5h4.092l-.756 3.516h-2.917v.007z" fill="url(#a)" transform="translate(-1)"/><path d="M27.802 10.028L20.868 45.82H16.98l6.927-35.792h3.895z" fill="url(#b)" transform="translate(-1)"/><path d="M34.52 12.028l-6.28 31.786h-2.78l6.303-31.786h2.757z" fill="url(#c)" transform="translate(-1)"/><path d="M40.742 13.525L35.135 42.32H33.25l5.614-28.795h1.878z" fill="url(#d)" transform="translate(-1)"/><path d="M45.738 15.684L40.78 40.162h-1.052l4.936-24.478h1.074z" fill="url(#e)" transform="translate(-1)"/></g></svg>