<?xml version="1.0" encoding="UTF-8" standalone="no"?>
<svg width="66px" height="50px" viewBox="0 0 66 50" version="1.1" xmlns="http://www.w3.org/2000/svg" xmlns:xlink="http://www.w3.org/1999/xlink">
    <!-- Generator: Sketch 41.2 (35397) - http://www.bohemiancoding.com/sketch -->
    <title>Artboard</title>
    <desc>Created with Sketch.</desc>
    <defs></defs>
    <g id="Page-1" stroke="none" stroke-width="1" fill="none" fill-rule="evenodd">
        <g id="Artboard">
            <g id="lost-grid" transform="translate(3.000000, 0.000000)">
                <g id="Layer_1">
                    <g id="Group">
                        <g>
                            <polygon id="Shape" fill="#FFF6C5" points="0.3 49.351 19.701 39.65 39.1 49.351 58.6 39.65 58.6 0.75 39.1 10.55 19.701 0.75 0.3 10.55"></polygon>
                            <polygon id="Shape" fill="#B5E655" points="19.701 37.25 2.4 45.851 2.4 11.85 19.701 3.25 39.1 12.95 56.4 4.25 56.4 38.351 39.1 46.95"></polygon>
                            <rect id="Rectangle-path" fill="#424142" x="19.4" y="0.75" width="0.5" height="38.9"></rect>
                            <rect id="Rectangle-path" fill="#424142" x="38.9" y="10.55" width="0.5" height="38.9"></rect>
                            <polygon id="Shape" fill="#ECF0F1" points="56.3 31.051 48.8 34.75 48.8 41.95 56.5 38.25"></polygon>
                            <g transform="translate(2.000000, 14.000000)" id="Shape" fill="#424142">
                                <path d="M0.9,7.25 L0.2,7.25 L0.3,6.15 L1.2,6.15 L1.3,7.25 L0.9,7.25 Z"></path>
                                <path d="M28.5,21.551 C28.1,21.45 27.701,21.45 27.3,21.25 C26.999,21.15 26.7,21.051 26.4,20.95 L26.8,19.95 C27.1,20.051 27.4,20.15 27.6,20.25 C27.999,20.35 28.4,20.45 28.701,20.45 L28.5,21.551 Z M30.3,21.551 L30.1,20.45 C30.701,20.349 31.201,20.051 31.499,19.551 L32.399,20.151 C31.9,20.95 31.201,21.45 30.3,21.551 Z M24.8,20.25 C24.1,19.85 23.499,19.35 22.999,18.85 L23.8,18.15 C24.2,18.65 24.7,19.05 25.3,19.349 L24.8,20.25 Z M33.201,18.65 L32.201,18.349 C32.4,17.749 32.5,17.15 32.5,16.349 L33.6,16.45 C33.4,17.35 33.3,18.051 33.201,18.65 Z M22,17.45 C21.601,16.849 21.4,16.15 21.101,15.349 L22.101,15.05 C22.301,15.749 22.601,16.349 22.901,16.949 L22,17.45 Z M33.6,14.85 L32.5,14.85 L32.5,14.75 L32.5,12.75 L33.6,12.75 L33.6,14.85 L33.6,14.85 Z M20.701,13.75 C20.6,13.15 20.5,12.45 20.301,11.65 L21.401,11.45 C21.501,12.349 21.601,12.95 21.801,13.551 L20.701,13.75 Z M32.4,11.05 C32.4,10.35 32.4,9.65 32.3,8.85 L33.4,8.85 C33.4,9.55 33.4,10.25 33.5,10.95 L32.4,11.05 Z M20.201,10.05 C20.1,9.35 20,8.65 19.9,7.95 L21,7.75 C21.101,8.45 21.201,9.25 21.301,9.85 L20.201,10.05 Z M45.9,8.45 C45.701,7.75 45.5,7.15 45.201,6.55 L46.201,6.05 C46.5,6.65 46.801,7.45 47,8.15 L45.9,8.45 Z M33.4,7.35 L32.3,7.25 C32.3,6.45 32.4,5.65 32.6,5.05 L33.701,5.25 C33.6,5.85 33.5,6.55 33.4,7.35 Z M3.1,6.65 L2.6,5.65 C3.2,5.35 3.7,4.95 4.3,4.45 L5,5.25 C4.4,5.85 3.8,6.35 3.1,6.65 Z M19.5,6.45 C19.301,5.75 19,5.15 18.701,4.65 L19.6,4.05 C19.999,4.65 20.3,5.35 20.499,6.15 L19.5,6.45 Z M44.4,5.25 C44,4.65 43.6,4.15 43.1,3.75 L43.8,2.95 C44.4,3.45 44.9,3.95 45.3,4.65 L44.4,5.25 Z M6.2,4.35 L5.5,3.55 C6,3.15 6.6,2.75 7.3,2.25 L7.9,3.15 C7.2,3.55 6.6,4.05 6.2,4.35 Z M34.1,3.85 L33.1,3.45 C33.499,2.65 33.999,2.05 34.6,1.55 L35.201,2.45 C34.701,2.75 34.4,3.25 34.1,3.85 Z M17.8,3.55 C17.3,3.15 16.8,2.75 16.2,2.55 L16.599,1.55 C17.299,1.85 17.998,2.25 18.599,2.75 L17.8,3.55 Z M41.8,2.95 C41.2,2.65 40.6,2.45 39.9,2.25 L40.201,1.25 C41,1.45 41.701,1.75 42.301,2.05 L41.8,2.95 Z M9.2,2.55 L8.8,1.55 C9.5,1.25 10.201,1.05 11,0.95 L11.201,2.05 C10.5,2.05 9.9,2.25 9.2,2.55 Z M14.701,2.05 C14.1,1.95 13.5,1.85 12.801,1.85 L12.701,1.85 L12.701,0.75 L12.801,0.75 C13.5,0.75 14.201,0.85 14.901,0.95 L14.701,2.05 Z M36.5,1.95 L36.301,0.85 C36.601,0.85 36.801,0.75 37.101,0.75 L38.601,0.75 L38.5,1.85 L37.201,1.85 C36.9,1.95 36.701,1.95 36.5,1.95 Z"></path>
                                <path d="M46.3,11.05 C46.3,11.05 46.3,10.65 46.2,10.05 L47.3,9.95 C47.4,10.65 47.4,11.05 47.4,11.05 L46.3,11.05 Z"></path>
                            </g>
                            <polygon id="Shape" fill="#F2594B" points="51.701 26.551 50.3 25.15 48.9 26.551 47.5 25.15 46.1 26.551 47.5 27.95 46.1 29.35 47.5 30.75 48.9 29.35 50.3 30.75 51.701 29.35 50.3 27.95"></polygon>
                            <path d="M48.701,35.65 C44,34.551 41,36.45 37.9,38.55 C34.8,40.75 31.9,41.25 27.6,37.351 C23.3,33.451 21.201,33.951 17.201,35.25 C13.201,36.549 13,34.25 8.6,35.45 C4.1,36.75 2.5,41.85 2.5,41.85 L2.5,45.749 L2.8,45.749 L19.8,37.149 L39.2,46.849 L49,41.95" id="Shape" fill="#32C8F6"></path>
                            <polygon id="Shape" fill="#FFDD4B" points="52.9 8.95 54.1 6.85 55.3 7.55"></polygon>
                            <g opacity="0.75" transform="translate(19.000000, 0.000000)" id="Shape" fill="#FFF6C5">
                                <polygon points="0.6 0.75 0.8 39.95 20 49.15 19.9 10.45"></polygon>
                            </g>
                            <g opacity="0.5" transform="translate(38.000000, 0.000000)" id="Shape" fill="#DED4AA">
                                <polygon points="0.9 10.45 1 49.15 20.6 39.851 20.4 0.75"></polygon>
                            </g>
                            <g opacity="0.5" id="Shape" fill="#DED4AA">
                                <polygon points="0.2 10.45 0.3 49.15 19.8 39.851 19.6 0.75"></polygon>
                            </g>
                            <path d="M0,49.851 L0,10.351 L19.701,0.451 L39.1,10.151 L58.8,0.351 L58.8,39.851 L58.7,39.951 L39.1,49.75 L39,49.65 L19.701,39.95 L0,49.851 Z M19.701,39.351 L19.701,39.351 L39.1,49.151 L58.3,39.55 L58.3,1.25 L39.1,10.85 L19.701,1.05 L0.5,10.65 L0.5,48.95 L19.701,39.351 Z" id="Shape" fill="#424142"></path>
                            <path d="M39.1,47.25 L39.1,47.25 L19.701,37.45 L2.201,46.35 L2.201,11.65 L19.701,2.85 L39.1,12.55 L56.6,3.75 L56.6,38.351 L56.499,38.451 L39.1,47.25 Z M19.701,36.95 L19.701,36.95 L39.1,46.75 L56.1,38.25 L56.1,4.75 L39.1,13.25 L19.701,3.55 L2.701,12.05 L2.701,45.45 L19.701,36.95 Z" id="Shape" fill="#424142"></path>
                            <rect id="Rectangle-path" fill="#424142" x="19.4" y="0.75" width="0.5" height="38.9"></rect>
                            <rect id="Rectangle-path" fill="#424142" x="38.9" y="10.55" width="0.5" height="38.9"></rect>
                            <polygon id="Shape" fill="#424142" points="49.1 41.95 48.6 41.95 48.6 34.65 56.201 30.85 56.4 31.35 49.1 34.95"></polygon>
                            <g transform="translate(2.000000, 14.000000)" id="Shape" fill="#424142">
                                <path d="M0.9,7.25 L0.2,7.25 L0.3,6.15 L1.2,6.15 L1.3,7.25 L0.9,7.25 Z"></path>
                                <path d="M28.5,21.551 C28.1,21.45 27.701,21.45 27.3,21.25 C26.999,21.15 26.7,21.051 26.4,20.95 L26.8,19.95 C27.1,20.051 27.4,20.15 27.6,20.25 C27.999,20.35 28.4,20.45 28.701,20.45 L28.5,21.551 Z M30.3,21.551 L30.1,20.45 C30.701,20.349 31.201,20.051 31.499,19.551 L32.399,20.151 C31.9,20.95 31.201,21.45 30.3,21.551 Z M24.8,20.25 C24.1,19.85 23.499,19.35 22.999,18.85 L23.8,18.15 C24.2,18.65 24.7,19.05 25.3,19.349 L24.8,20.25 Z M33.201,18.65 L32.201,18.349 C32.4,17.749 32.5,17.15 32.5,16.349 L33.6,16.45 C33.4,17.35 33.3,18.051 33.201,18.65 Z M22,17.45 C21.601,16.849 21.4,16.15 21.101,15.349 L22.101,15.05 C22.301,15.749 22.601,16.349 22.901,16.949 L22,17.45 Z M33.6,14.85 L32.5,14.85 L32.5,14.75 L32.5,12.75 L33.6,12.75 L33.6,14.85 L33.6,14.85 Z M20.701,13.75 C20.6,13.15 20.5,12.45 20.301,11.65 L21.401,11.45 C21.501,12.349 21.601,12.95 21.801,13.551 L20.701,13.75 Z M32.4,11.05 C32.4,10.35 32.4,9.65 32.3,8.85 L33.4,8.85 C33.4,9.55 33.4,10.25 33.5,10.95 L32.4,11.05 Z M20.201,10.05 C20.1,9.35 20,8.65 19.9,7.95 L21,7.75 C21.101,8.45 21.201,9.25 21.301,9.85 L20.201,10.05 Z M45.9,8.45 C45.701,7.75 45.5,7.15 45.201,6.55 L46.201,6.05 C46.5,6.65 46.801,7.45 47,8.15 L45.9,8.45 Z M33.4,7.35 L32.3,7.25 C32.3,6.45 32.4,5.65 32.6,5.05 L33.701,5.25 C33.6,5.85 33.5,6.55 33.4,7.35 Z M3.1,6.65 L2.6,5.65 C3.2,5.35 3.7,4.95 4.3,4.45 L5,5.25 C4.4,5.85 3.8,6.35 3.1,6.65 Z M19.5,6.45 C19.301,5.75 19,5.15 18.701,4.65 L19.6,4.05 C19.999,4.65 20.3,5.35 20.499,6.15 L19.5,6.45 Z M44.4,5.25 C44,4.65 43.6,4.15 43.1,3.75 L43.8,2.95 C44.4,3.45 44.9,3.95 45.3,4.65 L44.4,5.25 Z M6.2,4.35 L5.5,3.55 C6,3.15 6.6,2.75 7.3,2.25 L7.9,3.15 C7.2,3.55 6.6,4.05 6.2,4.35 Z M34.1,3.85 L33.1,3.45 C33.499,2.65 33.999,2.05 34.6,1.55 L35.201,2.45 C34.701,2.75 34.4,3.25 34.1,3.85 Z M17.8,3.55 C17.3,3.15 16.8,2.75 16.2,2.55 L16.599,1.55 C17.299,1.85 17.998,2.25 18.599,2.75 L17.8,3.55 Z M41.8,2.95 C41.2,2.65 40.6,2.45 39.9,2.25 L40.201,1.25 C41,1.45 41.701,1.75 42.301,2.05 L41.8,2.95 Z M9.2,2.55 L8.8,1.55 C9.5,1.25 10.201,1.05 11,0.95 L11.201,2.05 C10.5,2.05 9.9,2.25 9.2,2.55 Z M14.701,2.05 C14.1,1.95 13.5,1.85 12.801,1.85 L12.701,1.85 L12.701,0.75 L12.801,0.75 C13.5,0.75 14.201,0.85 14.901,0.95 L14.701,2.05 Z M36.5,1.95 L36.301,0.85 C36.601,0.85 36.801,0.75 37.101,0.75 L38.601,0.75 L38.5,1.85 L37.201,1.85 C36.9,1.95 36.701,1.95 36.5,1.95 Z"></path>
                                <path d="M46.3,11.05 C46.3,11.05 46.3,10.65 46.2,10.05 L47.3,9.95 C47.4,10.65 47.4,11.05 47.4,11.05 L46.3,11.05 Z"></path>
                            </g>
                            <path d="M50.3,31.051 L48.9,29.651 L47.5,31.051 L45.701,29.25 L47.1,27.85 L45.701,26.451 L47.5,24.651 L48.9,26.051 L50.3,24.651 L52.1,26.451 L50.701,27.85 L52.1,29.25 L50.3,31.051 Z M48.9,28.95 L50.3,30.349 L51.3,29.349 L49.9,27.95 L51.3,26.551 L50.3,25.551 L48.9,26.95 L47.5,25.551 L46.5,26.551 L47.9,27.95 L46.5,29.349 L47.5,30.349 L48.9,28.95 Z" id="Shape" fill="#424142"></path>
                            <path d="M2.7,42.05 L2.2,41.851 C2.3,41.651 3.9,36.55 8.5,35.25 C10.8,34.551 12,34.85 13.1,35.15 C14.201,35.45 15.201,35.65 17.1,35.05 C21.1,33.749 23.3,33.05 27.8,37.15 C31.999,40.95 34.7,40.45 37.8,38.35 C41.1,36.049 44.2,34.249 48.9,35.349 L48.8,35.85 C44.3,34.749 41.499,36.45 38.2,38.749 C35,40.95 32,41.55 27.6,37.55 C23.3,33.651 21.4,34.25 17.4,35.551 C15.3,36.25 14.201,35.95 13.1,35.651 C11.999,35.35 10.9,35.151 8.7,35.751 C4.4,36.95 2.7,41.95 2.7,42.05 Z" id="Shape" fill="#424142"></path>
                            <path d="M52.5,9.35 L54,6.65 L55.5,7.55 L52.5,9.35 Z M54.1,7.05 L53.201,8.55 L54.9,7.55 L54.1,7.05 Z" id="Shape" fill="#424142"></path>
                        </g>
                    </g>
                </g>
            </g>
        </g>
    </g>
</svg>