<svg width="49" height="47" viewBox="0 0 49 47" xmlns="http://www.w3.org/2000/svg"><title>stylelint-icon-black</title><g transform="translate(-1)" fill="#000" fill-rule="evenodd"><path d="M25.81 46.77c5.364-19.14 5.208-19.227 9.086-32.874l.932.537c.507.292.92.053.92-.53V7.397c1.03-3.596 1.837-6.374 2.073-7.21h4.202L50 6.636l-4.583 3.953 3.465 3.738-22.84 32.44c-.112.184-.267.142-.232 0zm2.495-41.254c.207 0 .375.113.375.255v3.336c0 .14-.168.255-.375.255h-5.642c-.207 0-.375-.113-.375-.254V5.77c0-.14.168-.254.375-.254h5.642z"/><path d="M35.27 1.823l-6.208 3.575c.073.11.116.235.116.373v3.336c0 .173-.067.33-.178.455l6.27 3.613c.427.246.778.044.778-.448V2.27c0-.492-.35-.693-.778-.447zM21.79 9.106V5.77c0-.136.043-.262.114-.37l-6.207-3.577c-.427-.246-.777-.045-.777.447v10.455c0 .492.35.694.777.447l6.27-3.612c-.11-.125-.178-.28-.178-.454z"/><path d="M24.91 46.77h.232c-5.363-19.14-5.208-19.227-9.085-32.874l-.933.537c-.506.292-.92.053-.92-.53V7.397C13.173 3.8 12.367 1.022 12.13.186h-4.2L.953 6.636l4.583 3.953-3.465 3.738 22.84 32.44z"/><ellipse cx="25.306" cy="14.634" rx="1.694" ry="1.691"/><ellipse cx="25.306" cy="24.686" rx="1.694" ry="1.691"/><ellipse cx="25.306" cy="34.739" rx="1.694" ry="1.69"/></g></svg>