<svg width="62" height="21" viewBox="0 0 62 21" xmlns="http://www.w3.org/2000/svg"><title>444</title><path d="M16.405 3.056c0 .112-.196.42-.588.924-1.47 1.918-2.275 2.877-2.415 2.877-.112 0-.24-.063-.388-.19-.148-.125-.22-.244-.22-.356 0-.05.202-.35.608-.9.616-.81 1.155-1.57 1.617-2.27.08-.12.17-.25.27-.39.1-.13.25-.19.46-.19.14 0 .28.06.43.17.15.12.22.23.22.34zm2.29 2.982c0 .224-.365.532-1.093.924-1.61.854-2.576 1.28-2.898 1.28-.14 0-.276-.055-.41-.167-.133-.112-.2-.224-.2-.336 0-.13.323-.38.967-.74 1.87-1.04 2.89-1.56 3.07-1.56.13 0 .25.06.38.19.13.12.19.25.19.39zm-5.902-4.473c-.434 2.548-1.015 3.94-1.743 4.18-.238-.197-.357-.393-.357-.59 0-.14.077-.566.23-1.28.21-.966.38-1.8.505-2.5.084-.153.21-.23.378-.23.14 0 .47.14.987.42zm6.615 7.938c0 .392-.21.61-.63.65-.014 0-.42.057-1.218.17-.574.083-1.078.125-1.512.125-.7 0-1.05-.203-1.05-.61 0-.293.266-.454.798-.482.392-.014.93-.136 1.617-.367.686-.24 1.134-.35 1.344-.35.434 0 .65.28.65.86zM9.6 4.946c0 .21-.062.395-.188.557-.126.16-.266.24-.42.24-.084 0-.21-.034-.378-.104 0-.28-.336-1.74-1.008-4.37.28-.21.553-.32.82-.32.363 0 .573.07.63.23.04.29.16 1.03.356 2.22.126.73.19 1.24.19 1.53zm9.598 7.518l-.084.504c-.322.224-.518.336-.588.336-.07 0-.427-.105-1.07-.315-.883-.3-1.73-.55-2.542-.76.042-.59.287-.88.735-.88.18 0 .55.1 1.11.3.56.2.94.3 1.13.3.15 0 .59.16 1.3.5zM7.48 5.786c0 .154-.05.304-.147.452-.098.147-.196.22-.294.22-.3 0-.73-.325-1.3-.977-.57-.65-1.04-1.26-1.42-1.83-.28-.43-.42-.68-.42-.73 0-.17.08-.33.25-.5.17-.17.33-.25.48-.25.26 0 .88.72 1.85 2.17.65.77.98 1.26.98 1.47zM18.106 15.95c0 .14-.08.276-.24.41-.163.133-.334.2-.516.2-.196 0-.588-.246-1.176-.736-1.456-1.204-2.184-1.883-2.184-2.037 0-.084.182-.364.546-.84 2.38 1.638 3.57 2.64 3.57 3.003zm-4.683-5.523c0 .854-.315 1.606-.945 2.258-.63.65-1.386.976-2.268.976-.966 0-1.753-.3-2.362-.92-.61-.61-.914-1.38-.914-2.29 0-.81.322-1.54.966-2.2.644-.66 1.33-.98 2.058-.98.714 0 1.456.3 2.226.91.826.65 1.24 1.4 1.24 2.27zm2.373 8.064c0 .13-.087.26-.262.38-.176.13-.347.19-.515.19-.13 0-.33-.19-.61-.56-.58-.79-1.07-1.58-1.47-2.35-.3-.56-.44-.87-.44-.94 0-.15.06-.3.18-.44s.24-.21.35-.21c.15 0 .47.35.96 1.05 1.19 1.68 1.78 2.65 1.78 2.9zM5.4 7.49c0 .14-.062.27-.188.388-.126.12-.26.18-.4.18-.097 0-.44-.218-1.028-.652C2.356 6.38 1.53 5.794 1.306 5.64c.028-.31.126-.568.294-.778.168-.21.336-.315.504-.315.42 0 1.176.518 2.268 1.554.686.65 1.03 1.11 1.03 1.39zm.085 2.75c-.168.015-.346.036-.535.064-.19.03-.305.043-.347.043-.392 0-1.435-.217-3.13-.65-.433-.113-.657-.17-.67-.17-.127-.07-.19-.237-.19-.503 0-.616.12-.924.357-.924.07 0 .427.126 1.07.378.743.294 1.443.504 2.1.63.337.056.666.12.988.19.238.04.357.104.357.188v.756zM12.5 19.5c0 .433-.176.65-.526.65-.42 0-.7-.077-.84-.23v-.064c0-.406-.266-1.8-.798-4.18.266-.153.532-.23.798-.23.322 0 .525.19.61.567.503 2.296.755 3.458.755 3.486zm-2.794-3.823c0 .266-.07.7-.21 1.302-.182.72-.294 1.26-.336 1.59-.056.4-.105.8-.147 1.19-.07.25-.238.38-.504.38-.55 0-.82-.28-.82-.84 0-.12.09-.52.29-1.22.25-.86.44-1.65.56-2.38.04-.27.28-.4.71-.4.29 0 .44.12.44.35zM5.4 11.94c-2.7 1.133-4.115 1.7-4.24 1.7-.38 0-.568-.3-.568-.903 0-.21.19-.385.567-.525l2.05-.672c.22-.07.56-.203 1.01-.4.31-.125.52-.188.63-.188.22 0 .4.105.54.315v.672zm2.71 3.107c0 .168-.693 1.17-2.08 3.003-.447.602-.713.903-.797.903-.42 0-.63-.182-.63-.546 0-.14.23-.56.693-1.26.938-1.414 1.547-2.345 1.827-2.793.658.154.987.385.987.693zM6.493 14.04c-2.408 1.61-3.76 2.414-4.053 2.414-.21 0-.385-.066-.525-.2-.14-.133-.21-.283-.21-.45 0-.253.105-.45.315-.59 2.268-1.44 3.528-2.162 3.78-2.162.392 0 .623.33.693.987zm5.23-3.403c0-1.064-.568-1.66-1.702-1.785-.4.014-.73.19-.97.525-.24.336-.37.784-.37 1.344 0 .41.14.77.42 1.08.28.31.63.46 1.05.46.46 0 .84-.15 1.14-.45.3-.3.44-.69.44-1.16zm25.682-7.58c0 .11-.196.42-.588.923-1.47 1.918-2.275 2.877-2.415 2.877-.112 0-.24-.063-.388-.19-.148-.125-.22-.244-.22-.356 0-.05.202-.35.608-.9.616-.81 1.155-1.57 1.617-2.27.08-.12.17-.25.27-.39.1-.13.25-.19.46-.19.14 0 .28.06.43.17.15.12.22.23.22.34zm2.29 2.98c0 .225-.365.533-1.093.925-1.61.854-2.576 1.28-2.898 1.28-.14 0-.276-.055-.41-.167-.133-.112-.2-.224-.2-.336 0-.13.323-.38.967-.74 1.87-1.04 2.89-1.56 3.07-1.56.13 0 .25.06.38.19.13.12.19.25.19.39zm-5.902-4.472c-.434 2.548-1.015 3.94-1.743 4.18-.238-.197-.357-.393-.357-.59 0-.14.077-.566.23-1.28.21-.966.38-1.8.505-2.5.084-.153.21-.23.378-.23.14 0 .47.14.987.42zm6.615 7.938c0 .392-.21.61-.63.65-.014 0-.42.057-1.218.17-.574.083-1.078.125-1.512.125-.7 0-1.05-.203-1.05-.61 0-.293.266-.454.798-.482.392-.014.93-.136 1.617-.367.686-.24 1.134-.35 1.344-.35.434 0 .65.28.65.86zM30.6 4.946c0 .21-.062.395-.188.557-.126.16-.266.24-.42.24-.084 0-.21-.034-.378-.104 0-.28-.336-1.74-1.008-4.37.28-.21.553-.32.82-.32.363 0 .573.07.63.23.04.29.16 1.03.356 2.22.126.73.19 1.24.19 1.53zm9.598 7.518l-.084.504c-.322.224-.518.336-.588.336-.07 0-.427-.105-1.07-.315-.883-.3-1.73-.55-2.542-.76.042-.59.287-.88.735-.88.18 0 .55.1 1.11.3.56.2.94.3 1.13.3.15 0 .59.16 1.3.5zM28.48 5.786c0 .154-.05.304-.147.452-.098.147-.196.22-.294.22-.3 0-.73-.325-1.3-.977-.57-.65-1.04-1.26-1.42-1.83-.28-.43-.42-.68-.42-.73 0-.17.08-.33.25-.5.17-.17.33-.25.48-.25.26 0 .88.72 1.85 2.17.65.77.98 1.26.98 1.47zM39.106 15.95c0 .14-.08.276-.24.41-.163.133-.334.2-.516.2-.196 0-.588-.246-1.176-.736-1.456-1.204-2.184-1.883-2.184-2.037 0-.084.182-.364.546-.84 2.38 1.638 3.57 2.64 3.57 3.003zm-4.683-5.523c0 .854-.315 1.606-.945 2.258-.63.65-1.386.976-2.268.976-.966 0-1.753-.3-2.362-.92-.61-.61-.914-1.38-.914-2.29 0-.81.322-1.54.966-2.2.644-.66 1.33-.98 2.058-.98.714 0 1.456.3 2.226.91.826.65 1.24 1.4 1.24 2.27zm2.373 8.064c0 .13-.087.26-.262.38-.176.13-.347.19-.515.19-.13 0-.33-.19-.61-.56-.58-.79-1.07-1.58-1.47-2.35-.3-.56-.44-.87-.44-.94 0-.15.06-.3.18-.44s.24-.21.35-.21c.15 0 .47.35.96 1.05 1.19 1.68 1.78 2.65 1.78 2.9zM26.4 7.49c0 .14-.062.27-.188.388-.126.12-.26.18-.4.18-.097 0-.44-.218-1.028-.652-1.428-1.022-2.254-1.61-2.478-1.764.028-.31.126-.568.294-.778.168-.21.336-.315.504-.315.42 0 1.176.51 2.268 1.55.686.64 1.03 1.11 1.03 1.39zm.085 2.75c-.168.015-.346.036-.535.064-.19.03-.305.043-.347.043-.392 0-1.435-.217-3.13-.65-.433-.113-.657-.17-.67-.17-.127-.07-.19-.237-.19-.503 0-.616.12-.924.357-.924.07 0 .427.126 1.07.378.743.294 1.443.504 2.1.63.337.056.666.12.988.19.238.04.357.104.357.188v.756zM33.5 19.5c0 .433-.176.65-.526.65-.42 0-.7-.077-.84-.23v-.064c0-.406-.266-1.8-.798-4.18.266-.153.532-.23.798-.23.322 0 .525.19.61.567.503 2.296.755 3.458.755 3.486zm-2.794-3.823c0 .266-.07.7-.21 1.302-.182.72-.294 1.26-.336 1.59-.056.4-.105.8-.147 1.19-.07.25-.238.38-.504.38-.55 0-.82-.28-.82-.84 0-.12.09-.52.29-1.22.25-.86.44-1.65.56-2.38.04-.27.28-.4.71-.4.29 0 .44.12.44.35zM26.4 11.94c-2.7 1.133-4.115 1.7-4.24 1.7-.38 0-.568-.3-.568-.903 0-.21.19-.385.567-.525l2.05-.672c.22-.07.56-.203 1.01-.4.31-.125.52-.188.63-.188.22 0 .4.105.54.315v.672zm2.71 3.107c0 .168-.693 1.17-2.08 3.003-.447.602-.713.903-.797.903-.42 0-.63-.182-.63-.546 0-.14.23-.56.693-1.26.938-1.414 1.547-2.345 1.827-2.793.658.154.987.385.987.693zm-1.617-1.008c-2.408 1.61-3.76 2.41-4.053 2.41-.21 0-.385-.07-.525-.2-.14-.14-.21-.29-.21-.45 0-.26.105-.45.315-.59 2.268-1.44 3.528-2.16 3.78-2.16.392 0 .623.33.693.98zm5.23-3.41c0-1.07-.568-1.66-1.702-1.79-.4.01-.73.19-.97.52s-.37.78-.37 1.34c0 .4.14.76.42 1.07.28.31.63.46 1.05.46.46 0 .84-.15 1.14-.45.3-.308.44-.69.44-1.17zm25.682-7.58c0 .11-.196.42-.588.92-1.47 1.91-2.275 2.87-2.415 2.87-.112 0-.24-.07-.388-.19-.148-.13-.22-.25-.22-.36 0-.06.202-.36.608-.9.616-.82 1.155-1.57 1.617-2.27.08-.13.17-.26.27-.39s.25-.2.46-.2c.14 0 .28.05.43.16.15.112.22.224.22.336zm2.29 2.98c0 .22-.365.53-1.093.92-1.61.85-2.576 1.28-2.898 1.28-.14 0-.276-.06-.41-.17-.133-.11-.2-.23-.2-.34 0-.13.323-.37.967-.74 1.87-1.04 2.89-1.56 3.07-1.56.13 0 .25.063.38.19s.19.26.19.4zm-5.902-4.47c-.434 2.55-1.015 3.94-1.743 4.18-.238-.2-.357-.4-.357-.59 0-.14.077-.57.23-1.28.21-.97.38-1.8.505-2.5.084-.16.21-.23.378-.23.14 0 .47.14.987.42zm6.615 7.94c0 .39-.21.61-.63.65-.014 0-.42.05-1.218.17-.574.08-1.078.12-1.512.12-.7 0-1.05-.21-1.05-.61 0-.3.266-.46.798-.48.392-.02.93-.14 1.617-.37.686-.24 1.134-.35 1.344-.35.434 0 .65.28.65.86zM51.6 4.94c0 .21-.062.395-.188.557-.126.16-.266.24-.42.24-.084 0-.21-.034-.378-.104 0-.28-.336-1.74-1.008-4.37.28-.21.553-.317.82-.317.363 0 .573.077.63.23.04.295.16 1.037.356 2.227.126.73.19 1.24.19 1.54zm9.598 7.518l-.084.505c-.322.22-.518.33-.588.33-.07 0-.427-.104-1.07-.314-.883-.3-1.73-.55-2.542-.76.042-.59.287-.88.735-.88.18 0 .55.1 1.11.3s.94.3 1.13.3c.15 0 .59.162 1.3.5zM49.48 5.783c0 .158-.05.308-.147.456-.098.14-.196.22-.294.22-.3 0-.73-.33-1.3-.98-.57-.65-1.04-1.26-1.42-1.83-.28-.43-.42-.68-.42-.73 0-.17.08-.34.25-.51.17-.17.33-.25.48-.25.26 0 .88.72 1.85 2.16.65.77.98 1.26.98 1.47zM60.106 15.95c0 .14-.08.276-.24.41-.163.133-.334.2-.516.2-.196 0-.588-.246-1.176-.736-1.456-1.204-2.184-1.883-2.184-2.037 0-.084.182-.364.546-.84 2.38 1.638 3.57 2.64 3.57 3.003zm-4.683-5.523c0 .854-.315 1.606-.945 2.258-.63.65-1.386.976-2.268.976-.966 0-1.753-.3-2.363-.92-.61-.61-.913-1.38-.913-2.29 0-.81.322-1.54.966-2.2.644-.66 1.33-.98 2.058-.98.714 0 1.456.3 2.226.91.826.65 1.24 1.4 1.24 2.27zm2.373 8.064c0 .13-.087.26-.262.38-.176.13-.347.19-.515.19-.13 0-.33-.19-.61-.56-.58-.79-1.07-1.58-1.47-2.35-.3-.56-.44-.87-.44-.94 0-.15.06-.3.18-.44s.24-.21.35-.21c.15 0 .47.35.96 1.05 1.19 1.68 1.78 2.65 1.78 2.9zM47.4 7.49c0 .14-.062.27-.188.388-.126.12-.26.18-.4.18-.097 0-.44-.218-1.028-.652-1.428-1.022-2.254-1.61-2.478-1.764.028-.31.126-.568.294-.778.168-.21.336-.315.504-.315.42 0 1.176.51 2.268 1.55.686.64 1.03 1.11 1.03 1.39zm.085 2.75c-.168.015-.346.036-.536.064-.19.03-.31.043-.35.043-.39 0-1.44-.217-3.13-.65-.44-.113-.66-.17-.67-.17-.13-.07-.19-.237-.19-.503 0-.616.12-.924.35-.924.07 0 .42.126 1.07.378.74.294 1.44.504 2.1.63.33.056.66.12.98.19.24.04.35.104.35.188v.756zM54.5 19.5c0 .433-.176.65-.526.65-.42 0-.7-.077-.84-.23v-.064c0-.406-.266-1.8-.798-4.18.266-.153.532-.23.798-.23.322 0 .525.19.61.567.503 2.296.755 3.458.755 3.486zm-2.794-3.823c0 .266-.07.7-.21 1.302-.182.72-.294 1.26-.336 1.59-.056.4-.105.8-.147 1.19-.07.25-.238.38-.504.38-.55 0-.82-.28-.82-.84 0-.12.09-.52.29-1.22.25-.86.44-1.65.56-2.38.04-.27.28-.4.71-.4.29 0 .44.12.44.35zM47.4 11.94c-2.7 1.133-4.115 1.7-4.24 1.7-.38 0-.568-.3-.568-.903 0-.21.19-.385.567-.525l2.05-.672c.22-.07.56-.203 1.01-.4.31-.125.52-.188.63-.188.22 0 .4.105.54.315v.672zm2.71 3.107c0 .168-.693 1.17-2.08 3.003-.447.602-.713.903-.797.903-.42 0-.63-.182-.63-.546 0-.14.23-.56.693-1.26.938-1.414 1.547-2.345 1.827-2.793.658.154.987.385.987.693zm-1.617-1.008c-2.408 1.61-3.76 2.41-4.053 2.41-.21 0-.385-.07-.525-.2-.14-.14-.21-.29-.21-.45 0-.26.105-.45.315-.59 2.268-1.44 3.528-2.16 3.78-2.16.392 0 .623.33.693.98zm5.23-3.41c0-1.07-.568-1.66-1.702-1.79-.4.01-.73.19-.97.52s-.36.78-.36 1.34c0 .4.14.76.42 1.07.28.31.63.46 1.05.46.46 0 .84-.15 1.14-.45.3-.308.44-.69.44-1.17z" fill="#C1BAAD" fill-rule="evenodd"/></svg>