<svg width="63" height="21" viewBox="0 0 63 21" xmlns="http://www.w3.org/2000/svg"><title>,,,</title><path d="M13.293 1.23c-.014.195-.02.426-.02.692 0 .308-.06.55-.18.725-.12.175-.248.262-.388.262-.224 0-.336-.38-.336-1.14 0-.16.07-.31.21-.46.14-.16.3-.23.5-.23.05 0 .12.05.21.14zm5.565 5.837c0 .182-.16.35-.483.504-.322.16-.65.24-.987.24-.084 0-.154-.07-.21-.21.042-.22.203-.42.483-.59.28-.17.54-.25.78-.25.28 0 .42.11.42.32zm-4.62-3.57c0 .224-.462.945-1.386 2.163-.924 1.218-1.484 1.827-1.68 1.827-.098 0-.203-.273-.315-.82.154-.74.238-1.602.252-2.582.01-.742.07-1.197.18-1.365.61.616 1.17.924 1.66.924.19 0 .58-.09 1.17-.273.07.03.1.07.1.13zm3.108 5.607c0 .098-.14.19-.42.273-.28.084-.595.126-.945.126h-.08c-.19 0-.57.007-1.13.02-.56.015-1.02.022-1.38.022h-.09c-.31 0-.46-.112-.46-.336 0-.13 1.12-1.05 3.34-2.78.13.07.19.3.19.69 0 .49.05.84.15 1.05.07.15.24.33.51.54.23.17.34.29.34.38zm1.743 2.856c0 .336-.19.504-.55.504-.27 0-.72-.154-1.37-.462v-.21c.56-.196.95-.294 1.17-.294.43 0 .68.126.73.378v.084zM8.75 2.91c0 .237-.077.356-.23.356-.113 0-.302-.2-.568-.598-.267-.4-.4-.69-.4-.872 0-.084.052-.185.157-.304.1-.12.2-.18.3-.18.16 0 .33.18.49.537.16.35.24.69.24 1.01v.04zm1.365 3.884c0 .112-.07.217-.21.315-.238 0-.96-.84-2.163-2.5-.03-.05-.127-.14-.295-.28-.113-.09-.17-.18-.17-.3 0-.16.078-.25.23-.28.59.04.835.06.737.06h.065c.22 0 .7-.23 1.42-.7.25.18.38 1.38.38 3.61v.04zm7.203 3.738c0 .154-.132.396-.4.724-.264.33-.397.578-.397.746 0 .014.06.13.18.347.12.21.18.4.18.57 0 .15-.1.23-.31.23-.19 0-.82-.39-1.89-1.18-.74-.55-1.13-.84-1.15-.86-.25-.21-.38-.4-.38-.55 0-.27.31-.4.93-.4.21 0 .55.03 1.02.09s.84.09 1.1.09c.06 0 .14-.02.25-.05.11-.03.17-.04.2-.04h.09c.41 0 .61.08.61.25zm3.424 9.05c0 .17-.126.253-.378.253-.1 0-2.06-1.91-5.88-5.733-2.158-2.156-3.285-3.234-3.38-3.234-.045 0-.12.052-.234.157-.112.105-.217.158-.315.158-.056 0-.13-.038-.22-.115-.09-.077-.158-.116-.2-.116-.14 0-.707.54-1.7 1.617l-4.22 4.55c-1.877 1.99-2.865 2.98-2.96 2.98-.128 0-.21-.12-.254-.34.77-.88 2.24-2.43 4.39-4.64 1.85-1.91 3.26-3.45 4.22-4.64-.01-.05-.08-.14-.21-.3-.09-.11-.14-.23-.14-.36 0-.17.06-.33.18-.47s.18-.22.18-.23c-.48-.52-1.03-1.09-1.66-1.71-1.4-1.4-2.9-2.79-4.51-4.16C1.32 1.44.26.42.26.2.258.172.29.13.36.074.43.018.505-.01.59-.01 2.87 1.992 5.2 4.148 7.58 6.458 9.15 7.97 9.99 8.726 10.1 8.726c.113 0 .263-.063.453-.19.19-.125.304-.188.346-.188.07 0 .2.14.39.42 2.06-1.96 4.07-4.004 6.05-6.132C18.67 1.208 19.39.494 19.49.494c.14 0 .252.098.336.294-5.488 5.53-8.232 8.365-8.232 8.505 0 .07.077.182.23.336.155.15.232.28.232.39 0 .04-.063.12-.19.23-.125.11-.188.18-.188.21 0 .17.483.68 1.45 1.55 1.427 1.3 2.512 2.34 3.254 3.13.574.6 1.56 1.51 2.96 2.73.94.81 1.408 1.34 1.408 1.59v.1zM8.674 9.378c-.127.168-1.128.252-3.004.252-1.148 0-1.722-.113-1.722-.337 0-.028.16-.22.483-.577.33-.357.49-.71.49-1.06 0-.057-.03-.16-.08-.305-.05-.14-.08-.27-.08-.38 0-.26.11-.4.34-.4.27 0 1.47.94 3.59 2.82zm5.123 6.174c0 .14-.098.21-.294.21h-.063c-.336-.097-.588-.146-.756-.146h-.063c-.26 0-.5.115-.71.346-.21.23-.33.347-.35.347-.09 0-.2-.19-.31-.57 0-.6-.06-1.25-.19-1.93-.12-.69-.19-1.09-.19-1.2 0-.25.09-.38.26-.38s.35.14.54.43l.6.89c.21.3.56.72 1.03 1.26.35.39.53.63.53.73zm-.147 2.017c-.07.32-.217.48-.44.48-.155 0-.295-.11-.42-.33-.127-.22-.19-.45-.19-.69v-.13c0-.35.105-.53.315-.53.238 0 .483.39.735 1.17zM4.284 7.93c0 .224-.238.336-.714.336h-.147c-.294 0-.59-.084-.892-.252-.3-.168-.45-.33-.45-.483v-.02c.24-.22.5-.33.78-.33.2 0 .49.1.86.29.38.19.57.35.57.47zm4.43 2.29c0 .223-.573.8-1.72 1.73-1.15.93-1.814 1.397-1.996 1.397-.14 0-.21-.077-.21-.23 0-.085.035-.228.105-.43.07-.204.105-.37.105-.495v-.02c0-.196-.15-.448-.452-.756-.3-.308-.45-.532-.45-.672 0-.196.132-.322.398-.378.042-.014.406-.05 1.092-.105 1.54-.14 2.52-.21 2.94-.21.126 0 .19.06.19.17zm1.64 4.703c0 .477-.036.886-.106 1.23-.07.343-.133.514-.19.514.03 0-.14-.147-.503-.44-.364-.295-.756-.463-1.176-.505-.28.055-.52.083-.7.083-.17 0-.25-.09-.25-.273 0-.266.1-.49.31-.672l.61-.525c.11-.14.4-.546.86-1.218.29-.434.51-.65.65-.65.11 0 .21.23.31.692.11.5.17 1.09.17 1.76zM8.988 16.94c0 .14-.1.4-.305.777-.203.378-.36.567-.472.567-.21 0-.31-.202-.31-.608 0-.308.07-.62.2-.935.14-.31.27-.47.41-.47.11 0 .22.08.33.22.11.15.16.3.16.45zm-4.536-4.935c0 .28-.14.51-.42.693-.28.182-.63.273-1.05.273-.154 0-.33-.06-.525-.2-.196-.13-.294-.25-.294-.36 0-.44.574-.67 1.722-.67.378 0 .567.09.567.27zM34.125 1.23c-.014.195-.02.426-.02.692 0 .308-.06.55-.18.725-.12.175-.248.262-.388.262-.224 0-.336-.38-.336-1.14 0-.16.07-.31.21-.46.14-.16.31-.23.51-.23.06 0 .13.05.21.14zm5.565 5.837c0 .182-.16.35-.483.504-.322.16-.65.24-.987.24-.084 0-.154-.07-.21-.21.042-.22.203-.42.483-.59.28-.17.54-.25.777-.25.28 0 .42.11.42.32zm-4.62-3.57c0 .224-.462.945-1.386 2.163-.924 1.218-1.484 1.827-1.68 1.827-.098 0-.203-.273-.315-.82.15-.74.23-1.602.25-2.582.01-.742.07-1.197.19-1.365.61.616 1.17.924 1.66.924.19 0 .58-.09 1.17-.273.07.03.1.07.1.13zm3.108 5.607c0 .098-.14.19-.42.273-.28.084-.595.126-.945.126h-.084c-.2 0-.58.007-1.14.02-.56.015-1.02.022-1.39.022h-.09c-.31 0-.46-.112-.46-.336 0-.13 1.11-1.05 3.34-2.78.12.07.19.3.19.69 0 .49.05.84.14 1.05.07.15.24.33.5.54.22.17.33.29.33.38zm1.743 2.856c0 .336-.18.504-.54.504-.26 0-.72-.154-1.36-.462v-.21c.56-.196.96-.294 1.18-.294.44 0 .68.126.74.378v.084zM29.59 2.91c0 .237-.078.356-.232.356-.112 0-.3-.2-.567-.598-.26-.4-.39-.69-.39-.872 0-.084.05-.185.16-.304.11-.12.21-.18.31-.18.17 0 .33.18.5.537.16.35.24.69.24 1.01v.04zm1.364 3.884c0 .112-.07.217-.21.315-.238 0-.96-.84-2.163-2.5-.02-.05-.12-.14-.29-.28-.11-.09-.17-.18-.17-.3 0-.16.08-.25.23-.28.59.04.84.06.74.06h.07c.23 0 .7-.23 1.43-.7.26.18.38 1.38.38 3.61v.04zm7.203 3.738c0 .154-.133.396-.4.724-.265.33-.398.578-.398.746 0 .014.05.13.17.347.12.21.18.4.18.57 0 .15-.11.23-.32.23-.2 0-.83-.39-1.89-1.18-.74-.55-1.13-.84-1.16-.86-.25-.21-.38-.4-.38-.55 0-.27.31-.4.92-.4.21 0 .55.03 1.02.09s.83.09 1.1.09c.05 0 .13-.02.24-.05.11-.03.17-.04.2-.04h.08c.41 0 .61.08.61.25zm3.423 9.05c0 .17-.126.253-.378.253-.098 0-2.058-1.91-5.88-5.733-2.156-2.156-3.283-3.234-3.38-3.234-.043 0-.12.052-.232.157-.112.105-.217.158-.315.158-.056 0-.13-.038-.22-.115-.092-.077-.158-.116-.2-.116-.14 0-.707.54-1.7 1.617-2.423 2.61-3.83 4.13-4.222 4.55-1.876 1.99-2.863 2.98-2.96 2.98-.127 0-.21-.11-.253-.34.77-.88 2.233-2.43 4.39-4.64 1.847-1.91 3.254-3.45 4.22-4.64-.014-.05-.084-.14-.21-.3-.098-.11-.147-.23-.147-.36 0-.17.06-.33.18-.47.118-.14.177-.22.177-.23-.476-.53-1.03-1.11-1.66-1.72-1.4-1.4-2.904-2.79-4.514-4.16C22.148 1.44 21.084.42 21.084.2c0-.03.035-.07.105-.127.07-.055.14-.083.23-.083 2.28 2 4.61 4.157 6.99 6.467 1.57 1.512 2.41 2.268 2.52 2.268.11 0 .26-.063.45-.19.19-.125.3-.188.34-.188.07 0 .2.14.4.42 2.05-1.96 4.07-4.004 6.04-6.132 1.34-1.427 2.06-2.14 2.16-2.14.14 0 .25.097.33.293-5.49 5.53-8.23 8.365-8.23 8.505 0 .07.08.182.23.336.15.15.23.28.23.39 0 .04-.07.12-.19.23-.13.11-.19.18-.19.21 0 .17.48.68 1.45 1.55 1.42 1.3 2.51 2.34 3.25 3.13.57.6 1.56 1.51 2.96 2.73.94.81 1.41 1.34 1.41 1.59v.1zM29.505 9.378c-.126.168-1.127.252-3.003.252-1.148 0-1.722-.113-1.722-.337 0-.028.16-.22.483-.577.322-.357.483-.71.483-1.06 0-.057-.028-.16-.084-.305-.056-.14-.084-.27-.084-.38 0-.26.112-.4.336-.4.266 0 1.463.94 3.59 2.82zm5.124 6.174c0 .14-.1.21-.3.21h-.07c-.34-.097-.59-.146-.76-.146h-.07c-.27 0-.51.115-.72.346-.21.23-.33.347-.36.347-.1 0-.21-.19-.32-.57 0-.6-.07-1.25-.19-1.93-.13-.69-.19-1.09-.19-1.2 0-.25.08-.38.25-.38.17 0 .35.14.54.43l.6.89c.21.3.55.72 1.03 1.26.35.39.52.63.52.73zm-.15 2.017c-.07.32-.22.48-.44.48-.16 0-.3-.11-.42-.33-.13-.22-.19-.45-.19-.69v-.13c0-.35.1-.53.31-.53.24 0 .48.39.73 1.17zm-9.37-9.64c0 .22-.24.33-.72.33h-.15c-.3 0-.59-.09-.89-.25-.3-.17-.45-.33-.45-.48v-.02c.24-.23.49-.34.77-.34.19 0 .48.09.86.28.38.19.57.34.57.47zm4.43 2.29c0 .22-.58.8-1.72 1.73-1.15.93-1.82 1.39-2 1.39-.14 0-.21-.08-.21-.23 0-.09.03-.23.1-.43.07-.21.1-.37.1-.5v-.02c0-.2-.15-.45-.46-.76-.3-.31-.45-.53-.45-.67 0-.2.13-.32.4-.38.04-.02.4-.05 1.09-.11 1.54-.14 2.52-.21 2.94-.21.12 0 .19.05.19.16zm1.64 4.7c0 .47-.04.88-.11 1.23-.07.34-.14.51-.19.51.03 0-.14-.15-.51-.44-.37-.3-.76-.47-1.18-.51-.28.05-.51.08-.69.08-.17 0-.25-.09-.25-.28 0-.27.1-.49.31-.67l.61-.53c.11-.14.4-.55.86-1.22.29-.44.51-.65.65-.65.11 0 .21.23.31.69.11.5.17 1.09.17 1.76zm-1.37 2.02c0 .14-.1.4-.31.77-.21.38-.36.56-.48.56-.21 0-.32-.2-.32-.61 0-.31.06-.62.2-.94.13-.32.27-.47.41-.47.11 0 .22.07.32.22.1.14.15.3.15.45zM25.27 12c0 .28-.14.51-.42.693-.28.182-.63.273-1.05.273-.155 0-.33-.065-.526-.2-.19-.13-.29-.253-.29-.365 0-.44.573-.67 1.72-.67.38 0 .57.09.57.28zM54.95 1.23c-.015.195-.02.426-.02.692 0 .308-.06.55-.18.725-.12.175-.25.262-.39.262-.23 0-.34-.38-.34-1.14 0-.16.07-.31.21-.46.14-.16.31-.23.503-.23.056 0 .126.05.21.14zm5.564 5.837c0 .182-.16.35-.48.504-.33.16-.654.24-.99.24-.084 0-.154-.07-.21-.21.04-.22.2-.42.48-.59.28-.17.54-.25.78-.25.28 0 .42.11.42.32zm-4.62-3.57c0 .224-.46.945-1.38 2.163-.924 1.218-1.484 1.827-1.68 1.827-.1 0-.203-.273-.315-.82.16-.74.24-1.602.26-2.582.01-.742.07-1.197.19-1.365.61.616 1.16.924 1.65.924.19 0 .59-.09 1.17-.273.07.03.1.07.1.13zm3.11 5.607c0 .098-.14.19-.42.273-.28.084-.59.126-.94.126h-.085c-.19 0-.57.007-1.13.02-.56.015-1.02.022-1.39.022h-.09c-.31 0-.47-.112-.47-.336 0-.13 1.11-1.05 3.34-2.78.12.07.19.3.19.69 0 .49.05.84.14 1.05.07.15.24.33.506.54.224.17.336.29.336.38zm1.747 2.856c0 .336-.18.504-.54.504-.26 0-.72-.154-1.36-.462v-.21c.56-.196.96-.294 1.18-.294.44 0 .68.126.74.378v.084zM50.42 2.91c0 .237-.076.356-.23.356-.112 0-.3-.2-.567-.598-.266-.4-.4-.69-.4-.872 0-.084.053-.185.158-.304.11-.12.21-.18.31-.18.17 0 .33.18.5.537.16.35.24.69.24 1.01v.04zm1.366 3.884c0 .112-.07.217-.21.315-.238 0-.96-.84-2.163-2.5-.028-.05-.126-.14-.294-.28-.12-.09-.17-.18-.17-.3 0-.16.07-.25.23-.28.59.04.83.06.73.06h.06c.22 0 .7-.23 1.42-.7.25.18.38 1.38.38 3.61v.04zm7.203 3.738c0 .154-.14.396-.4.724-.27.33-.4.578-.4.746 0 .014.06.13.18.347.12.21.17.4.17.57 0 .15-.11.23-.32.23-.2 0-.83-.39-1.89-1.18l-1.16-.86c-.25-.21-.38-.4-.38-.55 0-.27.3-.4.92-.4.21 0 .55.03 1.02.09s.83.09 1.1.09c.06 0 .14-.02.24-.05.1-.03.17-.04.2-.04h.08c.4 0 .61.08.61.25zm3.42 9.05c0 .17-.13.253-.38.253-.1 0-2.06-1.91-5.88-5.733-2.16-2.156-3.29-3.234-3.38-3.234-.05 0-.12.052-.23.157-.11.105-.22.158-.32.158-.06 0-.13-.038-.22-.115-.09-.077-.16-.116-.2-.116-.14 0-.71.54-1.7 1.617l-4.22 4.55c-1.88 1.99-2.87 2.98-2.96 2.98-.13 0-.21-.11-.26-.34.77-.88 2.23-2.43 4.39-4.64 1.85-1.91 3.25-3.45 4.22-4.64-.02-.05-.09-.14-.21-.3-.1-.11-.15-.23-.15-.36 0-.17.06-.33.18-.47s.17-.22.17-.23c-.48-.53-1.03-1.11-1.66-1.72-1.4-1.4-2.91-2.79-4.52-4.16-2.1-1.8-3.17-2.82-3.17-3.04 0-.03.03-.07.1-.13s.15-.09.23-.09c2.28 2 4.61 4.15 6.99 6.46 1.57 1.51 2.41 2.27 2.52 2.27.11 0 .26-.07.45-.19s.3-.19.35-.19c.07 0 .2.14.4.42 2.05-1.96 4.07-4 6.04-6.13C60.34 1.2 61.06.49 61.16.49c.14 0 .253.097.337.293-5.49 5.53-8.24 8.365-8.24 8.505 0 .07.074.183.23.337.15.15.23.28.23.39 0 .04-.065.12-.19.23-.127.11-.19.18-.19.21 0 .17.483.68 1.45 1.55 1.43 1.3 2.51 2.34 3.254 3.13.58.6 1.56 1.51 2.96 2.73.94.81 1.41 1.34 1.41 1.59v.102zM50.33 9.378c-.126.168-1.127.252-3.003.252-1.148 0-1.72-.113-1.72-.337 0-.028.16-.22.482-.577.32-.357.48-.71.48-1.06 0-.057-.03-.16-.09-.305-.06-.14-.08-.27-.08-.38 0-.26.11-.4.33-.4.26 0 1.46.94 3.59 2.82zm5.124 6.174c0 .14-.096.21-.29.21H55.1c-.335-.097-.587-.146-.755-.146h-.064c-.26 0-.5.115-.71.346-.21.23-.33.347-.35.347-.09 0-.2-.19-.31-.57 0-.6-.06-1.25-.19-1.93-.12-.69-.19-1.09-.19-1.2 0-.25.09-.38.26-.38s.35.14.54.43l.6.89c.21.3.55.72 1.03 1.26.35.39.53.63.53.73zm-.145 2.017c-.07.32-.22.48-.44.48-.16 0-.3-.11-.42-.33-.13-.22-.19-.45-.19-.69v-.13c0-.35.1-.53.31-.53.24 0 .48.39.73 1.17zm-9.36-9.64c0 .22-.24.33-.72.33h-.15c-.3 0-.59-.09-.9-.25-.3-.17-.45-.33-.45-.49V7.5c.23-.22.49-.33.77-.33.2 0 .49.094.86.284.38.19.57.347.57.47zm4.43 2.29c0 .22-.58.8-1.72 1.73-1.15.93-1.82 1.39-2 1.39-.14 0-.21-.08-.21-.23 0-.09.03-.23.1-.43.07-.21.1-.37.1-.5v-.02c0-.2-.15-.45-.45-.76-.31-.31-.46-.53-.46-.67 0-.2.13-.33.39-.38.04-.02.4-.05 1.09-.11 1.54-.14 2.52-.21 2.94-.21.12 0 .19.06.19.17zm1.64 4.7c0 .47-.04.88-.11 1.23-.07.34-.14.51-.19.51.03 0-.14-.15-.51-.44-.37-.3-.76-.47-1.18-.51-.28.05-.51.08-.7.08-.17 0-.26-.09-.26-.28 0-.27.1-.49.31-.67.21-.18.41-.36.61-.53.11-.14.39-.55.86-1.22.29-.44.51-.65.65-.65.11 0 .21.23.31.69.11.5.16 1.09.16 1.76zm-1.37 2.02c0 .14-.1.4-.31.77-.21.38-.36.56-.47.56-.21 0-.32-.2-.32-.61 0-.31.07-.62.2-.94.14-.31.27-.47.41-.47.11 0 .22.08.33.22.11.15.16.3.16.45zM46.11 12c0 .28-.14.51-.42.693-.28.182-.63.273-1.05.273-.154 0-.33-.06-.525-.2-.195-.13-.293-.25-.293-.36 0-.447.57-.67 1.72-.67.37 0 .56.09.56.27z" fill="#C1BAAD" fill-rule="evenodd"/></svg>