<?xml version="1.0" encoding="utf-8"?>
<!-- Generator: Adobe Illustrator 16.0.4, SVG Export Plug-In . SVG Version: 6.00 Build 0)  -->
<!DOCTYPE svg PUBLIC "-//W3C//DTD SVG 1.1//EN" "http://www.w3.org/Graphics/SVG/1.1/DTD/svg11.dtd">
<svg version="1.1" id="Layer_1" xmlns="http://www.w3.org/2000/svg" xmlns:xlink="http://www.w3.org/1999/xlink" x="0px" y="0px"
	 width="240.94px" height="155.91px" viewBox="0 0 240.94 155.91" enable-background="new 0 0 240.94 155.91" xml:space="preserve">
<g>
	<g>
		<path fill="#2BA9E0" d="M79.935,90.602c0,3.453-1.497,6.248-4.983,6.248c-3.489,0-4.996-2.795-4.996-6.248V78.798h-6.364v11.804
			c0,6.824,4.43,12.353,11.324,12.353c6.887,0,11.384-5.528,11.384-12.353V78.784h-6.379L79.935,90.602z"/>
	</g>
	<g>
		<rect x="143.808" y="71.586" fill="#2BA9E0" width="6.344" height="30.76"/>
	</g>
	<g>
		<polygon fill="#2BA9E0" points="154.837,72.721 156.647,72.721 156.647,77.593 157.976,77.593 157.976,72.721 159.784,72.721 
			159.784,71.616 154.837,71.616 		"/>
	</g>
	<g>
		<polygon fill="#2BA9E0" points="165.108,71.616 163.773,75.727 163.756,75.727 162.345,71.616 160.478,71.616 160.478,77.593 
			161.719,77.593 161.719,73.399 161.735,73.399 163.212,77.593 164.239,77.593 165.718,73.354 165.732,73.354 165.732,77.593 
			166.976,77.593 166.976,71.616 		"/>
	</g>
	<g>
		<path fill="#2BA9E0" d="M49.342,82.95c-0.069,0.141-0.071,0.221-0.315,0.219c-0.199-0.008-0.223-0.219-0.223-0.219l-0.678-4.117
			h-5.685v23.495h6.371V89.61c0-1.041,2.827-6.021,8.303-4.744c2.767,0.652,3.941,1.816,3.941,1.816s0-4.537,0-7.156
			c-1.025-0.53-1.728-0.787-2.651-0.998C52.938,77.278,49.487,82.658,49.342,82.95z"/>
	</g>
	<g>
		<path fill="#2BA9E0" d="M101.119,78.34c-6.935,0-12.558,5.568-12.558,12.438c0,0,0,17.003,0,19.287h6.388v-8.454l0.004-3.167
			c0,0,0.009-0.251,0.24-0.257c0.205,0,0.25,0.136,0.302,0.257c0.482,1.192,3.142,5.729,9.039,4.306
			c5.278-1.474,9.147-6.272,9.147-11.972C113.68,83.908,108.058,78.34,101.119,78.34z M101.126,97.073
			c-3.514,0-6.356-2.816-6.356-6.295c0-3.475,2.842-6.297,6.356-6.297c3.512,0,6.358,2.822,6.358,6.297
			C107.485,94.257,104.639,97.073,101.126,97.073z"/>
	</g>
	<g>
		<path fill="#2BA9E0" d="M128.67,78.34c-6.938,0-12.562,5.568-12.562,12.438c0,5.699,3.871,10.498,9.152,11.972
			c5.897,1.424,8.555-3.113,9.035-4.306c0.053-0.121,0.098-0.257,0.304-0.257c0.231,0.006,0.239,0.257,0.239,0.257l0.005,3.892
			h6.389V90.778C141.231,83.908,135.609,78.34,128.67,78.34z M128.667,97.073c-3.513,0-6.36-2.816-6.36-6.295
			c0-3.475,2.848-6.297,6.36-6.297c3.509,0,6.356,2.822,6.356,6.297C135.023,94.257,132.176,97.073,128.667,97.073z"/>
	</g>
	<g>
		<path fill="#2BA9E0" d="M23.009,71.571h-7.777v30.717h7.249c9.521,0,17.089-1.842,17.089-15.358
			C39.569,73.284,32.426,71.571,23.009,71.571z M24.279,97.025l-2.631-0.067v-20.06h2.563c5.871,0,8.939,0.814,8.939,10.031
			C33.15,96.538,29.677,97.025,24.279,97.025z"/>
	</g>
</g>
<g>
	<g>
		<circle fill="#2BA9E0" cx="211.353" cy="91.899" r="7.294"/>
	</g>
	<g>
		<path fill="#2BA9E0" d="M220.421,83.213c2.162,2.257,3.494,5.314,3.494,8.686c0,4.27-2.133,8.039-5.389,10.309
			c6.018-1.855,10.994-6.377,13.223-11.854c3.082-7.576,0.213-13.279-4.604-18.449c0.146,0.669,0.229,1.362,0.229,2.076
			C227.374,78.364,224.435,82.061,220.421,83.213z"/>
	</g>
	<g>
		<circle fill="#2BA9E0" cx="217.765" cy="73.979" r="5.58"/>
	</g>
	<g>
		<path fill="#2BA9E0" d="M201.742,99.988c-1.843-2.186-2.954-5.007-2.954-8.09c0-6.431,4.834-11.729,11.064-12.47
			c-1.068-1.549-1.697-3.426-1.697-5.449c0-5.307,4.303-9.608,9.61-9.608c0.438,0,0.868,0.031,1.29,0.089
			c-3.143-2.713-6.28-5.464-8.756-8.472c1.265,13.172-11.998,8.386-16.9,20.525C190.109,84.658,193.075,94.728,201.742,99.988z"/>
	</g>
</g>
</svg>
