<svg xmlns="http://www.w3.org/2000/svg" viewBox="0 0 178.32 67.04"><path d="M137.04 29.05a11.7 11.7 0 0 0-6.1 0c-3.03.8-5.06 2.72-5.7 5.77a19.22 19.22 0 0 0-.34 5.14 7.86 7.86 0 0 0 6.37 7.55h.16c.14 0 .3.1.43.1h.15c.2 0 .4.1.7.1a7 7 0 0 0 2.5 0h.1a8 8 0 0 0 7.7-6.3c.5-2 .5-4.1 0-6.1a7.7 7.7 0 0 0-5.9-6.1zm.25 11.28c0 .12 0 .24-.1.36a3.1 3.1 0 0 1-3.4 2.5c-1.8-.1-3-1.2-3.2-2.9-.1-1.3-.2-2.7 0-4 .1-2.1 1.4-3.2 3.4-3.2 1.6 0 2.7.9 3.1 2.4.4 1.5.1 4.3.1 4.6zm7.7-20.4v27.5h5.8v-8.4l5.4 8.42h6.1l-5.9-9.16 5.8-9.2H156l-5.34 8.4V19.2zM82.9 38.88c0-1.3 0-2.57-.2-3.83-.5-3.44-2.58-5.62-5.97-6.2a18.9 18.9 0 0 0-3.98-.1c-3.6.35-6.33 2.6-6.9 5.97a21.6 21.6 0 0 0-.1 6.27c.4 3.1 1.92 5 4.52 6 1.2.3 7 1.9 12.13-.7l-.2-.8c-.25-1-.53-2-.8-3v-.1s-.1 0-.3.1c-.22.1-.45.1-.67.2h-.12a14.84 14.84 0 0 1-6 .6c-1.6-.3-2.8-1.2-2.8-3.2h11.4V40zm-5.25-2.52h-6.3c0-1.25.18-2.42 1.3-3.13a3.5 3.5 0 0 1 3.7-.1c1.24.67 1.33 1.9 1.3 3.23zM64.93 46.1a66.8 66.8 0 0 0-.82-2.7l-.2-1s-6.8 3.3-7.9-2.94c-.1-1.03-.1-2.1.1-3.1.3-1.9 1.5-2.94 3.3-3.1a6 6 0 0 1 1.9.1c.9.13 1.7.4 2.6.62l1-2.94c.1-.15.1-.3.2-.4l.2-.6c0-.1-.1-.15-.2-.23a3.03 3.03 0 0 0-.82-.3c-.16-.1-.32-.1-.5-.1-.14-.1-.24-.1-.24-.1-1.8-.5-3.65-.5-5.5-.3-3.96.4-6.64 2.8-7.4 6.6-.4 2.1-.4 4.1.1 6.1a7.4 7.4 0 0 0 5.5 5.9c1.95.6 3.95.6 5.94.3A18.2 18.2 0 0 0 65 47l.33-.13-.15-.5zM42.85 31.3l-.2-.2-.13-.14c-1.3-1.34-1.8-1.67-2.84-1.97a7.13 7.13 0 0 0-9.04 4.8 15.8 15.8 0 0 0-.32 7.4c.95 5.3 4.94 7.1 9.2 6.3a5.8 5.8 0 0 0 3.18-2.2s.1-.1.18-.3v2.3h5.45V28.9h-5.45v2.36zm-.48 9.3c-.18 1.7-1.56 2.73-3.2 2.67-1.67-.1-2.78-.96-3.14-2.57-.43-2.28.1-5 .12-5.22.44-1.53 1.55-2.3 3.2-2.25 1.6 0 2.83 1 3.02 2.65.16 1.56.16 3.17 0 4.72zM29.53 28.96h-4.17V26.2c.3-2.63 4.63-2.13 4.63-2.13V19.6c-.2 0-8.6-2.05-10.3 4.38-.3.8-.3 4.5-.3 4.95h-3.6v4.93h3.8v13.4h5.5v-13.4h4.2l.5-4.93h-.5zm87.6.1a11.7 11.7 0 0 0-6.1 0c-3.02.8-5.05 2.7-5.7 5.76a19.22 19.22 0 0 0-.34 5.14 7.87 7.87 0 0 0 6.3 7.55h.1c.1 0 .3.1.4.1h.1c.2 0 .4.1.6.1.7.1 1.6.2 2.4 0h.1a8 8 0 0 0 7.62-6.3 14 14 0 0 0 0-6.1 7.7 7.7 0 0 0-5.9-6.1zm.25 11.27c0 .12 0 .24-.1.36a3.08 3.08 0 0 1-3.3 2.5c-1.8-.1-3.03-1.2-3.2-2.9a20.85 20.85 0 0 1 0-4c.16-2.1 1.45-3.2 3.4-3.2 1.58 0 2.72.9 3.12 2.4.4 1.5.12 4.3.1 4.6zM96.45 28.7c-2.2-.23-4.1.44-5.72 2.38v-11.9l-5.84.72v27.5h5.8v-1.6c.8.56 1.5 1.24 2.4 1.56 3.4 1.22 7.9.23 9.4-4.32 1-2.92 1-5.9.2-8.86-.9-3.28-3.1-5.1-6.4-5.45zm.88 11.93c-.26 1.8-1.7 2.76-3.4 2.63-.44 0-.83-.12-1.17-.26a3.97 3.97 0 0 1-1.92-2.96c-.1-1.3-.2-4 .43-5.26.53-.98 1.47-1.5 2.7-1.55 1.76-.1 3.1.8 3.35 2.6.22 1.57.23 3.23 0 4.8z" fill="#3c5a9a"/></svg>