<svg width="449" height="165" viewBox="0 0 449 165" xmlns="http://www.w3.org/2000/svg"><path d="M127.78 76.38H101.7c-.67 0-1.22.55-1.22 1.24v12.9c0 .7.55 1.24 1.22 1.24h10.17v16.05s-2.28.8-8.6.8c-7.45 0-17.86-2.7-17.86-25.9s10.9-26.2 21.1-26.2c8.8 0 12.6 1.6 15 2.35.78.24 1.48-.53 1.48-1.2l2.92-12.5c0-.3-.1-.7-.48-.95-1-.7-6.95-4.1-22.1-4.1C85.9 40 68 47.5 68 83.57 68 119.62 88.45 125 105.68 125c14.27 0 22.92-6.17 22.92-6.17.36-.2.4-.7.4-.94V77.6c0-.7-.55-1.24-1.22-1.24M265 45.24c0-.7-.54-1.24-1.2-1.24h-14.67c-.67 0-1.2.55-1.2 1.24v28.63h-22.85V45.24c0-.7-.54-1.24-1.2-1.24H209.2c-.66 0-1.2.55-1.2 1.24v77.52c0 .68.54 1.24 1.2 1.24h14.67c.67 0 1.2-.56 1.2-1.24V89.6h22.85l-.04 33.16c0 .68.55 1.24 1.22 1.24h14.7c.66 0 1.2-.56 1.2-1.24V45.24M158 55a10 10 0 1 0-20 0 10 10 0 0 0 20 0m-2 50.3V69.23c0-.68-.54-1.24-1.2-1.24h-14.54c-.66 0-1.26.7-1.26 1.4V121c0 1.52.92 1.97 2.12 1.97h13.1c1.43 0 1.78-.73 1.78-2v-15.7M319.77 68h-14.62c-.67 0-1.2.55-1.2 1.24v37.95s-3.73 2.7-9 2.7-6.67-2.4-6.67-7.6V69.2c0-.7-.55-1.24-1.22-1.24h-14.84c-.67 0-1.22.56-1.22 1.25v35.6c0 15.4 8.55 19.2 20.3 19.2 9.65 0 17.43-5.35 17.43-5.35s.37 2.8.53 3.14c.17.35.6.7 1.08.7l9.44-.06c.67 0 1.22-.55 1.22-1.23v-52c0-.7-.55-1.24-1.23-1.24m35.8 44a17.54 17.54 0 0 1-8.57-2.5V84.6s3.4-2.14 7.6-2.5c5.3-.5 10.4 1.12 10.4 13.94 0 13.5-2.3 16.18-9.44 15.96zm5.73-44.4c-8.34 0-14 3.7-14 3.7V45.23c0-.68-.56-1.23-1.24-1.23h-14.84c-.67 0-1.22.58-1.22 1.26v77.02c0 .67.55 1.23 1.23 1.23h10.3c.46 0 .8-.2 1.07-.6.25-.4.62-3.55.62-3.55s6.07 5.7 17.56 5.7c13.5 0 21.22-6.8 21.22-30.53s-12.35-26.84-20.7-26.84zm-163.75 1.2H186.3l-.02-14.97c0-.56-.3-.84-.94-.84h-15.32c-.6 0-.92.27-.92.85v15.5s-7.68 1.9-8.2 2.04c-.52.16-.9.64-.9 1.2v9.73c0 .7.55 1.27 1.24 1.27h7.86v23.4c0 17.36 12.1 19.07 20.26 19.07a34 34 0 0 0 8.92-1.47c.45-.17.7-.63.7-1.13l.02-10.7c0-.7-.58-1.3-1.24-1.3s-2.34.24-4.06.24c-5.53 0-7.4-2.6-7.4-5.95V83.5h11.25c.7 0 1.24-.56 1.24-1.26V70.08c0-.7-.6-1.26-1.3-1.26" fill="#11100F" fill-rule="evenodd"/></svg>