<svg width="119" height="39" viewBox="0 0 119 39" xmlns="http://www.w3.org/2000/svg"><title>Google_2015_logo</title><g fill="none" fill-rule="evenodd"><path d="M15.415 13.772v4.1h9.838c-.486 5.75-5.288 8.203-9.82 8.203-5.8 0-10.86-4.546-10.86-10.917 0-6.206 4.823-10.986 10.872-10.986 4.666 0 7.416 2.963 7.416 2.963l2.888-2.973S22.048.06 15.298.06C6.705.06.06 7.283.06 15.085c0 7.645 6.252 15.1 15.456 15.1 8.096 0 14.022-5.525 14.022-13.694 0-1.72-.25-2.72-.25-2.72l-13.873.006z" fill="#4885ED"/><path d="M40.65 10.803c-5.692 0-9.77 4.432-9.77 9.602 0 5.247 3.956 9.762 9.837 9.762 5.325 0 9.687-4.054 9.687-9.65 0-6.412-5.074-9.714-9.754-9.714zm.057 3.803c2.8 0 5.452 2.254 5.452 5.886 0 3.556-2.647 5.874-5.47 5.874-3.1 0-5.55-2.475-5.55-5.902 0-3.354 2.42-5.858 5.563-5.858z" fill="#DB3236"/><path d="M61.9 10.803c-5.69 0-9.77 4.432-9.77 9.602 0 5.247 3.957 9.762 9.838 9.762 5.325 0 9.687-4.054 9.687-9.65 0-6.412-5.074-9.714-9.754-9.714zm.058 3.803c2.8 0 5.452 2.254 5.452 5.886 0 3.556-2.642 5.874-5.465 5.874-3.102 0-5.55-2.475-5.55-5.902 0-3.354 2.418-5.858 5.563-5.858z" fill="#F4C20D"/><path d="M82.745 10.813c-5.224 0-9.33 4.558-9.33 9.674 0 5.828 4.76 9.693 9.24 9.693 2.77 0 4.244-1.096 5.33-2.353v1.91c0 3.34-2.035 5.34-5.108 5.34-2.97 0-4.458-2.2-4.976-3.447l-3.73 1.556c1.325 2.79 3.99 5.702 8.74 5.702 5.195 0 9.154-3.26 9.154-10.095V11.395H87.99v1.64c-1.254-1.345-2.967-2.222-5.24-2.222zm.38 3.795c2.56 0 5.19 2.18 5.19 5.9 0 3.782-2.624 5.866-5.248 5.866-2.785 0-5.377-2.253-5.377-5.83 0-3.718 2.692-5.936 5.434-5.936z" fill="#4885ED"/><path d="M110.18 10.79c-4.927 0-9.065 3.906-9.065 9.67 0 6.098 4.612 9.715 9.54 9.715 4.112 0 6.636-2.242 8.142-4.25l-3.36-2.227c-.872 1.348-2.33 2.666-4.762 2.666-2.733 0-3.99-1.49-4.767-2.935l13.032-5.39-.676-1.58c-1.26-3.09-4.196-5.674-8.083-5.674zm.17 3.723c1.777 0 3.055.94 3.597 2.07l-8.703 3.622c-.375-2.805 2.293-5.692 5.107-5.692z" fill="#DB3236"/><path d="M94.9 29.6h4.282V1.06h-4.28V29.6z" fill="#3CBA54"/></g></svg>