<svg width="134" height="54" viewBox="0 0 134 54" xmlns="http://www.w3.org/2000/svg" xmlns:xlink="http://www.w3.org/1999/xlink"><title>Taobao-logo</title><defs><path id="a" d="M.017.03h133.707v53.953H.017"/><path id="c" d="M.017.03h133.707v53.953H.017"/><path id="e" d="M.017.03h133.707v53.953H.017"/></defs><g fill="none" fill-rule="evenodd"><mask id="b" fill="#fff"><use xlink:href="#a"/></mask><path d="M11.252 3.96c0 1.904-1.717 3.448-3.837 3.448-2.118 0-3.837-1.544-3.837-3.45C3.578 2.055 5.298.51 7.415.51c2.12 0 3.837 1.546 3.837 3.45M1.83 12.604l2.356-3.667s3.313 2.575 4.316 3.45c1.003.872 2.79 2.356 2.747 4.756-.05 2.4-.75 4.497-1.31 5.937-.57 1.44-4.28 9.034-4.28 9.034L0 28.58s5.45-5.05 7.543-8.12c.654-.96 1.44-3.492-.785-4.802-2.224-1.31-4.927-3.055-4.927-3.055" fill="#DD432A" mask="url(#b)"/><path d="M9.113 10.42S12.208 8.412 15.26.03c.872.306 5.276 1.485 5.276 1.485l-1.44 2.662S25.682 2.17 31.35 2.17c0 0 3.095-.13 5.493.655s4.84 2.4 5.45 5.02c.61 2.618 1.264 11.35.044 19.25 0 0-.262 1.834-1.962 3.448-1.7 1.615-3.75 2.4-7.37 2.4-3.618 0-5.536-.697-5.536-.697l.74-3.056s2.22.83 3.96.83c1.74 0 3.22-.742 4.01-1.66 0 0 .7-1.047.74-1.92.04-.873.08-17.635-.09-18.202-.18-.568-.4-2.707-3.1-3.23-2.71-.525-4.84-.176-5.5-.044-.66.13-4.76 1.134-6.8 1.963.78.263 2.31.655 2.31.655s-.7 1.44-1.97 2.838c1.74-.044 13.34 0 13.34 0v2.62h-7.45v3.49h7.36v2.62h-7.36v5.544s1.22 0 3.006-1.397c-.13-.96-.087-1.09-.523-2.488 1.134-.27 3.4-1.05 3.4-1.05l2.835 7.03-4.23 1.65-.79-2.84s-1.27 1.44-4.36 2.35c-4.31 1.27-7.06 1.22-7.81 1.18 0 0-2.1.08-3.36-.48-1.268-.57-3.1-1.88-3.1-5.63 0-1.27.306-2.32.306-2.32l5.32.04s-.26 1.88-.26 2.35c0 .48-.39 2.53 3.442 2.49 0-2.75-.045-6.51-.045-6.51l-7.59-.044v-2.62h7.543V13.1h-1.92s-2.09 1.964-3.27 3.14l-2.18-1.92s2.516-2.62 4.23-6.42c-1 .396-2.747 1.18-2.747 1.18s-1.22 1.57-2.75 3.188c-1.09-.61-3.75-1.876-3.75-1.876m39.9 3.755V3.48h5.974v1.353s8.55-1.178 9.47-1.178V.6h6.76v2.31s4.315-.393 7.15-.393c2.833 0 6.146.48 7.41.916 1.266.437 2.79 1.528 2.79 3.798s-1.7 4.63-5.1 6.9c-1.05-1.04-1.83-1.79-1.83-1.79l.05 1.01H71.28v3.54h11.91v2.8H71.288v8.34h16.176v3.45h-38.5v-3.45H64.31v-8.25H53.717V16.9h10.64v-3.5H55.07v.786h-6.06zm6.06-6.026l-.04 2.49h24.46S82.11 9 82.11 7.43c0-1.573-2.05-2.01-3.443-2.096-1.393-.08-5.32-.13-8.543.27-3.226.39-10.64 1.26-15.086 2.53z" fill="#DD432A"/><path d="M82.67 23.91c0 1.88-1.7 3.402-3.793 3.402-2.095 0-3.793-1.524-3.793-3.404 0-1.882 1.698-3.406 3.793-3.406 2.094 0 3.793 1.524 3.793 3.404m18.048-2.92v10.43h-6.715V2.346h6.67v2.53s6.498-2.486 10.902-3.403c4.403-.917 6.932-.917 7.978-.917 1.046 0 5.363.48 7.805 1.397 2.44.917 4.186 2.75 4.883 4.715.7 1.964.75 7.333.75 9.82 0 2.49-.17 10.128-.43 11.612-.26 1.483-.87 3.185-2.18 4.145-1.31.96-3.18.742-4.88.393-1.7-.35-3.7-1.092-5.4-2.01v-2.88s1.66 1.18 3.31 1.18 2.97-1.005 2.97-3.23c0-2.227.22-11.787.05-15.716-1.09 1.746-3.36 4.845-4.36 5.98 1.35.96 2.966 2.445 3.92 3.58-1.26 1.135-4.66 3.93-4.66 3.93s-2.006-3.058-2.485-3.625c-.52.61-3.75 4.19-8.805 7.158-.876-1.265-2.097-2.837-2.097-2.837s3.79-1.31 8.414-7.463c-1.005-1.048-2.49-2.97-3.795-3.842-.53.742-2.05 2.357-2.05 2.357s1.39 1.048 2.394 2.88c-.87.874-3.57 3.668-3.57 3.668l-2.18-3.36s-2.4 2.53-4.623 4.146c-1.09-1.048-1.79-1.57-1.79-1.57m4.4-5.37c-1.57-2.358-3.79-3.842-3.79-3.842s1.175-1.31 1.79-2.314c1.26.873 2.61 1.834 4.05 2.88 1.265-2.138 2.92-5.89 2.92-5.89 0-.003 4.1 2.05 4.885 2.442-.394 1.266-.744 1.702-.744 1.702s2.576 1.703 4.146 2.707c1.785-3.41 2.57-7.38 2.57-7.38l5.36 3.28s0-2.01-.09-2.84c-.086-2.93-3.27-3.28-4.97-3.23-1.7.04-5.45.74-9.68 1.66-4.23.91-10.9 3.88-10.9 3.88V19.8c2.354-1.44 3.27-2.574 4.447-4.19M2.88 41.333s.65-2.372 3.19-2.277c2.544.095 4.417.23 5.89.23 1.47 0 4.815-.325 5.178-.46-.172.708-.974 2.067-2.16 2.067h-2.695s-.63-.02-.63.765v9.358s.172 1.282 1.414.976c-.402 1.097-1.434 1.728-2.638 1.728-1.21 0-2.39-.765-2.39-1.818V41.51c0-.538-.08-.67-1.04-.71-.58-.023-1.68-.077-2.64.04-.62.072-1.11.3-1.49.496M16.39 43.8c.113-.395.325-1.07 1.166-1.55.93-.53 2.31-.554 2.81-.554.495 0 2.063.096 2.54.23.48.133 3.21.555 3.21 3.56v5.663s.116 1.18 1.32.8c-.172 1.16-1.32 1.76-2.14 1.76-.823 0-2.16-.5-2.16-1.51 0 0-.536 1.7-3.403 1.68-2.867-.02-4.415-1.74-4.415-4.31s1.853-4.35 4.586-4.35c.917 0 2.54.36 3.23 1.45.006-1.34-.24-3.16-2.298-3.36-1.06-.07-3.17-.02-4.45.46m4.55 3.14c-1.21 0-2.18 1.14-2.18 2.56s.97 2.56 2.18 2.56c1.2 0 2.172-1.147 2.172-2.56s-.974-2.567-2.178-2.567" fill="#DD432A"/><mask id="d" fill="#fff"><use xlink:href="#c"/></mask><path d="M57.898 43.8c.113-.395.325-1.07 1.166-1.55.932-.53 2.312-.554 2.81-.554.497 0 2.065.096 2.542.23.478.133 3.21.555 3.21 3.56v5.663s.116 1.18 1.32.8c-.172 1.16-1.32 1.76-2.14 1.76-.823 0-2.16-.5-2.16-1.51 0 0-.536 1.7-3.403 1.68-2.867-.02-4.415-1.74-4.415-4.31s1.854-4.35 4.587-4.35c.917 0 2.542.36 3.23 1.45.006-1.34-.24-3.16-2.297-3.36-1.056-.07-3.168-.02-4.45.46m4.55 3.14c-1.204 0-2.18 1.14-2.18 2.56s.976 2.56 2.18 2.56c1.203 0 2.178-1.147 2.178-2.56s-.975-2.567-2.18-2.567m-21.854.88c0 3.414-2.67 6.18-5.964 6.18-3.293 0-5.963-2.766-5.963-6.18 0-3.414 2.67-6.18 5.963-6.18 3.294 0 5.964 2.77 5.964 6.18m-5.964-4.3c-1.298 0-2.35 1.93-2.35 4.306 0 2.375 1.052 4.303 2.35 4.303 1.3 0 2.35-1.93 2.35-4.307 0-2.38-1.05-4.306-2.35-4.306M81.98 47.8c0 3.41-2.67 6.18-5.965 6.18-3.293 0-5.963-2.77-5.963-6.18 0-3.42 2.67-6.19 5.963-6.19 3.294 0 5.964 2.77 5.964 6.18m-5.97-4.3c-1.3 0-2.35 1.925-2.35 4.303 0 2.373 1.05 4.3 2.35 4.3s2.35-1.93 2.35-4.306c0-2.38-1.05-4.31-2.35-4.31m36.62 4.31c0 3.413-2.67 6.18-5.97 6.18-3.29 0-5.96-2.767-5.96-6.18 0-3.415 2.67-6.18 5.96-6.18s5.96 2.763 5.96 6.18m-5.97-4.308c-1.3 0-2.35 1.92-2.35 4.3 0 2.37 1.05 4.3 2.35 4.3s2.35-1.93 2.35-4.31-1.05-4.306-2.35-4.306" fill="#DD432A" mask="url(#d)"/><path d="M41.577 39.328s.24-1.765 2.264-1.765c2.03 0 2.44 1.288 2.44 1.622v3.96s.86-1.29 3.48-1.29 5.03 1.863 5.03 5.37c0 0 .55 6.56-5.17 6.56-1.86 0-2.93-.62-3.48-1.527-.35.93-1.19 1.455-2.19 1.455s-2.19-.62-2.19-1.742c.43.05 1.24.03 1.24-1.02V40.17s-.09-.835-1.4-.835m4.79 6.06c-.36 1.096-.16 4.1 0 4.675.17.573.79 2.004 2.39 2.004s2.15-1.574 2.27-2.1c.12-.524.36-1.91-.07-4.294s-2.24-2.194-2.24-2.194c-1.31.02-1.98.81-2.332 1.903m40.48 6.8c0 .91-.75 1.64-1.67 1.64-.92 0-1.664-.74-1.664-1.65 0-.91.75-1.65 1.67-1.65.92 0 1.668.73 1.668 1.64" fill="#DD432A"/><mask id="f" fill="#fff"><use xlink:href="#e"/></mask><path d="M99.025 52.02s-.596-.645-1.144-.62c-.54.022-.83.213-1.14.333-.31.12-.97.357-1.57.357-.59 0-1.69-.238-2.5-1.48-.82-1.252-.81-3.696-.55-4.722.27-1.026.88-1.813 1.6-2.266.72-.453 2.08-.286 2.55.096.48.38.69 1.096 1.58 1.096.88 0 1.38-1.05 1.24-1.765 0 0-1.43-1.17-4.38-1.2-2.76-.03-4.33 1.48-4.83 2.07-.5.59-1.45 2.02-1.45 3.93 0 1.91.96 3.84 2.1 4.72 1.14.87 2.81 1.31 4.05 1.31 1.24 0 3.15-.43 4.48-1.89m14.73-8.35s.26-1.79 2.31-1.79c1.69 0 2.146 1.26 2.146 1.26s1.05-1.386 3.24-1.386c2.19 0 3.194 1.05 3.6 1.6.71-.69 1.45-1.57 3.45-1.57s3.696.69 3.887 2.693c.19 2.006.12 6.92.12 6.92s.17.955 1.218.55c.095 1.075-1.025 1.767-2.144 1.767-1.12 0-2.24-.665-2.24-2.072v-6.7s.022-1.55-1.81-1.55c-1.838 0-2.03 1.692-2.03 2.22v8.04h-3.265v-8.68s-.02-1.6-1.712-1.6-2.144 1.41-2.144 2.1v8.11h-3.24v-8.89s.07-.98-1.38-1.003" fill="#DD432A" mask="url(#f)"/></g></svg>