<svg width="89" height="80" viewBox="0 0 563 511" xmlns="http://www.w3.org/2000/svg"><defs><radialGradient cx="29.84%" cy="43.32%" fx="29.84%" fy="43.32%" r="67.37%" id="a"><stop stop-color="#FFF" offset="0%"/><stop stop-color="#EAEAEB" offset="48.35%"/><stop stop-color="#A9ABAE" offset="94.51%"/><stop stop-color="#999B9E" offset="100%"/></radialGradient><linearGradient x1="-42.69%" y1="6.58%" x2="110.99%" y2="94.97%" id="b"><stop stop-color="#8A8A8A" offset="0%"/><stop stop-color="#606060" offset="56.87%"/><stop stop-color="#FFF" offset="59.14%"/><stop stop-color="#585858" offset="61.16%"/><stop stop-color="#303030" offset="100%"/></linearGradient><linearGradient x1="-2043.55%" y1="-9551.17%" x2="7692.55%" y2="35904.24%" id="c"><stop stop-color="#A8A9AB" offset="0%"/><stop stop-color="#636668" offset="100%"/></linearGradient><linearGradient x1="12.75%" y1="3.1%" x2="67.86%" y2="104.81%" id="d"><stop stop-color="#A8A9AB" offset="0%"/><stop stop-color="#636668" offset="100%"/></linearGradient><linearGradient x1=".42%" y1="49.97%" x2="100.03%" y2="49.97%" id="e"><stop stop-color="#231F20" offset="0%"/><stop stop-color="#474747" offset="100%"/></linearGradient><linearGradient x1="-683.45%" y1="-2526.48%" x2="176.6%" y2="498.51%" id="f"><stop stop-color="#FFF" offset="0%"/><stop stop-color="#FCFCFC" offset=".94%"/><stop stop-color="#EEE" offset="6.55%"/><stop stop-color="#E5E5E5" offset="13.42%"/><stop stop-color="#E3E3E3" offset="25.15%"/><stop stop-color="#8A8A8A" offset="33.57%"/><stop stop-color="#B8B8B8" offset="44.22%"/><stop stop-color="#3B3B3B" offset="100%"/></linearGradient><linearGradient x1="-30.06%" y1="11.25%" x2="133.9%" y2="98.76%" id="g"><stop stop-color="#EFF0F0" offset="0%"/><stop stop-color="#F0F1F2" offset="59.14%"/><stop stop-color="#787878" offset="59.9%"/><stop stop-color="#EEEFF0" offset="64.56%"/><stop stop-color="#D8D9DB" offset="100%"/></linearGradient><linearGradient x1="-159.74%" y1="-485.3%" x2="103.89%" y2="187.53%" id="h"><stop stop-color="#FFF" offset="0%"/><stop stop-color="#E4E5E6" offset="100%"/></linearGradient><linearGradient x1="-2.48%" y1="1.17%" x2="99.96%" y2="103.24%" id="i"><stop stop-color="#FFF" offset="0%"/><stop stop-color="#F9F9F9" offset="74.73%"/><stop stop-color="#D5D7D8" offset="100%"/></linearGradient><linearGradient x1="939.59%" y1="-20465.72%" x2="-80.2%" y2="3040.07%" id="j"><stop stop-color="#FFF" offset="0%"/><stop stop-color="#E4E5E6" offset="100%"/></linearGradient><linearGradient x1="37.86%" y1="1.28%" x2="69.22%" y2="100.37%" id="k"><stop stop-color="#989A9C" offset="21.98%"/><stop stop-color="#FFF" offset="25.27%"/></linearGradient><linearGradient x1="546.72%" y1="-2628.08%" x2="-8251.25%" y2="40183.15%" id="l"><stop stop-color="#FFF" offset="0%"/><stop stop-color="#E4E5E6" offset="100%"/></linearGradient><linearGradient x1="51.5%" y1="10.02%" x2="50.16%" y2="27.75%" id="m"><stop stop-color="#FFF" offset="0%"/><stop stop-color="#E4E5E6" offset="100%"/></linearGradient><linearGradient x1="2002.94%" y1="-5144.87%" x2="-245.07%" y2="835.11%" id="n"><stop stop-color="#FFF" offset="0%"/><stop stop-color="#E4E5E6" offset="100%"/></linearGradient><linearGradient x1="644.14%" y1="-1617.96%" x2="-97.54%" y2="450.53%" id="o"><stop stop-color="#FFF" offset="0%"/><stop stop-color="#E4E5E6" offset="100%"/></linearGradient><linearGradient x1="204.38%" y1="-1712.87%" x2="22.47%" y2="363.4%" id="p"><stop stop-color="#FFF" offset="0%"/><stop stop-color="#E4E5E6" offset="100%"/></linearGradient><linearGradient x1="1227.47%" y1="-23869.37%" x2="-115.37%" y2="3404.13%" id="q"><stop stop-color="#FFF" offset="0%"/><stop stop-color="#E4E5E6" offset="100%"/></linearGradient><linearGradient x1="605.22%" y1="-21023.53%" x2="-28.06%" y2="3003.91%" id="r"><stop stop-color="#FFF" offset="0%"/><stop stop-color="#E4E5E6" offset="100%"/></linearGradient><linearGradient x1="-1.83%" y1="34.88%" x2="88.59%" y2="34.88%" id="s"><stop stop-color="gray" offset="0%"/><stop stop-color="#7A7A7A" offset="8.68%"/><stop stop-color="#6B6B6B" offset="36%"/><stop stop-color="#686868" offset="51.92%"/><stop stop-color="#5F5F5F" offset="63.77%"/><stop stop-color="#4E4E4E" offset="74.31%"/><stop stop-color="#383838" offset="84.08%"/><stop stop-color="#1B1B1B" offset="93.24%"/><stop offset="100%"/></linearGradient><linearGradient x1="-.01%" y1="49.9%" y2="49.9%" id="t"><stop stop-color="gray" offset="0%"/><stop stop-color="#7A7A7A" offset="8.68%"/><stop stop-color="#828282" offset="38.17%"/><stop stop-color="gray" offset="51.85%"/><stop stop-color="#797979" offset="56.77%"/><stop stop-color="#6E6E6E" offset="60.27%"/><stop stop-color="#6B6B6B" offset="60.8%"/><stop stop-color="#4E4E4E" offset="100%"/></linearGradient><linearGradient x1="-.02%" y1="50.03%" x2="100.01%" y2="50.03%" id="u"><stop stop-color="#555" offset="0%"/><stop stop-color="#231F20" offset="100%"/></linearGradient><linearGradient x1="-.06%" y1="49.88%" x2="99.93%" y2="49.88%" id="v"><stop stop-color="#A0A0A0" offset="0%"/><stop stop-color="#656767" offset="7.69%"/><stop stop-color="#717375" offset="100%"/></linearGradient><linearGradient x1="-9.6%" y1="56.2%" x2="3570.38%" y2="-340%" id="w"><stop stop-color="#FFF" offset="0%"/><stop stop-color="#F4F4F4" offset="7.8%"/><stop stop-color="#CECECE" offset="38.07%"/><stop stop-color="#BFBFBF" offset="53.96%"/><stop stop-color="#7C7C7C" offset="83.57%"/><stop stop-color="#A8A8A8" offset="89.96%"/><stop stop-color="#9A9A9A" offset="90.93%"/><stop stop-color="#7D7D7D" offset="93.27%"/><stop stop-color="#686868" offset="95.58%"/><stop stop-color="#5B5B5B" offset="97.85%"/><stop stop-color="#575757" offset="100%"/></linearGradient><linearGradient x1="-1706%" y1="90.62%" x2="56707.36%" y2="-1230.09%" id="x"><stop stop-color="#FFF" offset="0%"/><stop stop-color="#F4F4F4" offset="7.8%"/><stop stop-color="#CECECE" offset="38.07%"/><stop stop-color="#BFBFBF" offset="53.96%"/><stop stop-color="#7C7C7C" offset="83.57%"/><stop stop-color="#A8A8A8" offset="89.96%"/><stop stop-color="#9A9A9A" offset="90.93%"/><stop stop-color="#7D7D7D" offset="93.27%"/><stop stop-color="#686868" offset="95.58%"/><stop stop-color="#5B5B5B" offset="97.85%"/><stop stop-color="#575757" offset="100%"/></linearGradient><linearGradient x1="1.57%" y1="84.52%" x2="100.45%" y2="26.52%" id="y"><stop stop-color="#EDEDEE" offset="0%"/><stop stop-color="#FFF" offset="41.76%"/><stop stop-color="#F8F9F9" offset="62.64%"/><stop stop-color="#BFC0C2" offset="100%"/></linearGradient><linearGradient x1="-.52%" y1="49.91%" x2="99.79%" y2="49.91%" id="z"><stop stop-color="#E2E3E4" offset="0%"/><stop stop-color="#FFF" offset="50.55%"/></linearGradient><linearGradient x1="302.74%" y1="-30.51%" x2="45307.45%" y2="-10734.68%" id="A"><stop stop-color="#EDEDEE" offset="0%"/><stop stop-color="#FFF" offset="41.76%"/><stop stop-color="#F8F9F9" offset="62.64%"/><stop stop-color="#B2B4B6" offset="95.05%"/></linearGradient><linearGradient x1=".28%" y1="89.48%" x2="109.75%" y2="8.65%" id="B"><stop stop-color="#EDEDEE" offset="0%"/><stop stop-color="#FFF" offset="41.76%"/><stop stop-color="#F8F9F9" offset="62.64%"/><stop stop-color="#B2B4B6" offset="95.05%"/></linearGradient><linearGradient x1="-1616.5%" y1="242.07%" x2="141.18%" y2="39.93%" id="C"><stop stop-color="#EDEDEE" offset="0%"/><stop stop-color="#FFF" offset="41.76%"/><stop stop-color="#F8F9F9" offset="62.64%"/><stop stop-color="#B2B4B6" offset="95.05%"/></linearGradient><linearGradient x1="25.35%" y1="56.38%" x2="2490.54%" y2="-581.11%" id="D"><stop stop-color="#EDEDEE" offset="0%"/><stop stop-color="#FFF" offset="41.76%"/><stop stop-color="#F8F9F9" offset="62.64%"/><stop stop-color="#B2B4B6" offset="95.05%"/></linearGradient><linearGradient x1="-574.65%" y1="143.28%" x2="27661.52%" y2="-4154.83%" id="E"><stop stop-color="#EDEDEE" offset="0%"/><stop stop-color="#FFF" offset="41.76%"/><stop stop-color="#F8F9F9" offset="62.64%"/><stop stop-color="#B2B4B6" offset="95.05%"/></linearGradient><linearGradient x1="-23387.58%" y1="995.49%" x2="2234.16%" y2="-37.71%" id="F"><stop stop-color="#EDEDEE" offset="0%"/><stop stop-color="#FFF" offset="41.76%"/><stop stop-color="#F8F9F9" offset="62.64%"/><stop stop-color="#B2B4B6" offset="95.05%"/></linearGradient><linearGradient x1="-.49%" y1="91.05%" x2="103.18%" y2="12.26%" id="G"><stop stop-color="#FFF" offset="0%"/><stop stop-color="#FFF" offset="65.38%"/><stop stop-color="#CBCCCE" offset="100%"/></linearGradient><linearGradient x1="-.06%" y1="50.17%" x2="100.02%" y2="50.17%" id="H"><stop stop-color="#696969" offset="0%"/><stop stop-color="#2E2E2E" offset="37.02%"/><stop stop-color="#424242" offset="45.54%"/><stop stop-color="#303030" offset="60.14%"/><stop stop-color="#4A4A4A" offset="69.47%"/><stop stop-color="#666" offset="100%"/></linearGradient><linearGradient x1=".04%" y1="50.2%" x2="100.09%" y2="50.2%" id="I"><stop stop-color="#525252" offset="0%"/><stop stop-color="#333" offset="18.56%"/><stop stop-color="#AEAEAE" offset="35.4%"/><stop stop-color="#ADADAD" offset="41.99%"/><stop stop-color="#9D9D9D" offset="42.76%"/><stop stop-color="#818181" offset="44.33%"/><stop stop-color="#6A6A6A" offset="46.11%"/><stop stop-color="#585858" offset="48.14%"/><stop stop-color="#4C4C4C" offset="50.6%"/><stop stop-color="#444" offset="53.9%"/><stop stop-color="#424242" offset="61.66%"/><stop stop-color="#454545" offset="66.84%"/><stop stop-color="#BDBDBD" offset="100%"/></linearGradient><linearGradient x1="53.65%" y1="93.12%" x2="28.43%" y2="-.3%" id="J"><stop stop-color="#969696" offset="0%"/><stop offset="100%"/></linearGradient><linearGradient x1="45.01%" y1="105.27%" x2="65.43%" y2="-.05%" id="K"><stop stop-color="#333" offset="0%"/><stop offset="43.1%"/><stop stop-color="#2E2E2E" offset="100%"/></linearGradient><radialGradient cx="36.87%" cy="22.97%" fx="36.87%" fy="22.97%" r="71.36%" id="L"><stop stop-opacity="0" offset="0%"/><stop stop-opacity=".08" offset="80.22%"/><stop stop-opacity=".39" offset="100%"/></radialGradient></defs><g fill="none" fill-rule="evenodd"><path d="M273.07 91.25c.1-3.36-2.2-6.96-2.2-6.96l-.13-.4s-2.67-5.2-7.2-6.8c-4.52-1.5-8.12 1.8-8.12 1.8s-.58.7-2.32 2.64c-1.74 1.97-2.8 3.7-6.62 5.22-3.83 1.5-7.55 1.14-9.64.2a5.16 5.16 0 0 1-2.54-3s-1.3-3.95-1.8-5.8c-.5-1.86-1.8-9.3-1.8-9.3s-2.67-15.1-2.9-18.2c0 0 8.12-.7 20.3-4.3 12.67-3.7 16.85-6.6 16.85-6.6s-2.44-.84-2.67-3.6c-.26-2.8-.5-6.65-.5-6.65s-.45-2.8 2.7-6.27c3.12-3.5 7.4-4.78 9.73-5.24 2.2-.47 7.1-.93 11.5-.7 4.6.23 7 .6 8.9 1.63 1.86.92 1.97 3.35 1.97 3.35v6.3s-.22 2.2 1.4 2.9c0 0 2.8 1.6 12.08.7 0 0 3.96-.7 10.23-2.56 6.12-1.85 22.72-6.73 25.05-7.42 2.34-.6 5.24-1.63 9.07-2.56a225.03 225.03 0 0 0 12.8-4.06c1.5-.6 10-3.4 16.1-4.4 6.15-1.03 12.3-1.03 15.56.8 0 0 1.97 1.66 2.9 3.6.93 2 2.67 4.8 5.1 6.07 2.56 1.28 4.2 2.1 10.34 1.5 0 0 .12-.56-2.2-2.07-2.33-1.5-5.46-3.84-5.46-3.84s-1.82-1.4-2.2-2.43c-.3-1.13-.2-1.7-.2-1.7l4.9-7.8s0-.9 2.8-1.3 5.92-.7 9.63-1.7c3.72-.94 4.3-1.75 4.3-1.75l3.13.92s19.5 15.67 25.64 19.73l1.1-1.3s2.43.1 4.52.9c2.2.8 5.33 3.14 5.33 3.14s8.93 7.2 11.4 12.1l1.25 3.7-.6.94s5.1 7.2 11.6 14.4c0 0 6.74 9.17 9.3 11.5 0 0-.6-2.2-1.17-4.66l1.85-1.3 1-.8 3.4 1.4c19.7 26.5 35.5 57.5 44.9 90l-.7 2.67 2.2 2.8a278.75 278.75 0 0 1 9.6 72.8c0 6.1-.22 12.3-.6 18.42l-1.6 2.8 1.26 3c-12.3 144-133 256.8-280.1 256.8-102.07 0-191.35-54.3-240.57-135.6l-.6-1.9-1.2-.8A278.63 278.63 0 0 1 2.8 267l1.15-2.9-1.86-2.67a286.8 286.8 0 0 1-1.8-31.7c0-16.48 1.4-32.62 4.2-48.3l1.4-3.13-.5-1.86A281.06 281.06 0 0 1 41.1 83.8l3.7-2.1.5.24s1.27-.93 1.96-1.16l.47-.1s6.5-10.9 8.94-14.4c0 0 3.02-1.92 4.06-2.2 0 0 .7-.1 1.05.5 0 0 2.78-2.43 9.4-11.4 0 0 0-.1.12-.1 0 0-.6-.5-.7-.92-.2-.58.5-3.25.9-3.95.3-.7.6-.8.6-.8s9.5-11.2 17.4-17.9c0 0 1.4-1.1 3.7-1.4 0 0 8.1-3.3 18-12 0 0 .2-1.6 2.63-4.7 2.32-3.1 8-6.36 12.3-7.3 4.18-.92 5-.22 5-.22l.34.34 2.8 4.2s3.12-1.74 7.77-3.36c4.64-1.65 5.34-1.4 5.34-1.4l4.52 7.3L146.45 22s-3.6 7.75-9.18 12.04c0 0-2.57 1.5-6.17.7a6.36 6.36 0 0 0-5.93 1.88l-.92.8s.83-.1 1.87-.56c0 0 .93.36 1.5 1.28.6.94 5 6.5 5 6.5s0 4.66-2.32 10.7c-2.32 6-8.13 15.9-8.13 15.9s-4.06 7.9-5.92 12.4c-1.85 4.5-2.77 9.77-2.66 12.4 0 0 1 .37 3.9-1.14 3.6-1.84 5.9.1 5.9.1s3.9 2.94 5.7 4.9c1.4 1.64 4.4 9.76 1.1 17.77 0 0-2.2 5.57-7.6 9.5 0 0-1.15 1.87-8.46.9-1.96-.2-3.23-1.5-7.53-1-4.3.45-6.73 4.5-6.73 4.5l.1-.1C96.2 136.9 93.62 145 93.62 145l-.33.93s-1.28 2.8-1.6 9.62c-.35 7.1 1.5 17.2 1.5 17.2s43.43-7.68 54.5-.37l3.3 2.9s.2.9-.1 2.07c-.5 1.2-2.1 3.73-5.5 6.17s-6.76 8.7-1.77 12.63c5.7 4.52 9.3 4.17 18.93 2.55a36.7 36.7 0 0 0 16.04-6.97s5.34-3.92 4.3-8.9c-1.05-5-5.6-6.5-5.6-6.5s-3.6-2.3-.8-6.85c0 0 .8-3.84 14.06-7.3 13.33-3.5 37.6-8.4 58.14-10.94 0 0-14.02-45.4-4.03-51.2 0 0 2.45-1.6 6.74-2.2l3.95-.22c.7-.1 1.86 0 4.4.23 2.57.26 5.58.5 9.3-2.4 3.7-2.9 3.83-4.54 3.83-4.54" fill="url(#a)"/><path d="M452.8 434.8l2.43.92c-.23.35-.35.7-.58 1.05-4.76 8.7-5.1 10.68-7.55 12.42-2.44 1.7-3.25 3-8 3.8-4.77.8-9.76 6.5-9.76 6.5s-4.88 4.6-2.67 4.7c2.2.1 6.5-3.4 6.5-3.4s2.78-2 3.48-1.4c.7.6-3.02 4.2-3.02 4.2s-6.38 6.5-13.7 10.9l-2.2 1.1s10.33-7.68 15.2-13.25c0 0 1.05-1.5-1.04.34-2.1 1.75-7.4 4.54-9.7 4.54-2.2 0 .1-3.16.1-3.16s3.2-4.2 10-9.67c6.7-5.45 12.3-5.1 12.3-5.1s1.2.2 1.4-1.5c.1-1.74 1.7-4.76 1.7-4.76s2.5-5.7 9.2-15.2c6.72-9.4 9.74-12.08 9.74-12.08s8.7-8.95 13.35-18c0 0 3.24-5.58-2-1.4-5.2 4.2-12.18 9.4-18.9 11.14-6.86 1.76-7.44-4.62-7.44-4.62s-1.5-10.33 5.8-18.46c6.5-7.3 13.7-6.96 20.32-7.77 6.5-.8 12.2-8.7 12.2-8.7s4.5-5.1 7.05-20.9c1.2-7.3.36-12.44-.8-15.57l.1-3.6-1.95-.1c-.47-.6-.7-.8-.7-.8s-1.63-1.66-3.37-2.9c-1.75-1.3-3.84-3.6-5.8-8.04 0 0-5.6-11.6-4.43-28.46 1.3-16.8 15.2-15.2 15.2-15.2s8.13.8 9.8-1.6c1.5-2.42 3-5.44 3.6-12.3.6-6.84-2.2-13.23-2.2-13.23s-1.08-3.35-5.8-3.93c-4.8-.6-5.8.97-5.8.97s-1.4.33-4 6.02c-2.55 5.56-4.2 8.23-8.82 9.4-4.64 1.15-11.14.6-14.04-5.47-2.8-5.9-9.6-20.3-13-31.8l.5-4.07-1.75-2.56a42.9 42.9 0 0 1-.7-6.86c-.1-5.47-1.77-11.6-3.5-17.67-1.74-6.13-8-16.35-9.17-18.7-1.72-3.7-3.35-5.2-5.55-4.84-2.2.36-1.88.36-2.8.36-.94 0-1.5 1.2-1.75 2.36-.24 1.14-2.1 7.2-6.05 9.96-4.2 2.8-6.3 4.1-13.5 4.7 0 0-8.25.6-14.64-11.6-6.5-12.1-4.87-19.9-4.3-22.67.6-2.8 3.03-6.85 6.74-7.67 3.83-.84 6.16-1.07 6.16-1.07s6.17 0 8.84-.34c3-.4 1.5-5.6 1.5-5.6s-2-13.1-13-23.8l-.6-2.67-4.18-2.1c-10.3-11.2-24-29.42-24-29.42s-6.03-5.8-.93-13.7c0 0 2.44-5.3 9.64-4.4 2.32.48 2.55.7 4.53 1.06 2.7.6 5.6 1.3 8.14-2.2 0 0 2.43-4.4-1.5-9.98-3.96-5.57-5.1-9.64-9.88-9.3 0 0-2.2-.34-4.4 2.1s-7.8 3.95-11.17 4.3c-3.7.35-12.4-2.9-17.4-11.5-2.8-4.87-4.2-7.43-4.75-8.82L347 22l3.95.46c1.04 1.98 3.02 5.8 5.34 10 3 5.33 5.8 6.15 7.5 6.96 1.7.8 5.8-.35 7.9-1.5 2.1-1.17 4.1-3.84 7.9-4.07 3.7-.25 8.9.33 12.7 4.4 3.7 3.94 8.42 12.3 8 16.13-.4 3.95-.6 7.78-5.7 9.4-5.1 1.63-7.2.24-10.37-.46-3.24-.7-4.75-.34-6.03 1.17-1.3 1.5-2.8 4.8-2.32 6.3.6 1.5 1.05 2.5 4.2 6.9 3.12 4.4 19.14 23.4 22.16 26.2l-.8 3.83 5.34.92c3.5 3.9 7.45 9.14 9.3 12.4 2.68 5 4.2 12.9 4.3 16.6.17 3.7-1.6 5.33-1.6 5.33s-1.7 2.9-11.12 2.9c-8.34 0-8.92 1.6-8.92 1.6s-2.56 2.55-2.1 8.94c.6 6.3 3.4 12.9 8.6 18.6 4.3 4.64 12.42 0 15.2-1.63 2.8-1.65 4.53-7 4.53-7s.6-6.73 7.9-6.73c7.54 0 10.9 7.3 10.9 7.3s5.35 7.2 10.7 22.74c2.7 7.63 3.13 12.5 3.13 12.5l.7 9.18-2.8 4.87 4.1 1.75c.7 3 1.96 6.8 3.82 11.22 0 0 5.57 13.1 8 18.1 2.45 5 5 4.2 7 4.4 0 0 4.62.58 6.36-1.5 1.76-2.2 3.4-6.04 3.4-6.04s3.6-9.97 11.83-9.16c8.15.8 10.1 6.05 11.6 11.97 1.4 5.9 1.77 17.76-2.64 25.07-4.4 7.3-9.3 6.27-9.3 6.27s-9.97-.92-12.3 1.17c-2.2 2.1-3.48 3.97-3.7 8.96-.36 4.84.1 12.9 4.17 22.5 3.48 8.33 6.27 7.52 7.9 9.5 1.5 2 6.5 6.6 6.03 18-.44 11.4-4.4 22.9-8.7 29.94a40.88 40.88 0 0 1-11 11.36s-1.86 1.2-5.9 1.77c-4.1.6-9.9.47-13.96 2.8-4.2 2.3-5.44 8.23-5.8 10.9-.34 2.56-.6 8.5 5.1 7.8 5.7-.6 14.2-7.68 14.2-7.68s8.23-6.06 9.3-4.2c1.02 1.95-3.5 9.85-3.5 9.85s-5.7 8.6-10.45 13.93c-3.95 4.4-9.06 10.3-13.35 17.04l-4.9 2.4z" opacity=".69" fill="url(#b)"/><path fill="url(#c)" d="M127.48 122.95l-.12.12c0-.12 0-.12.12-.12z"/><path d="M208.75 492.15h.93c-.93-.82-2.1-1.5-3.37-2.33-3.8-2.08-20.5-13.1-25.7-16.6-5.1-3.48-14.1-9.4-18.2-8.12-3 .92-2.6 2.2-4.4 3-1.8.83-3.8.25-8.2-2.08-4.5-2.43-7.9-3.94-16.6-12.3-6.8-6.5 8.8-.7 8.8-.7s3.4 1.4 1.9-2.1c-1.5-3.6-9.3-12.88-16.5-20.3a105.7 105.7 0 0 1-13.44-16.38l-3.12-3.6v-.92a.88.88 0 0 1-.2-.47s-10.32-18.57-9.3-25.42c0 0 .36-4.53 6.86-6.5 4.53-1.4 3.95 3 17.2 5.33 0 0 11.36 3.14 14.4-5.22 3-8.24-3.15-18.7-3.15-18.7s-8-14.62-17.87-15.2c-5.22-.35-3.82 3.25-11.72 5.1 0 0-10.56 1.05-13.93-5.33-4.05-7.6-5.7-16.3-5.56-22.1.1-5.4.35-5.9.7-7.5.23-1.1 1.04-3.2 1.4-6.2l-.7-3.7 1.15-2.8c0-1.37 0-2.9-.1-4.5-.45-9.2-1.15-23.2-2.42-31.47-1.26-8.24-3.5-20.9-11-21.36 0 0-3.7-.2-9.06 4.9-4.86 4.76-9.3-3.95-9.5-9.17-.36-6.17.7-12.44 2.2-15.46 1.5-3 5.7-3.1 6.5-3 .8.1 3.02.9 5.8 2.7 2.67 1.6 6.4 1.6 8.6-.5 2.2-2.2 5.22-4.72 6.5-14.24 1.27-9.64 1.27-19.5.1-31.47l-1.3-2.67 7.45-1.6c0-.1-.1-.7-.2-1.03v-1c0-.13 0-.24-.1-.36v-.92c0-.1 0-.22-.1-.45 0-.13 0-.24-.1-.48v-.7c0-.14 0-.37-.17-.5v-1.87c0-.1 0-.35-.1-.47v-9.9c.23-6.86 1.62-9.6 1.62-9.6l.34-.9s2.57-8 6.4-13.6l-.1.1s2.4-4.1 6.7-4.55c4.3-.46 5.6.8 7.57 1.05.2 0 .46 0 .58.1h5.5c.27 0 .4-.1.6-.1h1.3a22.26 22.26 0 0 0 4.4-4.3c.12-.1.12-.24.23-.24v-.1l.2-.23v-.1c.1-.1.1-.2.23-.2.25-.35.5-.6.6-.93 0-.1.1-.1.1-.25v-.1c0-.1.13-.1.13-.22v-.2c0-.12.1-.12.1-.24a.88.88 0 0 0 .2-.45v-.13s0-.1.1-.1c0 0 0-.14.15-.14 0 0 0-.1.1-.1 0 0 0-.1.1-.1 0 0 0-.13.1-.13 0 0 0-.1.1-.1v-.1l.6-1.1c3.25-8 .23-16.15-1.17-17.77-1.7-2-5.7-4.9-5.7-4.9s-2.3-2-5.9-.1c-2.9 1.5-3.92 1.12-3.92 1.12-.14-2.8.8-7.9 2.65-12.42 1.86-4.5 5.93-12.4 5.93-12.4s5.8-9.86 8.1-15.9c2.35-6.03 2.35-10.7 2.35-10.7s-4.4-5.55-5-6.5a3.38 3.38 0 0 0-1.5-1.26c-1.15.5-1.84.6-1.84.6l.9-.8s2.3-2.7 5.9-1.87c3.6.9 6.17-.7 6.17-.7 5.57-4.2 9.17-12.1 9.17-12.1l5.46-11-4.53-7.3s-.7-.13-5.32 1.4c0 0-4.3 10.43-9.5 17.05 0 0-2.1 3.03-3.7 2.33a8.32 8.32 0 0 0-5-.45c-1.5.36-6.4 1.98-10.8 7.8-4.4 5.9-4.85 10.2-2.53 11.6 2.3 1.4 5.8-.47 7.78-2.2 2.1-1.87 3.48-2.7 4.18-2.56.7.1.47 1.74.36 2.2-.1.47-.8 7.55-8.97 21.6-2.1 3.5-4.65 8.7-5.92 11.26l3.4 2.4-5.44 2.8c-1.5 4.2-3.4 10.7-2.6 14.4a6.7 6.7 0 0 0 6.4 5.6s3.36.1 7.4-1.97c3.98-2.1 4.9 6.84 4.9 8.23 0 1.5 0 9.5-5.6 13.45 0 0-2.2 1.75-5.42 1.75-3.13 0-5.22-.94-5.22-.94s-5.43-1.5-8.8.5c-3.35 2-7.3 6.05-10.43 11.97-3.16 5.92-5.8 16.5-5.6 24.27.1 6.16 1.03 11.97 1.6 15.9l3.76 2.4-3 3.5c.45 6.24.92 18.55.8 22.6-.1 5-.8 15.68-6.15 18.1 0 0-1.73.95-4.75-1.26-3-2.2-6.27-2.3-7.55-2.43-1.25 0-7.05.9-9.3 7.2-2.2 6.26-2.05 14.85-1.6 19.84.48 5 4.9 13.6 10.35 13.6 0 0 2.7.2 5.8-3 3.15-3.25 5-3.5 6.4-3.5 1.4 0 4.2 1.52 5.9 15.7a254.7 254.7 0 0 1 2.34 36.8l3.4 2.2-4.2 4.2c-.25 1.02-.48 2.3-.8 3.46-.96 3.7-1.08 7.54-.15 14.15.93 6.6 4.53 20.56 9.64 24.16 6.84 4.76 11.4 4.76 16 4.4 4.66-.33 7.9-3.93 7.9-3.93s1.87-1.84 3.85-1.26c1.96.6 7.42 3.6 11.36 11.5 3.93 7.9 4.74 16.5-1.76 18s-17.75-4.63-17.75-4.63-6.4-3.6-11.6.38c-5.2 3.97-5.33 10-2.8 17.44a102.9 102.9 0 0 0 8.4 17.5l3.92 1.63-1.07 3a69.08 69.08 0 0 0 9.28 11.6s13.6 15.1 21.17 24.6c0 0 .5.8-.9.1-1.3-.8-6.94-3.36-10-3.13-3 .34-2.4 2.2-2.4 2.2s1.28 6.96 22.06 18.57c0 0 7.52 4.2 12.2 4.2 0 0 1.5.23 3.33-1.86 1.84-2.1 2.42-1.84 3.8-1.4 1.3.5 3.06 1.4 9.68 6.07 6.5 4.75 19.24 11.94 23.8 15.1 4.5 3 4.4 3.6 3.33 5.8-.92 2.2 3.26 3.35 3.26 3.35s10.44 4.77 16.13 4.66c5.7-.1 8.16-.7 11.6.1 3.5.7 7.1 1.6 7.47 1.85.33.35-1.76.23-1.76.23s-13-1.5-13.7-1.16c-.7.4.1 1.1 5.47 2.47a310.3 310.3 0 0 0 20.9 2.77c-2.65-.33-13.9-1.73-21.1-3.93 0 0-.7-.46.94-.1s11.16 1.3 13.6.8c2.44-.33-.47-1.5-.47-1.5s-5-2.32-15.9-3.25c0 0-4.4-.33-8.26.1-3.84.38-7.8-1.5-7.8-1.5s-5.7-1.72-4.3-3.6c.7-.9.8-1.84.36-2.8l-3.23-2.4z" opacity=".45" fill="url(#d)"/><path d="M341.9 472.64l-2.42 3.6c.58 3.6-.58 4.88-1.4 6.15-.8 1.4-3.25 3.2-2.1 6.5 1.17 3.2 9.3 2.2 13.94.8 4.65-1.4 8.7-2.7 11.73-3.9 3.14-1.1 3.95.4 3.95.4s1.4.9-3.14 3.32c-4.52 2.44-12.88 3.5-16.83 3.95-3.95.45-2.8-.25-8.7 1.84-5.93 2.1-.36 3.98-.36 3.98 13.47 3.5 23.1.6 23.1.6l1.86-.6c1.5-.46 2.9-.93 4.42-1.4-11.15 2.56-18.35.82-20.67.6-2.32-.36-4.3-.8-4.88-2-.58-1.15 2.67-1.03 2.67-1.03s9.3-1.05 17.88-3.84c8.6-2.8 10.7-5.44 10.34-7.4-.4-2-4.7-1.9-9.9-.13-5.3 1.6-12.9 4.16-14.7 4.5-1.9.3-3.9.3-4.6-.8-.6-1.2-1.2-2.96.8-5 2-2.1 2.2-3.9 2.2-3.9.32-1.4.32-2.9.1-4.4l-3.5-2.1 3.02-.7c-1.6-6.14-5.8-12.2-7.08-14.15-1.76-2.8-4.66-4.4-13.26-2.9-8.6 1.4-18.7 5.7-18.7 5.7s-10.45 5.4-18.2 4.5c-7.8-1.07-9.4-8.96-9.3-11.4.1-2.44 1.6-4.65 5.7-6.16 4.04-1.64 13.56-3.7 27.5-4.4 13.92-.7 19.03-9.78 19.03-9.78 1.88-2.67 5.1-8.47-2.65-12.9-7.78-4.4-7.9-3.24-11.7-6.14-3.7-2.9-7.78-6.4-9.4-11.26a13.8 13.8 0 0 0-.6-1.6l-4.6-3.15 2.2-2.1c-1.87-3.7-3.85-6.98-3.85-6.98s-7.1-10.5-1.4-20.47c5.7-10 15.1-13 15.1-13s8.2-1.88 16.5.1c7.73 1.73 11.7-1.17 11.7-1.17s4.73-2.1 6.13-11.6c1.5-9.5-.1-27.3-12.77-30.76-12.8-3.5-19.5 3.13-19.5 3.13s-6.9 7.55-9.1 8.7c-2.2 1.17-5.7 3.14-5.7 3.14s-4.77 2.9-8 3.6c-2.2.5-9.9-9.7-10.7-17.6-.7-7.3-2.2-13.1-1.75-28.1l-2.67-3.5 3.03-2.9c.6-16.5-2.3-28.2-6.5-35.65-4.4-7.77-11.7-11.95-15.2-13.7-3.6-1.73-11.82-2.54-17.5-.46-5.7 2.1-6.88 3.7-8.97 7.3-2.1 3.6-4.6 3.36-4.6 3.36s-7.9.23-10.44-11.73c-3.6-16.83 1.93-22.3 1.93-22.3s1.74-2.66 7.55-3.36c5.8-.8 9.52.6 13.93 1.76 4.4 1.2 7.8.7 13.33-2.1 5.57-2.66 7.9-7.18 6.85-15.08-1.03-7.67-1.4-9.65-8.12-32.87l-4.88-2.6 3.24-3.1c-6.5-23.55-7-38.4-7-38.4-.54-5.4.27-7.1 3.3-8.5 3.1-1.4 6.13-.97 10.65-.7 4.55.3 7.9-.5 10.24-1.78 2.3-1.3 8.7-4.8 8.2-12-.42-7.1-6.1-15.54-10.75-18.45-4.62-2.9-10.8-1.72-14.02.7-3.35 2.46-4.63 5.7-6.7 6.76-2.1 1.06-5 3.38-8 2.7-3.04-.7-3.28-7.53-4.55-15.3-.8-5-1.5-8.96-1.87-10.93l-3.74-1.4c.26 3.03 2.9 18.24 2.9 18.24s1.3 7.58 1.77 9.3c.43 1.88 1.7 5.8 1.7 5.8s.5 2 2.6 2.9c2 .96 5.8 1.3 9.65-.2 3.84-1.5 4.9-3.14 6.63-5.23 1.75-1.97 2.3-2.67 2.3-2.67s3.6-3.5 8.16-1.86c4.52 1.5 7.2 6.73 7.2 6.73l.1.3s2.22 3.6 2.22 6.97-.15 1.64-3.87 4.54c-3.7 2.9-6.7 2.68-9.26 2.45-2.55-.24-3.7-.36-4.4-.24l-3.8.3c-4.3.55-6.73 2.2-6.73 2.2-9.85 5.9 4.08 51.2 4.08 51.2l-1.5 3.34s2.77 11.26 4.98 18.58c2.1 7.3 3.14 14.5 3.37 16.02.3 1.5.2 4.18-1.8 5.8-2 1.63-6.9 2.9-7.9 3.14-1.1.1-2.9-.24-5.5-1.17-2.6-.92-5.1-1.04-5.1-1.04s-6.2-1.1-12.7.9-11.5 8.7-11.9 16.9c-.35 8.3-.35 12.5 2.9 19.9s9.17 11.6 13.6 11.7c4.4.1 8.1-2.2 10.7-5.8 2.53-3.6 3.23-4.2 3.23-4.2 3.02-1.6 10.7-2.43 14.63-.9 3.94 1.4 11.03 5.9 14.97 14.74 3.14 7.2 4.2 15.2 4.07 29.6l3.27 2.43-3.34 3.83c0 1.4-.1 2.8-.1 4.2-.8 21.4 3.93 32.3 3.93 32.3 2.63 5.9 5.65 10.1 9.6 12.77 3.94 2.65 9.4.8 11.14 0 1.8-.95 6.67-3.16 10.7-5.7 4.2-2.68 3.98-3.7 8.97-8.37 5-4.6 11.5-3.35 11.5-3.35s6.14.1 9.6 7.2c3.5 7.1 2.8 17.2 1.87 20.8-.93 3.6-2.44 6.03-5.8 5.34a122.3 122.3 0 0 0-11.15-1.3c-2.1-.1-7.9-.2-13.23 1.2-5.2 1.36-12.2 5.1-18.8 15.9-5.24 8.33-2.68 16.6-1.4 19.83.92 2.55 3.5 6.04 5.8 10.45l4.2 1.4-1.98 3.6c2.2 5.3 3.85 8.2 7.2 11.8 3.6 3.86 9.2 6.9 15.9 9.4 6.75 2.6 3.6 7.1 3.6 7.1-3.8 8.26-15.2 8.6-18.44 8.96-3.4.38-10.36 1.07-16.87 2.47-6.5 1.4-12.65 2.3-16.25 6.5-3.6 4.17-2.2 8.6-.1 13.2 2.1 4.67 7.9 7.1 15.7 6.76 7.9-.3 13-2.63 17.75-4.6 4.73-2.1 13-4.4 15.4-5.2 2.45-.7 5.8-2.2 8.25 1.4a56.2 56.2 0 0 1 6.77 13.46l3.7-.1z" opacity=".35" fill="url(#e)"/><path d="M558.2 279.68s1.87-17.88 2.56-24.26c.12-.93.12-1.86.23-2.8l-.6-1.26c-2.6 32.04-5.2 42.6-5.2 42.6s.1-.23.1-.58a191.9 191.9 0 0 0 2.9-13.7zm-56.77-212.8l1.86 2.32 1.5 2.78a707.25 707.25 0 0 0 15.6 23.7s4 5.2 5 5.33c.9 0-.5-4-.5-4s-1.5-5.3 2.9 1.7a87.7 87.7 0 0 1 7.3 15c.6 2 .2 2.37.2 2.37s-.8.33-.8 1.84c0 2.78 2.8 9.17 2.8 9.17s8.4 21.6 11.3 30.68c2.9 9.07 6.26 24.05 6.26 24.05s1.05 4.4 1.16 6.5c.1 2.1-.36 2.1-1.3 1.06s-1.86-.35-1.86-.35-.92.37-.92 4.3c0 3.8.46 12.9 1.16 19.98.8 8.26 3.37 11.74 3.37 11.74s2.3 3.35 2.9-3.16c.55-5.7 1.02-1.27 1.02-1.27 1 8.6.3 25.06.1 27.27a37.56 37.56 0 0 0-.25 3.5l.7-1.16c1.13-16.37.3-29.6.3-29.6s-.8-7.32-1.6-7.2c-.8 0-1.15 3.83-1.15 3.83s-.33 2.56-.8 2.56c-.45-.1-2.1.13-3.12-7.76-1.05-7.9-.8-16.25-.8-16.25s-.25-.8.2-1c.4-.25 1 .57 1 .57s.7 1.05 1.63.24c.8-.8 1.06-3.5-1.6-16.94a213.2 213.2 0 0 0-5.57-21.13l-1.6-1.84-.36-3.96s-1.7-5-5.7-15.1c-3.9-10.1-4.6-13.57-4.6-13.57s-.25-1.06.33-1.3c.6-.22.5-.92.5-.92s-.13-1.36-1.5-5.43c-1.53-4-2.34-7.03-7.45-15.73-4.74-8.15-6.13-8.6-6.13-8.6s-2.34-1.3-.6 3.23c1.75 4.54-.46 1.3-.46 1.3-5.1-6.5-15.67-23.68-15.67-23.68l-3-2.1-2.8-7h-.1M6.7 177.88l-1.04 2.1c-2.6 13.7-3.5 28.3-3.4 29.26 0 1.2-.3 1.2-.5 1-.3-.24.1-.94-.3-.94-.46 0-.6 1.1-.6 1.1l-.3 4.76h.1c.33-.6.6-.1.6-.1s-.15.7.54.37c.7-.38 1.16-7.58 1.16-7.58S3.2 192.3 7.7 174c4.5-18.37 7.07-23.47 7.07-23.47s.8-2.33.8-.47c-.1 1.85 1.06 1.96 1.06 1.96 2.1-.36 4.53-6.17 6.96-13.7 2.4-7.56 3.7-14.3 3.7-14.88 0-.57-.4-1.03-.8-.8-.6.35-.7.12-.7.12-.2-1.16 1.9-6.27 1.9-6.27a154.95 154.95 0 0 1 17.1-31.4l.45-2.8c-.93 1.4-1.5 2.32-2.33 3.6-.37.46-.25 1.62 0 1.74-1.18 1.06-2 2-2.7 2.57-14.95 24.66-16.8 36.16-16.8 36.16-.14 1.15 0 1.73.56 1.73.36 0 1.4-2 .7 1.95-.46 2.57-2.9 9.4-3.83 12.2-.9 2.8-1.92 4.65-2.73 4.53-.7-.1-.7-1.3-.7-1.3s-.25-3.03-2.2 1.4c-2 4.4-3.97 10.2-7.9 25.64-.14.7-.37 1.4-.48 2.1l-.26 3.23zm18.1 165c-.8-2.2-1.5-3.95-1.03-3.26.5.8 1.07 2.4 2.57 3.9 1.4 1.6 2.44-1.3-3.48-17-5.94-15.9-7.45-16.73-7.8-17.07-.26-.35-1.2-1.3-.96.9s.12 3.6-2.78-6.26c-2.9-10-5.46-26.7-5.7-28.1-.1-1.4-.92-9.7-2.2-19.8-1.27-10-1.4-20.7-1.16-23.6.3-3-.3-4.53-.7-4.65-.3 0-.4.24-.7 1.5-.2 1.3 0 2.2-.3 2.1-.3 0-.4-2.55-.4-2.55v3.7l.3 2.2c.25 3.26.7 1.98.7 1.4 0-.6.1-1.85.1-1.85s.6-4.85.5.14c-.1 5 1.28 25.2 1.28 25.2l.36 4.04.33.43-.25.6A403.4 403.4 0 0 0 7.9 293c2.8 13.3 6.17 21.2 7.2 23.4 1.06 2.2 1.3.5.95-1.5-.33-1.97 3 3.83 4.78 9.3 1.86 5.45 3 10 3 10s1.4 4.27.84 4.5c-.6.24-1.64-1.6-1.64-1.6s-2.56-4.67-1.5-1.3c2.2 6.73 8.8 21.13 8.8 21.13l7.64 13.55a631 631 0 0 1-13-27.64zM38.3 370.5c.4.7.7 1.4 1.2 1.97l-1.16-1.98zm74.2-357.13c-1.13 1.86-1.25 2.8-1.25 2.8s.58-.7 1.05-1.3c.22-.57.22-1.5.22-1.5zM93.1 28.33a7.34 7.34 0 0 0-3.7 1.4s1.97-.36 3.7-1.4zm368.28-3.73s1.4-.1 1.86.13c.58.23.35-.93.35-.93s-1.7-2.2-1.8-3.02c-1.8-.46-3.4-.58-3.4-.58l-.1.23c0 .47-.3 1.05-.1 1.63 0 0 2.6 1.97 3.1 2.55zm19.16 16.38l.58-.8-1.28-3.72c0-.12-.12-.12-.12-.24 0 .35-.23.7-.92.58 0 0-.6-.1-.12 1.05.46.93 1.16 2.2 1.86 3.13z" opacity=".1" fill="#232323"/><path d="M558.2 279.68s1.87-17.88 2.56-24.26c.12-.93.12-1.86.23-2.8l-.6-1.26c-2.6 32.04-5.2 42.6-5.2 42.6s.1-.23.1-.58a191.9 191.9 0 0 0 2.9-13.7z" opacity=".1" fill="#232323"/><path d="M433.86 463.6s3.72-3.6 3.02-4.2c-.7-.57-3.48 1.4-3.48 1.4s-.35.35-1.04.8l2.2-1.38s-.23 1.28-1.97 3.02c0 0-.5.46-1.4 1.4-5.3 5.22-13.2 11.02-13.2 11.02l2.2-1.16c7.2-4.4 13.6-10.9 13.6-10.9z" opacity=".5" fill="url(#f)"/><path d="M455.8 216.53l2.8-4.88-.7-9.17s-.47-4.88-3.14-12.54c-5.34-15.56-10.68-22.76-10.68-22.76s-3.25-7.3-10.9-7.3c-7.33 0-7.9 6.72-7.9 6.72s-1.75 5.34-4.53 6.97c-2.8 1.62-10.92 6.27-15.2 1.62-5.24-5.7-8.02-12.3-8.6-18.6-.6-6.3 1.97-9 1.97-9s.58-1.7 8.94-1.7c9.4 0 11.14-2.9 11.14-2.9s1.75-1.6 1.63-5.38c-.12-3.7-1.5-11.6-4.3-16.6-1.74-3.25-5.8-8.48-9.28-12.4l-5.34-.95.9-3.83c-3.1-2.8-19.1-21.86-22.2-26.27-3.1-4.4-3.6-5.46-4.2-7-.6-1.5 1-4.85 2.4-6.35 1.3-1.5 2.9-1.86 6.1-1.17 3.24.7 5.33 2.1 10.44.47 5.1-1.6 5.36-5.44 5.7-9.4.36-3.93-4.3-12.2-8-16.12-3.72-3.97-9.06-4.67-12.77-4.4-3.7.2-5.8 2.9-7.9 4.03-2.1 1.16-6 2.32-7.9 1.5-1.7-.8-4.5-1.5-7.52-6.96-2.32-4.2-4.4-8-5.34-10l-3.96-.47v.1s3.5 9.18 9.05 15.57c5.5 6.4 12.6 5.1 12.6 5.1s4.5-.43 8.45-4.3c3.97-3.7 9.78-.8 11.17.27 1.5 1.07 4.8 5 8.17 11.75 3.36 6.72-1.98 11.4-1.98 11.4s-3.05 2.9-9.3.44c-6.28-2.45-10 1.4-10.9 3.36-1.07 1.98-2.8 5.46.44 9.5 3.2 4.1 17.5 23.6 27 32.8 9.62 9.16 12.76 16.82 14.73 23.9 2 7.2.5 10.45-2.9 11.15-3.35.7-6.4.1-11.5 1.03-5.2.9-7.4 1.98-8.45 9.18-1 7.1 3.17 18.6 9.2 24.04 6.16 5.48 12.9 2.1 15.2 1.3 2.33-.92 7.44-3.6 9.3-11.14 1.04-4.3 4.64-3.95 4.64-3.95s3.15-.34 4.77.7c1.63 1.05 3.5 2.9 7.78 10.3a84 84 0 0 1 9.53 26.17c1.27 8.45.22 9.73 1.62 16s5.9 17.9 8.1 22.4a416 416 0 0 0 5.48 11.6c1.17 2.45 2.9 4.3 8 4.43 5 .1 7-1.3 8.5-3.6a85.12 85.12 0 0 0 3.94-7.3c.6-1.26 2.57-5 6.28-5.55 3.84-.57 9.76 0 11.6 6.63 1.76 5.9 4.2 14.5-.9 24.8-3.6 7.3-6.27 4.8-13.47 5.25 0 0-6.4 0-9.84 5.1-3.4 5.1-2.37 14.4-1.68 21.4.7 6.96 5.44 17.2 8.92 19.6a16.5 16.5 0 0 1 5.93 7c1.15 2.2 2.9 6.62 1.15 18.23-1.72 11.6-5.3 20.7-10.3 25l-.36.34c-.34.33-.8.7-1.16 1.14-3 2.9-2.1 3-4.9 4.4-3.24 1.64-5.45 1.18-10.8 2-5.33.93-8.7 1.86-11.5 4.53-2.77 2.8-6.83 7.75-5.32 17.5.8 5.45 7.3 3.25 12.3.6a18 18 0 0 1-4.43 1.4c-5.7.55-5.45-5.25-5.1-7.8.35-2.56 1.74-8.5 5.8-10.9 4.2-2.34 9.88-2.2 13.94-2.8 4.1-.6 5.94-1.75 5.94-1.75s6.6-4.2 11-11.4c4.4-7.06 8.25-18.55 8.7-29.93.48-11.4-4.5-16-6.02-18-1.5-2-4.4-1.18-7.9-9.5-3.95-9.66-4.4-17.56-4.18-22.5.32-4.9 1.5-6.78 3.7-9 2.2-2.1 12.3-1.15 12.3-1.15s4.83 1.02 9.3-6.3c4.4-7.3 4-19.17 2.62-25.1-1.4-5.96-3.5-11.2-11.6-12-8.17-.8-11.9 9.2-11.9 9.2s-1.62 3.85-3.36 6.05c-1.76 2.2-6.4 1.64-6.4 1.64-2.1-.24-4.54.57-6.97-4.4-2.4-5-7.9-18.13-7.9-18.13a87.2 87.2 0 0 1-3.8-11.36l-3.84-1.76z" opacity=".73" fill="url(#g)"/><path d="M453.02 434.9l4.4-2.66c4.3-6.73 9.53-12.77 13.36-17.07 4.76-5.34 10.45-13.93 10.45-13.93s4.65-7.9 3.5-9.87c-.7-1.27-3.84.12-9.3 4.18-20.2 15.1-21.94 6.85-21.94 6.85 2.3 13.47 26.1-9.05 28.2-7.54-.4 3.13-2.6 6.5-6.9 12.42 0 0-2.1 3.02-4.3 5.22a96.1 96.1 0 0 1-3.2 3.5l-.7.68a193.2 193.2 0 0 0-8.8 11.15c-.2.1-.6.58-.7.8-1.7 2.33-2.7 4.07-3.9 5.82-.1.1-.37.1-.48.23 0 0-.1.1-.1.23-1.4 2.3-2.1 4-2.8 5.4-.1.1-.1.4-.1.6 0 0-1.76 3.7-2.58 5.9-.8 2.2-.7 3-3.5 3.5s-1.5-.3-5.57 1.1c0 0-2.2 1.1-5.2 3.2-.1.12-.36.24-.47.35a91.42 91.42 0 0 0-8.5 7.9c-.23.36-.6.7-.8 1.05 0 0-.8.92.2 1.04 1.18.1 3.5 0 5.6-.96l.47-.35a6.5 6.5 0 0 1-2.8.9c-2.2-.1 2.66-4.75 2.66-4.75s5-5.53 9.75-6.5c4.78-.8 5.6-2.1 8.03-3.8 2.34-1.84 2.7-3.7 7.56-12.4.1-.33.35-.57.58-.9l-2.35-1.1z" opacity=".53" fill="url(#h)"/><path d="M301.86 398.34l2.2-2.1c-1.85-3.7-3.83-6.96-3.83-6.96s-7.08-10.45-1.4-20.43c5.7-10 15.1-13 15.1-13s8.25-1.86 16.5.1c7.77 1.75 11.72-1.15 11.72-1.15s4.76-2.1 6.15-11.6c1.4-9.53-.12-27.3-12.77-30.78-12.77-3.48-19.5 3.14-19.5 3.14s-6.86 7.55-9.06 8.7c-2.2 1.05-5.7 3.14-5.7 3.14s-4.75 2.9-8 3.6c-2.2.46-9.87-9.75-10.68-17.65-.7-7.2-2.3-13.12-1.7-27.98v-.1l-2.7-3.5 3-2.9c.6-16.48-2.3-28.2-6.5-35.64-4.4-7.78-11.7-11.96-15.2-13.7-3.6-1.74-11.9-2.55-17.6-.47-5.7 2.1-6.88 3.72-8.97 7.32-2.1 3.6-4.65 3.37-4.65 3.37s-7.9.23-10.44-11.73c-3.6-16.83 1.97-22.3 1.97-22.3s1.73-2.66 7.54-3.36c5.8-.8 9.5.58 13.93 1.74 4.4 1.05 7.76.58 13.33-2.1 5.56-2.66 7.9-7.18 6.84-15.08-1.06-7.66-1.4-9.52-8.14-32.86l-4.85-2.55 3.23-3.1c-6.5-23.5-7-38.4-7-38.4-.6-5.3.25-7.1 3.27-8.5 3.17-1.4 6.2-.9 10.7-.7 4.54.3 7.9-.4 10.2-1.7 2.35-1.2 8.7-4.7 8.27-11.9-.47-7.1-6.16-15.5-10.8-18.42-4.65-2.9-10.8-1.73-14.17.7-3.35 2.45-4.62 5.7-6.7 6.75-1.98 1.05-5 3.37-8 2.68-3.03-.7-3.26-7.53-4.54-15.3-.8-5-1.5-8.9-1.86-10.9l-3.7-1.4c.2 3 2.9 18.24 2.9 18.24l1.6 8.95v.1c0 .1 0 .2.1.2.1.47.22 1.05.45 1.63.6 1.16 2.1 2.55 5.25 2.8a14.2 14.2 0 0 0 11.15-3.97c1.4-1.3 4.73-5 4.73-5s1.85-3.5 6.96-2.7c5.1.8 6.83 4.3 7.8 5.58.9 1.26 8.7 10.8 3.7 15.8l-.8.8c-.6.6-1.4 1.4-2.48 2.2-3.7 2.9-6.7 2.66-9.26 2.43-2.55-.23-3.7-.35-4.4-.23l-3.94.22c-4.3.6-6.74 2.2-6.74 2.2-9.86 5.92 4.1 51.2 4.1 51.2s3.7 11.14 5.36 16.4c1.6 5.2 2.77 8.92 4.4 18 1.62 9.03-1.28 11.5-2.9 12.4-1.63.92-5.46 3.13-9.76 3.4-4.3.2-5.7-2-13.1-2.48-7.42-.33-12.4 1.87-14.6 5-2.3 3.14-5 10.2-3.7 18.7 1.3 8.47 2.8 11.38 6.05 15.2 3.23 3.7 6.36 5.35 10.9 3.84 4.4-1.5 4.2-4.16 6.5-6.4 2.9-2.9 4.75-4.4 11.4-4.5 6.6-.1 10.9 1.63 14.25 4.3 3.4 2.8 10.7 9.06 12.68 18.46 1.97 9.4 2.3 12.53 2.3 20.3 0 7.78-.56 16.37-.33 24.15.23 7.67 1.04 15.68 3.13 20.9 2.1 5.2 5.1 9.64 7.62 12.08 2.67 2.3 5 2.45 7.54 1.4 2.66-1.04 8.35-4.3 13.1-7.3 4.74-3 4.4-5.46 8.7-8.25a18.56 18.56 0 0 1 13.6-2.68c3.6.6 9.26 3.5 11.5 10.46 2.3 6.95 1.94 14.73 1.94 14.73s.2 6.5-2.44 10.36c-2.7 3.8-6.98 3.3-8.96 3-1.96-.4-6-.7-6-.7s-8-.97-14.17.43c-6.03 1.4-11.5 6.07-15.1 10.5-3.6 4.52-5.2 8.7-5.44 11.84a23.8 23.8 0 0 0 3.44 14.15c3.38 5.34 3.96 7.9 7.8 15.56 3.83 7.65 11.85 11.95 12.2 12.2.23.2 7.66 2.9 10.44 5.2 2.8 2.33 3 4.53 2.32 6.6-.8 2.1-2.44 6.07-8.83 8.86-6.38 2.8-14.28 2.9-19.27 3.37-5 .5-14.6 1.9-20.4 4.67-5.8 2.8-5.35 8-5.35 8s-.1 8.6 7.3 10.9c7.5 2.45 14.5 0 17.6-1.27 3.16-1.3 8.27-3.26 8.27-3.26s9.88-3.48 15.2-4.64c5.36-1.17 8.5-1.75 12.1 4.63 3.6 6.4 5.56 10.44 5.9 14.5.35 4.06-1.16 6.38-2.55 7.9-1.4 1.5-1.16 2.54-1.16 2.54-.56 4.76 6.5 4.2 6.5 4.2s.25 0 .6-.1c-1.4.1-2.8-.15-3.24-.96-.7-1.16-1.2-2.9.8-5s2.2-3.82 2.2-3.82c1.6-7.9-5.7-18.57-7.44-21.36-1.74-2.8-4.65-4.4-13.24-2.9-8.6 1.4-18.7 5.7-18.7 5.7s-10.43 5.45-18.2 4.4c-7.8-1.04-9.4-8.94-9.3-11.4.1-2.42 1.63-4.63 5.7-6.14 4.06-1.6 13.6-3.7 27.5-4.4 13.94-.7 19.05-9.78 19.05-9.78 1.86-2.67 5.1-8.48-2.67-12.9-7.76-4.3-7.9-3.24-11.6-6.03-3.7-2.9-7.8-6.4-9.4-11.26a14.3 14.3 0 0 0-.6-1.6l-4.3-3.4z" opacity=".96" fill="url(#i)"/><path d="M505.5 71.3c5.57 9.04 15.67 23.67 15.67 23.67s1.4 1.86 2.8 3.37v-.12c.1-2.1-.24-3.13-.36-3.37l-.4-1.5c-.1-1.98 2.5.57 3.4 1.62-2.7-4.18-3.6-4.53-3.6-4.53s-2.3-1.28-.5 3.25c1.77 4.5-.43 1.2-.43 1.2-5.1-6.5-15.67-23.7-15.67-23.7l-3.03-2.1 2.34 2.1zm52.6 209.43c.1-.35.1-.7.22-1.05 0 0 0-.1.12-.46a3.58 3.58 0 0 0-.35 1.5zm-3.96-86.5c.47-.23 1.05.6 1.05.6s.7 1.03 1.6.22c.6-.58.8-1.98.1-6.97a8 8 0 0 1-.8 3.25c-.8 1.63-1.8.12-2.5-.46-.7-.58-1 .35-1 .35v.93c0 3.83.43 12.88 1.12 19.96.35 3.4.93 6 1.63 7.8l.23.5c.45.8 1.03 1.9 1.73 1.4.7-.4 1.54-3.2 1.54-3.2l.7-3.2c1.06.6 1.64 2.9 1.87 5.4v-.37s-.8-7.3-1.6-7.2c-.8 0-1.16 3.84-1.16 3.84s-.35 2.57-.8 2.57c-.45-.13-1.96.1-3.1-7.8-1.2-7.9-.96-16.24-.96-16.24s-.2-.96.27-1.2zm-6.27-39.13l1.63 1.87c2.67 8.24 5.46 21.24 6.04 23.57-.12-.82-.35-1.63-.47-2.44a213.2 213.2 0 0 0-5.57-21.13l-1.63-1.86-.23-3.8v-.1s-1.74-5-5.7-15.1c-3.94-10.1-4.64-13.6-4.64-13.6s-.2-1 .4-1.3c.57-.2.45-.9.45-.9s-.1-1.4-1.5-5.4c-1.05-2.8-1.75-5-3.6-8.8 1.5 3.3 2.55 5.8 2.9 7l.1.4s.6.84.36 3.04c-.1 2.2-.8 2.44-.8 2.44l.1.8c.8 3.05 2.4 6.5 2.4 6.5s6 15 9.7 25.1l.26 3.96z" opacity=".1" fill="#232323"/><path d="M235.1 502.25c5.23.93 9.52 1.97 10.45 2.2a64.8 64.8 0 0 0-10.45-2.2z" fill="url(#j)"/><path d="M110.53 410.64v-.92l-.24-.47s-10.4-18.57-9.3-25.42c0 0 .3-4.53 6.8-6.5 4.5-1.4 3.9 3 17.2 5.33 0 0 11.4 3.02 14.4-5.22 3-8.36-3.2-18.7-3.2-18.7s-8-14.62-17.9-15.2c-5.2-.35-3.8 3.25-11.7 5.1 0 0-10.6 1.05-14-5.33a50.2 50.2 0 0 1-5.6-22.1c0-5.8.2-5.5.7-7.8.2-1.1 1.02-3 1.4-6l-.7-3.7 1.15-2.8c0-1.3 0-2.9-.1-4.5-.5-9.2-1.18-23.2-2.46-31.4-1.3-8.24-3.5-20.9-11.03-21.36 0 0-3.7-.22-9.04 4.9-4.88 4.75-9.3-3.96-9.5-9.2-.26-6.14.7-12.4 2.2-15.43 1.5-3 5.7-3.1 6.5-3 .8.1 3 .9 5.7 2.68 2.65 1.6 6.4 1.6 8.6-.46 2.2-2.2 5.2-4.72 6.5-14.24 1.25-9.6 1.25-19.5.1-31.44l-1.3-2.67 7.44-1.6c0-.1-.1-.7-.2-1.06v-1c0-.12 0-.23-.1-.35v-.92c0-.1 0-.2-.14-.42 0-.1 0-.2-.1-.45v-3.04c0-.1 0-.32-.1-.44v-9.83c.22-6.83 1.6-9.6 1.6-9.6l.36-.93s2.56-8 6.4-13.6l-.13.14s2.42-4.03 6.7-4.5c4.3-.45 5.6.94 7.56 1.17.26 0 .5 0 .6.1h5.6c.24 0 .35-.13.6-.13h1.26a22.26 22.26 0 0 0 4.4-4.3c.1-.1.1-.23.2-.23v-.1c.1-.13.1-.24.25-.24.1-.1.1-.27.24-.27.2-.37.43-.6.55-.96 0-.1.1-.1.1-.22 0-.1.1-.1.1-.22v-.1c0-.1.1-.1.1-.23a.88.88 0 0 0 .23-.47v-.1s0-.1.13-.1c0 0 0-.1.1-.1 0 0 0-.13.14-.13v-.1s0-.13.1-.13c0 0 0-.1.1-.1v-.1l.6-1.17c3.25-8 .2-16.17-1.16-17.8-1.7-1.97-5.7-4.87-5.7-4.87s-1.6-1.3-4.14-.8c1.96-.26 4.4.44 5.32 3.1 1.5 4.06 2.1 7.3 1.16 12.9 0 0-1.4 7.65-7.67 12.3-6.14 4.64-10.55.57-15.9.7-5.33.2-8.35 3.8-10 6.38-1.6 2.58-7.76 12.1-7.3 28 .6 15.8 1.6 23.7 1.75 30.67.23 6.6.93 21.9-3.48 29.1-4.56 7.2-8.97 3.6-12.1 1.77-3.14-1.87-6.74-1.4-9.64.7-2.9 2.1-4.64 6.14-4.64 18.33-.14 13 8.46 14.4 8.46 14.4s1.6.8 5.2-3c0 0 3.6-3.83 6.94-3.37 3.35.45 5.44 3.94 6.95 9.97 1.4 6.05 4.4 31 3.97 47.85-.22 6.95-3.36 7.07-1.96 19.96 0 0 2.2 17.3 7.77 22.55 5.44 5.35 13.1 4.3 14.96 4.2 1.75-.2 3.84-1.4 3.84-1.4s1.76-1 3.04-2.06c1.3-1.05 2.9-2.32 5.6-1.5 2.7.8 9.1 4.98 14.1 14.15 5 9.3 2.8 18.35-1.4 19.4-3.7 1.04-4.64 1.27-10.9-.24-6.17-1.5-8-3.14-10.8-4.18-2.8-1.07-5.8-1.4-8.5.56-2.8 2.1-7.44 5.8-1.86 18.34 5.33 12 9.27 20.9 19.37 31a120.9 120.9 0 0 1-7.9-10.3l-3.5-4.67z" fill="url(#k)"/><path fill="url(#l)" d="M122.25 38.3l-.23.13s.12-.12.23-.12z"/><path fill="url(#m)" d="M251.94 509.56c.7.12 1.4.12 2.2.23-.58-.2-1.74-.3-3.13-.5.4.1.7.1 1 .2z"/><path d="M131.08 27.86c-3.6 1.98-3.83-.1-6.27.12-2.4.23-5.6 1.16-8.8 5.8-3.1 4.53-3.2 10.45 1.8 7.78 0 0 2.5-2.32 4.5-3.13.5-.23 1.3-.7 2.2-.93l.8-.7s2.3-2.67 5.9-1.85c3.6.8 6.2-.7 6.2-.7 5.6-4.18 9.2-12.07 9.2-12.07l5.4-11.03-4.5-7.32s-3.8 8.24-7.6 13.93c-3.85 5.7-3.6 7.2-8.7 10.1z" fill="#9FA2A3"/><path d="M107.74 87.42s-2.32 10.45 6.4 8.83h.1-.46c-.12-2.8.8-7.9 2.67-12.43 1.86-4.52 5.92-12.42 5.92-12.42s5.8-9.87 8.13-15.9c2.32-6.04 2.32-10.7 2.32-10.7s-4.4-5.56-5-6.5a4.65 4.65 0 0 0-1.5-1.26c-.35.1-.58.23-.82.23.58 0 1.16.1 1.5.58 1.17 1.74-2.2 11.26-2.2 11.26s-2.9 6.9-8.58 16.8c-5.58 9.8-8.48 21.6-8.48 21.6z" fill="#9FA2A3"/><path d="M208.75 492.15l.93.1c-.7-.68-1.63-1.26-2.8-1.84 1.05.6 2.68 2 1.75 3.8-1.4 2.3-.23 2.6 2.67 4.8l.35.3c-.8-.57-1.4-1.26-.8-1.96a2.8 2.8 0 0 0 .34-2.8l-2.5-2.2z" fill="url(#n)"/><path d="M132.93 453.83c-6.85-6.5 8.83-.7 8.83-.7s3.36 1.4 1.86-2.08c-1.4-3.14-7.55-10.8-14.05-17.77l.8.82s12.9 14.97 12.08 16.37c-.92 1.4-6.15-1.74-6.15-1.74s-7.78-3.02-6.62.7c.82 2.66 5.8 6.96 8.48 9.05a76.25 76.25 0 0 1-5.23-4.65z" fill="url(#o)"/><path d="M146.98 464.75c2.32 1.4 5 2.78 7.55 3.7 0 0 4.53 1.64 7.3-.57 2.8-2.2 2.8-3.36 6.86-1.4 0 0 7.6 3.84 13.1 8.02 5.4 4.06 19.6 12.9 24.2 15.44-4.2-2.32-20.5-13-25.6-16.5-5.1-3.47-14.2-9.4-18.28-8.1-3 .92-2.67 2.2-4.4 3-1.87.94-3.85.35-8.26-2.08-.93-.58-1.85-1.05-2.67-1.5z" fill="url(#p)"/><path d="M218.27 501.78c2.1.58 3.7.35 4.3.24-3.72.23-7.44-1.5-7.44-1.5l-.93-.36c1.28.7 2.8 1.27 4.07 1.62z" fill="url(#q)"/><path d="M242.42 505.73s-7.43-.93-10.68-.93c0 0-.24.35 1.27.93-.1-.12-.1-.23 1.1 0 1.6.35 11.2 1.28 13.6.93 2.5-.35-.4-1.5-.4-1.5s-.4-.24-1.5-.6c-1.8 1.4-3.2 1.17-3.2 1.17z" fill="url(#r)"/><path d="M23.92 339.7c.46.82 1.04 2.45 2.55 3.96.8.92 1.5.34.93-2.9a27.26 27.26 0 0 1-2.55-2.1c-.6-.1-1.4-1.62-1.4-1.62s-2.55-4.65-1.5-1.28c2.2 6.73 8.82 21 8.82 21l7.66 13.6a418.42 418.42 0 0 1-13.47-27.63c-.93-2.1-1.5-3.83-1.04-3.02zM6.72 177.86l.25-3.6c.1-.7.34-1.27.46-1.97 3.95-15.4 5.92-21.3 7.9-25.7 1.97-4.4 2.2-1.4 2.2-1.4s0 1.1.7 1.3c.7.1 1.74-1.8 2.67-4.6.93-2.8 3.36-9.7 3.83-12.2.7-3.9-.23-2-.58-2-.58 0-.7-.5-.58-1.8 0 0 2.1-11.7 16.95-36.2 1.04-.96 1.74-1.77 2.55-2.47-.35-.24-.23-1.5 0-1.75A62.7 62.7 0 0 1 45.4 82l-.47 2.8S34.7 98.56 27.86 116.2c0 0-1.85 4.64-1.97 6.03-.2.82-.6 4.07.8 3.25l.3-.23a97.2 97.2 0 0 1-3.4 12.77c-1.6 4.88-3.2 9.06-4.7 11.5-.5.34-.6-.12-.8-1.16-.3-1.05-.6-1.05-.6-1.05-1.1 0-1.78 1.2-2.2 2-.28.4-.5 1.1-.5 1.1s-2.57 5.1-7.1 23.5c-4.5 18.4-4.64 33.9-4.64 33.9s-.46 7.2-1.16 7.6c-.7.36-.6-.34-.6-.34s-.2-.25-.56.2c0 0 .1-4.16.22-4.85 0 0 .2-1.2.7-1.2.44 0 0 .7.2.9.2.26.44.14.44-.9a241 241 0 0 1 3.4-29.26l.8-2zm-6.37 51.2s.1 1.17.23 1.98C1.04 233 1.63 233 1.63 233c0-.57.46-1.5 1.04-2.54v2.1c-.23 3-.12 13.57 1.16 23.56 1.28 9.98 1.97 18.46 2.2 19.85.12 1.4 2.8 18.1 5.7 28.1 1.62 5.34 2.32 7.43 2.67 7.9v.22s.58 1 1.97 1.7c0 0 .58-.6.58-2.3.12.1.23.3.35.6-.47 1.4-.58 2.3-.58 2.3-.23-.3-.35-.1-.23.2.3 1.9.1 3.7-1 1.5s-4.4-10.1-7.2-23.5c0 0-2.9-14.7-4.4-28l.2-.6-.4-.5c-.1-1.4-.3-2.68-.4-4.07 0 0-1.4-20.2-1.28-25.2.1-5-.48-.1-.48-.1s-.1 1.14-.1 1.83c0 .6-.6 2-.7-1.4-.25 1.52-.6-4.3-.6-5.8zM134.2 8.48l-2.9-4.18-.34-.35s-.7-.7-5 .23l-.57.12s2-.47.9 1.04c-1.2 1.63-3.2 2.8-6.5 6.4-3.4 3.6-2.4 4.4 0 3.7 2.2-.8 6.5-2.9 14.4-6.96zm-8.58-4.3h-.23.2z" opacity=".1" fill="#232323"/><path d="M128.52 7.55c1.74-1.5 2.32-2.67 2.56-3.5l-.12-.1s-.7-.7-5 .23l-.46.12c.47-.12 1.63-.24.7 1.04-1.16 1.63-3.13 2.8-6.5 6.4-3.37 3.6-2.32 4.4 0 3.7.58-.23 1.28-.46 2.2-.8.93-1.87 3.37-4.3 6.62-7.1zM458.48 20.2l-1.05 1.28s.7.46 1.16.8c0 0 .1 0 .1.13l-.4-.3c-.1-.6 0-1.3.1-1.6v-.2s.3 0 .8.2l-.8-.1z" opacity=".1" fill="#232323"/><path d="M343.2 495.5s9.28-1.03 17.87-3.82c8.6-2.78 10.68-5.45 10.33-7.43-.23-1.27-2.2-1.62-5-1.27 1.52-.12 2.8.23 1.98 1.85-1.74 3.25-4.76 4.3-4.76 4.3s-1.5 1.04-4.87 2.1c-4.4 1.38-9.87 2.08-12.9 2.43-3.82.46-2.9-.24-8.12 1.62-.1.12-.23.12-.34.23-1.7 1.3 5.9 2.8 5.9 2.8s7.2 2 18 1.3l.3-.1c1.5-.4 2.9-.9 4.4-1.4-11.2 2.6-18.4.8-20.6.6-2.5-.3-4.3-.8-4.9-2-.7-1.1 2.5-1.1 2.5-1.1z" opacity=".53" fill="#FFF"/><path d="M347.25 21.94l3.95.47c7.9-2.2 14.63-4.3 14.63-4.3s6.97-2.2 10.45-3.4a41.9 41.9 0 0 1 9.17-2.2c3.14-.6 7.2-.8 9.4-.7 2.2 0 2.9.7 2.9.7s.94.7 1.4 1.5c.47.8 4.06 10.5 16.37 11.1 12.3.6 12.42-6 11.38-8.1-1.28-2.3-5-4.74-5-4.74s-5-3.13-6.03-4.64c-1.05-1.5.23-2 .58-2.1.35-.1 13.47-2.8 15.1-3.4l.1-.1-3.13-.95s-.7.7-4.3 1.74a58.93 58.93 0 0 1-9.63 1.7c-2.8.4-2.8 1.3-2.8 1.3l-4.9 7.8s-.1.58.2 1.6c.3 1.17 2.2 2.45 2.2 2.45s3.1 2.3 5.4 3.82c2.3 1.5 2.2 2.1 2.2 2.1-6.2.6-7.8-.2-10.3-1.5-2.5-1.26-4.2-4.05-5.1-6.02-1-1.97-2.9-3.6-2.9-3.6-3.3-1.85-9.5-1.85-15.6-.8-6.2 1.04-14.6 3.94-16.2 4.52A247 247 0 0 1 354 20.23c-3.85 1.05-6.75 1.98-9.08 2.56-2.34.56-18.94 5.55-25.1 7.4a94.5 94.5 0 0 1-10.23 2.55c-9.3.96-12.06-.7-12.06-.7-1.63-.7-1.4-2.9-1.4-2.9v-6.3s-.1-2.44-1.97-3.37c-1.87-1.07-4.3-1.4-8.83-1.65-4.53-.23-9.3.24-11.5.7-2.2.46-6.6 1.74-9.75 5.22-3.17 3.5-2.7 6.2-2.7 6.2s.22 3.7.45 6.6a4.2 4.2 0 0 0 2.7 3.6s-4.1 2.9-16.88 6.63C235.52 50.33 227.4 51 227.4 51l3.7 1.4s30.16-5.57 39.33-14.4c0 0 3.5-1.6.1-4.87-3.37-3.27-5-4.2-5-4.2s-2.2-1.27.12-4.3c2.32-3 5.1-4.4 7.42-5.1 2.33-.7 9.64-1.4 16.14-.46 0 0 2.7.23 2.6 2.2a72.76 72.76 0 0 0-.44 5.7c0 .9.13 2.8 2.2 4.64 2.1 1.9 6.06 2.6 6.06 2.6s6.95 1.26 15.66-1.2c8.7-2.4 20.1-6.24 29.96-8.9l1.8-2.2z" opacity=".1" fill="#232323"/><path d="M265.4 34.13c1.75 1.16 2.67 1.16 2.8 2.33.34 1.85-3.14 3.48-3.14 3.48v-.12s-2.33-.8-2.67-3.7c-.3-2.8-.5-6.63-.5-6.63s0 1 .2 1.3c.7 1.1 1.1 1.8 3.2 3.2z" fill="#616161"/><path d="M452.8 434.8l2.43.92c6.03-3.36 8.24-4.4 9.75-5.34 6.5-3.83 14.28-8.6 16.37-10.2 0 0 4.18-2.92.7 1.03a109.4 109.4 0 0 1-5.34 5.6s-3.4 3.5-2.5 4.3c0 0 1 1.4 6.6-3.8 5.7-5.1 11.9-12.4 12.6-13.4.7-1 .8-1.6.8-1.6s.6-1.12 1.5-2.2c.8-.8 7.6-8.2 11.1-11.7a191.6 191.6 0 0 0 4.4-6.02 1214 1214 0 0 0-13.7 14.74s-3.9 4.2-5.2 5.8c-1.3 1.64-1.3 2.57-1.3 2.57s-.7 1-2.2 2.9c-1.5 1.7-6.82 6.5-6.82 6.5s-3.12 2.53-4.17 2.64c-1.04.14 2.33-3 2.33-3s3.2-3.5 5.3-6.15c2.1-2.8.8-2.57.8-2.57s-1.03-.23-5.44 2.56l-7.54 4.74-15.6 8.95c-6.1 3.47-19.9 10.56-27.66 13.7-7.9 3.24-11.98 3.94-11.28 2.9a17 17 0 0 1 2.55-2.56s2.27-2.2 2.27-4.4c0 0 .7-3.27-8.82-1.3s-18.2 6.6-18.2 6.6-14.15 6.5-10.8 10.45c0 0 .7 1.02 3.5 1.95 2.9.97-5.1 3.4-5.1 3.4-7.56 2.44-13.36 3.6-20.68 5.1-10.8 2.2-19.64 4.2-23 4.9l-1.4.34s-6.73 1.65-17.76 5.95c-11.16 4.3-32.98 7.9-32.98 7.9s-14.1 1.6-15.4 3.5c-1.28 1.83.93 2.8.93 2.8s2 1.24 9.2 1.5c0 0 2.4 0 2.5.2.12.24.24.35-1.27.82-1.63.46-4.76 1.74-15.33 3.13-10.7 1.4-10.45-.34-10.45-.34s0-.43.44-1.13 0-2.1-1.63-2.9c0 0-2.35-1.5-10.1-1.4-7.8 0-23.25.13-37.76-.8-13.15-.8-30.8-3.02-33.7-3.7 0 0-.7-.13-1.17-.7-.5-.47-3.6-2.33-6.4-4.07-2.9-1.76-11.4-5-11.4-5s-11.2-4.3-10.7-2.9c.1.33.7.8 1.5 1.4 1.96 1.02 3.8 2.07 5.8 3.1 0 0-4.07-2.2-3-2.2a7.9 7.9 0 0 1 2.4.57s6.74 1.85 10.8 3.83a58.12 58.12 0 0 1 7.8 4.5s5.1 3.1 12.77 4.1c7.4 1.1 17.5 2.1 20.75 2.5l3.24-1.5 2.42 1.97 14.15.8s16.4.6 25.44-.1c4.1-.36 2.8 1.73 2.8 1.73s-1.16 1.95 1.16 2.9c0 0 4.3 2.42 18.47.8 14.17-1.6 17.3-4.77 17.3-4.77s1.63-1.5-1.97-2.2c-2.8-.6-2.8-.26-6.5-.7-3.73-.38-5.47-1.2-3.03-1.77 2.47-.56 6.5-.9 6.5-.9s12.45-1.74 22.4-4.3c0 0 10.7-2.55 21.28-6.26a109 109 0 0 1 10.42-3.2l2.43-3.6 3.6 2.1c.35-.13.58-.13.58-.13s12.8-3.05 18-3.86c5.37-.94 17.4-3.5 22.55-6.05 5.1-2.44 7.65-4.4 8.23-5.92.57-1.5-2.2-2.3-2.2-2.3s-3.26-.8-2.8-1.86c.47-1.13 1.63-2.1 6.73-4.4 5.1-2.2 11.4-4.74 17.76-6.25 6.4-1.5 4.07 1.05 4.07 1.05s-3.87 3.8-4.3 5.3c-.5 1.5.1 1.62.7 1.85.43.26 3.6.1 5.65-.32 2.1-.6 19.13-7 29.5-12.9.2-.1.42-.36.8-.48l2.2-3.6z" opacity=".17" fill="#FFF"/><path d="M39.13 372.56l.92.7c-.58-.58-.92-.8-.92-.8s.1 0 0 .1c0-.1 0 0 0 0z" opacity=".68" fill="url(#s)"/><path d="M496.67 328.1l-2.08-.12c-10 8-12.9 10.68-20.9 16.26 0 0-9.1 6.73-19 12.07-10 5.4-21.6 4.8-21.6 4.8s-3.2-.3-1.6-2.6c1.5-2.3 3.5-7.9 4.3-10.6.8-2.9 2.3-10-3.5-12.3-5.8-2.3-16.6 1.06-16.6 1.06s-25 6.6-35.2 17.76c-9.9 10.9-1.7 15.65-1.7 15.65s3.8 2.66 7.63 4.06c3.6 1.3 2.9 2.46 2 3 0 0-11.17 7.1-24.3 10.9 0 0-18 5.6-35.5 6.67a1487.97 1487.97 0 0 1-24.7 1.5l-2.2 2.1-4.2-1.4a283.1 283.1 0 0 0-30.87 5.34c-14.53 3.5-28.2 6.27-38.1 12.66 0 0-7.3 4.9-3.13 9.66a28.1 28.1 0 0 0 8.6 6.75s2.58 1.2 2.58 1.9c0 .9-.12 1.73-2 2.77 0 0-7.64 4.5-22.62 4.74-14.97.26-21.6.15-26-3.8-3.6-3.22.93-10.2.93-10.2s1.8-3.35 0-8c-1.9-4.64-12.2-4.76-12.2-4.76l-14.4-.34c-17.1-.5-39.6-2.36-49.6-3.6h-.25v.9l-3.94-1.64c-6.26-1.17-17.87-3.73-22.52-5.93-4.17-2.1-6.37-1.74-5.9-6.04.6-4.3-4.2-10.1-4.2-10.1s-6.5-7.06-12.4-11.5c-5.9-4.4-8.33-3.1-8.33-3.1s-2.7 1.4-.26 7.2c2.46 5.7 4.8 7.8 4.8 7.8s1.16 1.15.46 1.5c-.7.35-2.68-1.16-4.3-2.67-1.4-1.15-10.45-9.63-13.6-12.53l.57 2c.12.1.24.35.24.47A55.27 55.27 0 0 0 53 388.7c8.6 6.76 8.6 4.1 8.6 4.1s.4-2.36-1.6-4.8c-1.97-2.43-5.1-7.54-4.4-9.4.8-1.86 1.73-1.74 1.73-1.74s.7-.23 3.25 1.63c2.56 1.9 8.25 5.9 11.15 9.4 2.8 3.4 2.67 6.5 2.67 6.5s-.58 3.1 2.55 6.5c3.02 3.3 9.52 9.4 32.28 13h.35l1.04-3.1 3.14 3.6c19.85 2.9 30.65 3.1 30.65 3.1s26 .9 33 .9 5.7 3.7 5.7 3.7-.3 2-1.3 3.6c-.8 1.6-2.9 7.5-.8 10.7 0 0 3.3 7.9 24.2 8.42 0 0 18.4 1.53 31.1-3.8 12.8-5.24 1.3-12.55 1.3-12.55s-4.4-2.68-6.3-4.07c-1.7-1.3-1-2.7-.7-3.6.4-.95 1.7-2 3.2-2.7 1.5-.7 6.9-3.6 29.6-9.5 22.8-5.9 36.4-6.5 36.4-6.5h.36l1.84-3.6 4.75 3c4.05-.33 9.3-.7 13.92-.9 9.3-.5 23.9-2.57 32.4-4.43 8.46-1.84 21.35-5.8 30.87-10.8 9.5-4.97 9.96-8.34 9.96-8.34s1.86-2.68-2.2-5.47c-3.95-2.9-5.7-2.1-9.18-5.7-3.5-3.6 3-8.94 3-8.94s3.36-4.75 22.17-11.95c18.8-7.2 21.9-4.75 22.84-4.05.93.8 1.04 3.4.7 5.1-.35 1.76-2.68 8.03-3.95 11.4-1.3 3.25-1.77 7.8 3.33 8.8 5.16 1.07 12.2 0 18.98-2.4 15.9-5.7 20.7-12.67 47.07-31.8.1 0 .1-.14.1-.14v-3.93l3.84.6c10.9-8.7 21.36-19.76 21.36-19.76s6.96-6.96 10.45-13c3.26-5.7.1 4.9.1 4.9s-1.72 8.35 1.07 11.5c2.2 2.43 8.6-4.4 8.6-4.4s3.83-4.3 5.34-11.4c2.2-10.3 1.05-12.4 1.05-12.4s-1.4-2.1-.5-4.65c.8-2.56 6.4-16.84 10.9-22.07l2.8-3.13V254l-1.3-3 1.65-2.77s-1.5 1.72-7.8 11.94c-7 11.5-8.16 20.76-8.16 20.76s-.7 3.6-.33 5.7c.35 1.98 1.05 2.9 1.05 3.5a24 24 0 0 1-2.8 9.74c-2.4 4.54-4.5 5.7-4.5 5.7s-4.2 3-4.76.8a12.3 12.3 0 0 1-.24-5.33c.25-1.4 1.64-8.7 1.4-11.37-.23-2.7-2.66-.6-2.66-.6l-1.6 1.96c-1.06 1.26-7.1 9.03-9.4 11.7-5.48 6.4-10.47 10.9-23.7 21.7l-.1.1-1.77 3.35z" opacity=".43" fill="url(#t)"/><path d="M4.76 265.17l.58 5.34a75.23 75.23 0 0 0 5.92 6.5c5.92 6.2 7.9 2.4 7.9 2.4s1.4-3.8-.35-10.9c-1.7-7.1-1.4-11.2 1.8-11.1 3.2.1 12.4 2 15.3 9.7 0 0 1.2 3.6.1 8.14a29.14 29.14 0 0 0-.1 12.66c.8 3.9 4.2 7.74 8.2 10.9 4 3.1 15.1 8.45 26.2 9.15 10.9.7 14.4.14 14.4.14l4.07-4.2.7 3.7c4.5-.48 11.6-1.3 19.96-2.2 13.94-1.5 23.35-3 31.94-1.77 8.7 1.3 11.5 8.03 11.5 8.03s.54 1.73-1.4 3c-2 1.3-4.2 3-5.26 4.9-1.04 1.84-2.32 5.9.93 11.24 3.12 5.37 11.82 8.86 19.14 7.9 7.3-.8 18.34-3.7 24.96-5.3 7.1-1.86 13.36-5.34 14.17-10.9.8-5.6-8.47-12.67-8.47-12.67s-4.55-3.4-5-4.2c-.6-.8.57-1.08.57-1.08s5.2-1.26 7.42-2.3c2.2-1.05 8.36-3.6 18.46-6.74s30.9-6.9 30.9-6.9 11.5-1.82 25.9-3l3.5-3.8 2.66 3.5 6.8-.4c19.74-.7 29.5-3.04 39.94-5.36 10.44-2.32 25.2-10.9 27.4-12.54 2.2-1.6 6.73-3.6 7.65-10.76.9-7.2-7.55-11.85-7.55-11.85s-6.73-3.6-8.12-5.1c-1.4-1.6-.1-3.15-.1-3.15s3.86-8.2 16.05-13c12.2-4.73 20.3-6.13 25.47-6.6 5.1-.56 6.82 1.3 7.52 2.2.7.8.7 2.7.1 4.55a55.97 55.97 0 0 1-3.6 7.68c-1.05 1.98-2.9 6.74-1.75 8.95 1.2 2.2 4.67 3.24 9.2 2.42 4.5-.8 16.48-4.18 26.9-8.6 10.47-4.4 28-12.87 28-12.87l.13-.1.48-4.07 4.06 1.6c5.54-3.1 15.2-8.7 22-14.5a942.28 942.28 0 0 0 23-20.1c2.58-2.3 4.9-4.16 7.2-4.04 2.34.1 4.08 1.75 5.48 7.9 1.4 6.16 1.72 11.27 2.3 14.3.7 3 1.6 6.5 5.1 7.2 3.6.7 8.36-2.44 10.1-3.95 1.86-1.5 5.1-6.5 4.87-13.14 0 0 .33-8.8-4.2-17.3 0 0-1.98-3.35-2.68-4.3-.44-.7-.8-1.25 0-2.9a15.26 15.26 0 0 1 5.83-6.4c2.48-1.36 4.9-1.7 6.3-2.2 0 0 1.5-.32 3.48-1.36l-.7-2.35 1.67 1.75c2.2-1.27 3.6.24 3.6.24l-2.2-2.8.7-2.67s-1.66-.9-3.86-.42c-2.1.47-2.3 1.98-5.6 2.56-3.23.6-7.1 1.8-10.7 7.3-3.7 5.6 0 12.6 0 12.6s2 3.26 2.9 5c.97 1.75 5.96 12.2.27 19.86 0 0-3 3.6-8.33 4.74-4.75 1.04-3.47-4.53-4.05-7.43 0 0-.7-12.53-6.86-19.73-5.36-6.3-15.1 4.83-20 8.54-4.53 3.5-17.77 17.2-36.8 27.2l-2.8 4.9-1.73-2.57c-9.14 4.56-29.8 14.66-43.4 19.4 0 0-10.3 4.2-14.5 4.3 0 0-.92 0-.22-1.03s1.5-1.75 2.8-4.07c1.25-2.3 3.6-7.44 3.6-12.9 0-5.34-6.18-10.56-14.77-9.64-8.6.9-16.82 3.25-26.7 7.1-9.86 3.8-18.45 11.93-19.6 18.55-1.14 6.7 6.05 10.56 6.05 10.56s8.14 4.14 9.3 6.34c1.05 2.2.23 4.3.23 4.3s-.7 2.2-4.3 4.3c-3.6 2.07-13.33 7.07-13.33 7.07s-12.2 6.76-30.65 8.4c0 0-16.88 1.4-26.6 1.95h-.38l-3.04 2.9-3.24-2.42c-9.06.7-19.5 2-19.5 2s-23.7 3.33-45.3 10.1c-18.4 5.7-22 8.8-22 8.8s-3.93 3.25-.7 8c0 0 1.9 3.03 5.7 5.93 3.84 3.03 6.86 5.8 6.4 7.33a3.6 3.6 0 0 1-1.63 2.1s-5.32 4.76-26.92 8.36c0 0-13.94 2.66-18.23-1.5-4.3-4.2-2.4-7.1-2.4-7.1s.24-.9 3.37-2.9c0 0 5.2-3.26 3.6-9.5-1.64-6.3-11.74-14.07-22.66-13.95 0 0-12.63 0-45.14 4.2h-.1l-1.2 2.8-3.36-2.2a78.7 78.7 0 0 1-6.2.6c-5.57.35-13.7-.35-23.7-3.25-10.1-3.04-16.36-8.5-17.2-11.75-.55-2.3.26-5.43.26-5.43s1.85-7.3.7-13.22c-1.18-5.9-3.27-10.64-8.95-14.12-5.8-3.5-9.05-2.9-9.05-2.9s-5.25-.83-5 8c.2 8.82 1.25 12.42 1.25 12.42s1.05 3.1-.58 3.45c-1.6.35-4.06-1.97-4.06-1.97s-5.57-5.1-8.94-9.3l.23.36-1.2 2.9 1.5 2.1.4-4.2z" opacity=".31" fill="url(#u)"/><path d="M500.4 62.35l1.03 4.64s-3.13 1.7-9.28 3.3c-6.16 1.6-12.08 4.4-12.08 4.4s-4.87 1.6-3.02 5.6c1.86 3.9 4.65 5.9 4.65 5.9s3.95 3.8 4.06 6.7c.12 2.9-1.04 4.1-4.18 5.9-3.13 1.7-5.92 2.1-5.92 2.1s-7.43 1.2-11.03-2.1c-3.6-3.5-4.3-9.2-4.3-9.2s-.23-4.9-6.38-6.88c-6.04-2.1-13.58 2.3-13.58 2.3s-5.8 3.14-12.08 7.2c-6.3 4.07-18.2 9.06-25.6 11.6l-.8 3.85-4.2-2.1-18 6.17s-13.8 5.1-23 6.4c-9.1 1.24-11.2-.15-12.3-1.3-1.3-1.3.2-5.58.2-5.58s3.7-7.55 1.9-11.5c-1.77-3.95-13.5-5-13.7-5-.26 0-12.8-1.5-24.5 5.12-10.47 5.8-11.87 9.03-11.87 9.03s-3.37 5.23.6 10.34c4.4 5.8 10.3 6.25 10.3 6.25s5.6.5 6.97 2.1c1.3 1.6.5 3.5.5 3.5s-1.86 5.1-12.3 7.2c0 0-17.54 5.1-50.3 9.73l-3.23 3.13a534.25 534.25 0 0 0-58.2 10.9c-13.34 3.5-14.03 7.3-14.03 7.3-2.9 4.54.8 6.86.8 6.86s4.56 1.5 5.6 6.6c1.05 5-4.3 8.93-4.3 8.93s-6.4 5.33-16.02 6.96c-9.63 1.64-13.23 2-18.9-2.54-5-3.94-1.64-10.2 1.73-12.64 3.36-2.45 5-5 5.45-6.17.45-1.18.2-2.1.2-2.1l-3.22-2.9c-11.04-7.3-54.46.34-54.46.34l-7.4 1.6-3.74-2.4s-12.63 3.35-26.9 3.24c-15-.14-6.98-11.75-6.98-11.75s3.5-6.15 4.2-9.75c0 0 1.3-9.63-7.8-8.93-9.04.6-10.8 8.5-10.8 8.5s-.56 4.42-.45 7.67c.12 3.23 0 10.2-4.06 14.14-4.07 3.96-8.48 2.8-8.48 2.8s-7.3-3.25-8.84-3.95a4.9 4.9 0 0 0-4.17-.35c-.14 0-.25.1-.37.1L7 177.9l.1-3.5c-.8.94-1.5 2.34-1.5 2.34l.44 1.86-1.4 3.16v.22s.46-1.04 1.3-1.97L7 178l-.2 1.3c.34-.2.57-.3.92-.44 1.5-.1 3.5.92 3.5.92s6.26 3.35 9.05 3.93c2.77.6 4.86-.3 6.6-1.6a22.78 22.78 0 0 0 7.7-10.1c1.24-3.6 1.5-13.2 1.5-13.2v.13s0-2.35-.1-2.9c-.16-.6-.5-3.05 1.12-4.3 1.5-1.3 2.5-1.9 6.2-2 3.7-.1 4.85 2.1 4.85 2.1s1.27 1.73 1.27 2.9-.35 1.85-.35 1.85-2.1 3.48-2.8 5.1c-.7 1.75-3.47 7.3-2.66 11.97.8 4.66 8.14 6.87 8.14 6.87s5.8 1.4 14.18.1l17.2-2.8 3-3.47 1.12 2.66c4.4-.8 11.84-2.1 19.73-2.75 12.75-1.24 26.33-1.4 32-.7 0 0 2.7.4 2.2 1.3-.3.7-2.3 2.36-2.3 2.36s-.7.46-3.6 3.7a14.05 14.05 0 0 0-3.8 9.2c-.15 2.77 2.9 11 13.3 13.2 10.48 2.2 22.55-1.86 22.55-1.86s7.9-1.76 15.34-9.3c7.8-7.8.1-17.2.1-17.2s-1.16-1.6-3.6-2.44c0 0-1.04-.27-.46-.96.6-.7 2.1-3.6 7.58-5 5.45-1.4 21.94-6.6 61.06-11.7l1.5-3.4 4.9 2.58a432.43 432.43 0 0 0 43.2-8s16.74-3 20.34-9.04c1.98-3.6 5.7-8.5-.23-13.5 0 0-.7-.94-4.4-1.75-3.7-.83-6.5-1.4-9.65-3.6-3.16-2.23-3.04-4.78-3.04-4.78s-.23-2.43 4.76-5.22c0 0 4.63-3.48 14.04-6.38 9.3-2.9 20.1-1.65 20.1-1.65s4.52.5 3.82 3.6c-.8 3-3.38 8.12-3.5 10.8-.14 2.7.1 5.7 5.2 7.8 5.1 2.1 12.54 1.5 12.54 1.5s7.7-.37 20.1-4.4c12.55-4.1 25.3-8.7 25.3-8.7L402 108l5.32.94a251.6 251.6 0 0 0 12.66-5.1c9.97-4.42 14.62-8.25 19.15-10.8 0 0 10-6.16 15.9-6.05 0 0 1.4 0 1.54 1.7.13 1.8.6 4.5 1.17 6a17.7 17.7 0 0 0 15.1 11.3c11.03 1.23 15.68-6.2 15.68-6.2s3.7-5.8-2.67-12.65c0 0-5.32-5.7-5.44-6.16 0 0-.5-.8 1-1.3 1.5-.45 17.4-4.86 23.6-7.65 0 0 .1 0 .2-.1l-1.5-2.68 2.9 1.96c1.2-.6 2.5-1.4 3-2.2 1-1.5-.3-4.45-.3-4.45-.7-1.06-1.5-2-2.2-3l-3.4-1.4-.3.2-2.9 1.74" opacity=".34" fill="url(#v)"/><path d="M42.96 87.54l-1.63 2.44c.7-.12 1.4-.35 1.4-.35s2.2-.35 6.15.7c5.1 1.4 11.38-2.8 11.38-2.8s4.76-2.9 7.08-7.65l1.97-5.58s1.7-5.34 6.1-7.08c0 0 1.8-.93 4.6-.93s2.2 1.9 2.2 1.9-.3 1.2-3.2 5c-2.9 3.7-3.7 6.6-3.7 6.6s-1.8 3.9 1 5.2c0 0 1.3.8 5.26-.5 3.83-1.3 16.6-4.68 24.5-5.8l5.45-2.8a376.7 376.7 0 0 0-3.36-2.46c-13.14 2.5-23 5.5-26.4 6.8-3.36 1.3-3.36.47-3.36.47-1.16-1.4 2.44-5.67 2.44-5.67s3.6-4.9 4.98-9.4c1.4-4.55-4.88-3.96-4.88-3.96-4.2.7-7.2 2.64-10.7 6.8a27.9 27.9 0 0 0-4.88 10C65 80 64.3 81.3 64.3 81.3s-.47.9-2.44 1.75a57.57 57.57 0 0 1-6.74 2.2s-3.03.2-5.1-.8c-1.3-.7-5 .2-5 .2l.5-2.78-.48-.24-3.7 2.1c-.6 1.04-1.3 2.1-1.87 3.13-.33.8-1.03 2.64.25 2.8h.9l2.4-2.22zm28.56-39.36s1.86-1.5 1.86-.1c0 1.38-1.86 3.82-1.86 3.82s-.58.7-.93.7c-.4 0 .1-2.56.9-4.42zM56.66 66.53s-2.1 2.55 0 2.9l4.64-4.53a2.5 2.5 0 0 0-.8-.58c-.13-.12-3.03 1.28-3.84 2.2z" opacity=".1" fill="#232323"/><path d="M427.25 470.32s-9.64 4.4-18.7 8.82c-9.05 4.42-12.42 6.27-12.42 6.27s-.46.3-.1.5c.33.1 0 .4 0 .4-4.66 2.2-14.87 5.9-14.87 5.9s-.93.4-.82.1c0-.2 1.05-.5 1.05-.5s2-.8 1.5-1.1c-.6-.35-6.7 1.63-6.7 1.63s-10.8 3.35-15.9 4.86a800.2 800.2 0 0 1-15.2 4.06 632.87 632.87 0 0 1-23.8 5c-3.2.57-2.3.34-2.3.34s2.6-1.07-2.3-1.3c-6.3-.25-13 .56-20 1.6-6.9 1.04-6.5 1.74-6.5 1.74s-.3.8 3.9.8c4.1-.1 2.9.25 2.9.25-7.7 1.1-23.1 1.23-23.1 1.23 2.5.1 5.1.1 7.5.1 3.3 0 6.7 0 10.1-.14 1.22-.13 8.1-.8 10.5-1.4 2.68-.58-.46-.58-.46-.58l-4.07-.14s-4.3-.13-.23-.94c4.1-.7 10.1-1 13.16-1.4 4.53-.42 3.03.6 3.03.6l-.27.1s.1.5 2.9.4c2.8-.1 26-4.4 39-8.26 12.9-3.83 22.64-6.97 22.64-6.97s.8-.4.35.1c-.46.44-2.55 1-2.55 1s-3.26 1.65 4.63-.6l1.03-.3a305.84 305.84 0 0 0 20.1-8.5c.1-.1.7-.8-.1-.55-.94.36 0-.34 1.03-.7 1.04-.34 12.53-6.37 18.6-8.8a60.6 60.6 0 0 0 6.3-3.6z" opacity=".3" fill="#FFF"/><path d="M4.76 265.17l.58 5.46a75.23 75.23 0 0 0 5.92 6.5c5.92 6.15 7.9 2.32 7.9 2.32s.34-1.16.46-3.25c-.23 1.16-1.16 2.2-4.3-.35a54 54 0 0 1-5.92-5.8 71.86 71.86 0 0 1-5.57-6.16l.23.3-1.16 2.9s.35.6 1.5 2.1l.36-4.1z" fill="url(#w)"/><path d="M18.8 268.42c0-.1-.1-.35-.1-.46.1.46.1 1.04.22 1.5 0 0 .47 2.2.7 4.2a38.9 38.9 0 0 0-.8-5.24z" fill="url(#x)"/><path d="M547.87 155.1l1.63 1.75c2.2-1.28 3.6.23 3.6.23l-2.1-2.67c-2.08.5-6.03 1.4-12.3 3.4 0 0-7.43 3.3-8.82 8.5a12.7 12.7 0 0 0 .7 4.9c4.18 7.9 5 9.2 5 9.2 2.77 6.1 2.3 11.1 1.38 15.6-1.04 5.1-6.5 9.2-9.87 10.1-3.4 1-5.3 0-6.3-2.6-1.1-2.7-.8-4.66-2.5-12.9-1.5-8.25-3.6-12.08-6.8-13.13-3.18-.9-7.2 2.58-9.68 4.55-2.45 1.9-13.37 11.87-13.37 11.87s-12.75 11.5-31.7 22.15c-18.8 10.7-42.35 18.8-42.35 18.8s-15.7 6.06-19.4 5.48c-3.83-.47-2.9-3.95-1.6-5.93a64.1 64.1 0 0 0 4.2-8.5c1.73-4.17 1.15-9.16-2-10.8-3.12-1.73-6.84-2.54-19.37.48-12.54 3.14-17.65 5.9-21.13 8-3.6 2.1-8.7 6.87-10.1 9.4-1.5 2.7-3.1 5.48.7 8.7 3.85 3.26 4.2 2.68 8.6 5.8 4.4 3.15 5.1 3.5 5.36 8.1.22 4.57-4.2 7.47-4.2 7.47s-17.18 11.5-36.45 15.34c-12.9 2.53-37.7 3.46-37.7 3.46s-7.3-.23-29.7 3c-22.4 3.24-37.4 8.35-42.73 10.2-5.2 1.86-12.9 4.4-17.3 6.5-4.4 1.97-2.1 4.87-1.14 5.57.9.7 6.5 5.93 8.2 7.44 1.75 1.5 8.14 7.08.6 11.6-7.43 4.54-19.85 6.97-19.85 6.97s-17.2 3.6-22.77 1.3-6.6-4.3-8-7.4c-1.76-3.9-.13-6.94 4.4-9.84 4.3-2.65 2.55-6.6 2.55-6.6-5.46-10.42-16.83-11.35-26.35-10.66a699.08 699.08 0 0 0-41 4.06c-16.85 2.2-25.1-.36-33.1-2.9-8-2.57-16.5-8.5-17.4-13.8a7.07 7.07 0 0 1-.25-1.77c-.5-4.2.44-6.26 1.02-9.86.6-3.5-.23-8.5-.46-9.65 0-.1-.1-.36-.1-.47-2.8-7.2-9.53-10.48-14.75-11.4-5.23-.8-5.46 4.75-5.46 4.75v.24c.44-1.18 1.3-1.76 2.42-1.76 3.15.16 12.44 2 15.34 9.68 0 0 1.16 3.6.1 8.1a29.14 29.14 0 0 0-.1 12.66c.8 3.94 4.18 7.8 8.13 10.9 3.8 3.14 15.1 8.5 26.1 9.2 10 .7 13.7.2 14.3.1l4.13-4.2.7 3.7c4.4-.47 11.6-1.3 20-2.2 13.92-1.52 23.32-3.03 31.92-1.75 8.7 1.3 11.5 8 11.5 8s.6 1.76-1.4 3.04-4.2 3-5.2 4.87c-1.1 1.85-2.36 5.9.9 11.26 3.1 5.36 11.8 8.84 19.14 7.9 7.33-.9 18.36-3.7 25-5.45 7.1-1.83 13.34-5.32 14.15-10.9.8-5.56-8.46-12.64-8.46-12.64s-4.4-3.37-5-4.2c-.6-.8.6-1.02.6-1.02s5.2-1.27 7.4-2.3c2.2-1.03 8.36-3.6 18.47-6.7 10.1-3.14 30.9-6.85 30.9-6.85s11.5-1.86 25.9-3.02l3.35-3.85 2.64 3.5 6.84-.35c19.7-.7 29.46-3.05 39.9-5.37s25.2-10.9 27.4-12.53c2.2-1.6 6.75-3.6 7.68-10.8.92-7.07-7.55-11.83-7.55-11.83s-6.75-3.6-8.15-5.1c-1.4-1.6-.1-3.1-.1-3.1s3.82-8.24 16-13c12.2-4.76 20.33-6.16 25.43-6.62 5.1-.58 6.87 1.27 7.57 2.2.7.93.7 2.67.13 4.53a55.97 55.97 0 0 1-3.6 7.7c-1.05 2-2.9 6.75-1.74 8.95 1.16 2.22 4.64 3.26 9.17 2.45 4.5-.8 16.45-4.2 26.9-8.6 10.43-4.4 27.96-12.9 27.96-12.9l.1-.1.46-4.1 4.08 1.63c5.6-3.14 15.26-8.7 22.1-14.5a942.28 942.28 0 0 0 23-20.1c2.56-2.3 4.88-4.18 7.2-4.06 2.3.1 4.07 1.73 5.46 7.9 1.4 6.14 1.73 11.24 2.3 14.26.7 3.03 1.63 6.5 5.1 7.2 3.6.7 8.37-2.43 10.1-3.94 1.75-1.5 5.1-6.5 4.9-13.1 0 0 .33-8.8-4.2-17.3 0 0-1.97-3.36-2.66-4.3-.5-.7-.8-1.27 0-2.9.8-1.6 2.52-4.5 5.8-6.38 2.4-1.4 4.9-1.7 6.24-2.2 0 0 1.5-.33 3.5-1.5l-.34-1.85z" fill="url(#y)"/><path d="M6.73 177.86l-.23 1.28c.35-.23.58-.35.93-.35 1.5-.2 3.48.9 3.48.9s6.3 3.3 9.1 3.9a7.8 7.8 0 0 0 6.6-1.7c1.4-.9 2.9-2.48 4.2-4.1a11.17 11.17 0 0 1-7.5 3.24s-3.1-.23-7.8-3.25-7.3-1.26-9.5.6l-1.4 3.14v.22s.5-1.07 1.2-2l1.1-2.1z" fill="#FFF"/><path d="M33.44 173.8c.35-.7.58-1.28.8-1.97.24-.82.47-1.86.7-3.02a27.56 27.56 0 0 1-1.27 4.1s0 .4-.23 1zm2.32-18.23c-.23 2.44-.23 5.46-.23 8.25.23-2.8.23-5.1.23-5.1v.1s0-2.32-.12-2.9c.12-.1.12-.23.12-.35z" opacity=".73" fill="#FFF"/><path d="M42.96 87.54l-1.63 2.44c.47-.12.47 0 1.4-.35 0 0 2.2-.35 6.15.7 5.1 1.4 11.38-2.8 11.38-2.8s1.5-.92 3.25-2.54c-2.2 1.2-7.6 4.1-11.7 3.2-5.3-1.3-5.4-.1-7.3-.3-1.6-.1-1.6-.6-1.5-1.8 0-.27.1-.4.1-.5.3-1.4 1.9-3.84 1.9-3.84L41.3 84c-.6 1.05-1.3 2.1-1.88 3.14-.35.8-1.05 2.66.23 2.78.35 0 .58.1.93 0L43 87.5z" fill="url(#z)"/><path d="M92.07 80.46c-5.7 1.5-10.92 4.06-13.7 3.36-2.44-.58-.47-4.18.23-5.34.35-.8.93-1.62 1.4-2.2 1.73-2.8 4.64-7.43 4.64-7.43.1-.24.23-.35.23-.58.35-1.05.7-3.02-2.56-3.25-4.4-.47-8.9 3.36-8.9 3.36s-3 1.62-4.6 7.78l.6-1.74s1.7-5.34 6.1-7.08c0 0 1.8-.93 4.58-.93 2.8 0 2.2 2 2.2 2s-.34 1.3-3.24 5c-3 3.7-3.8 6.6-3.8 6.6s-1.76 4 1 5.3c0 0 1.3.8 5.25-.45 3.82-1.27 16.6-4.64 24.5-5.8l5.44-2.8c-3.8.24-13.9 2.8-19.3 4.3z" fill="#FFF"/><path opacity=".1" fill="#231F20" d="M497.6 406.8c.12 0 .12-.1 0 0 .12-.1 0 0 0 0z"/><path d="M482.86 420.4l-.93.93c-3.6 3.94-5.34 5.57-5.34 5.57l-1.3 1.5s0 .12-.1.12h.2s1.3 0 3.2-1.16c-.4.24-.8.35-1.1.35-.9.2 2.3-3 2.3-3s3.22-3.5 5.3-6.1c2.1-2.8.8-2.5.8-2.5s-.45-.1-2.2.7c.24 0 1.05 1.2-1.04 3.7z" opacity=".25" fill="#231F20"/><path opacity=".1" fill="#231F20" d="M498.07 406.35c0-.12 0-.12 0 0 0-.12 0 0 0 0z"/><path d="M400.43 445.36s12.2-5.1 18.8-4.4c0 0 3.37.34-.34 3.93-3.8 3.6-4.9 6.3 2.2 4.1 0 0 .4-.3 1.4-.5-2.8.8-4.1.8-3.6.2.6-1.1 2.5-2.6 2.5-2.6s2.2-2.23 2.2-4.43c0 0 .7-3.27-8.8-1.3a69.3 69.3 0 0 0-14.4 4.76z" opacity=".22" fill="#231F20"/><path opacity=".1" fill="#231F20" d="M483.8 416.68c-.13 0-.13.12-.24.12 0 0 .1-.12.23-.12z"/><path d="M429.92 445.82c8-2.9 21.7-10.2 27.75-13.7a305.8 305.8 0 0 1-27.75 13.7z" opacity=".28" fill="#231F20"/><path opacity=".1" fill="#231F20" d="M480.77 418.42a.88.88 0 0 1 .46-.23c-.23 0-.34.1-.46.2zm22.63-17.88c0-.1.12-.1.12-.1s-.1 0-.1.1zm-1.04 1.06c0-.13.12-.13.12-.13l-.12.12zm.47-.48c0-.1.1-.1.1-.23 0 .1 0 .1-.1.2zm-3.37 3.72s0-.12 0 0c0-.12 0 0 0 0zm-108.44 45.4c-.1 0-.1.1-.23.1.1-.1.1-.1.2-.1zm110.88-48.07c0-.12 0-.12 0 0 0-.12 0-.12 0 0zm-1.5 1.63c0-.12 0-.12 0 0 0-.12 0-.12 0 0zm.92-1.05c.1-.12.1-.12 0 0 .1-.12 0-.12 0 0zm-.47.45zm-106.7 45.18l-.1.1.1-.1zm1.3-.58s-.13 0 0 0c-.13 0 0 0 0 0zm-4.08 2.2c-.1 0-.1.12-.1.12s0-.12.1-.12zm3.6-2.1c0 .13 0 .13 0 0 0 .13 0 .13 0 0zm.23-.1c0 .1 0 .1 0 0 0 .1 0 .1 0 0zm.82-.35s-.12 0-.12.1l.12-.1zm-1.16.58s-.12 0-.12.12l.12-.12zm.8-.35c-.1 0-.1 0 0 0-.1 0-.1 0 0 0zm-1.16.58c-.1 0-.1 0-.1.12 0-.12 0-.12.1-.12zm-1.73.94c-.12.1-.24.1-.24.1s.12-.1.24-.1zm-.82.45c-.1 0-.1 0-.1.12 0-.12.1-.12.1-.12zm-.23.12c-.12 0-.12.12-.23.12.1 0 .1 0 .2-.2zm.58-.35c-.1 0-.1.12-.23.12.12 0 .23-.12.23-.12zm1.63-.92s-.12 0-.12.1l.2-.1zm109.94-48.54c.12-.1.12-.1.24-.23-.1.12-.1.23-.2.23zM393.7 448.73s-.12 0-.12.1c0-.1 0-.1.1-.1zm-.35.1c-.12 0-.12.13-.12.13l.12-.12zm-.35.13l-.12.1s.12 0 .12-.1zm114.94-53.3zm-.47.47c-.1.12-.23.23-.35.35l.35-.35zm.8-.8c-.1.1-.1.1-.1.22 0-.1 0-.23.1-.23zm-3.93 4.17c.1-.12.23-.23.35-.35l-.4.35zm2.66-2.9l-.22.23s.1-.12.23-.23zm1.63-1.74c-.1.1-.1.1-.1.23 0-.2.1-.3.1-.3zm-25.53 22.17c-.12 0-.12.12-.24.12 0 0 .12-.12.23-.12zm26-22.63l-.12.1.12-.1zm-27.52 23.44c-.1.12-.1.12-.23.12 0 0 .12 0 .23-.12zM263.3 499.46c-.1 0-.1 0 0 0-.1 0-.1 0 0 0zm.36 0c-.1 0-.1 0 0 0-.1 0-.1 0 0 0zm219.08-82.2c-.1 0-.1.12-.23.12.2-.12.2-.12.3-.12zm-.34.12c-.12 0-.12.1-.24.1 0 0 .12 0 .23-.1zm-.47.22c-.12.13-.12.13-.23.13.1 0 .23 0 .23-.12zm1.27-.57c.12-.12.24-.12.36-.12-.24 0-.35 0-.35.2zm-1.27 8l-1.04.8c.2-.32.6-.56 1-.8zm24.73-27.97zM152.9 477.3c-.1 0-.23-.13-.34-.13.1 0 .23.12.34.12zm237.08-26.37c-.12 0-.12.12-.23.12.1-.12.1-.12.23-.12zM251 493.08h-.46.47zM150.8 476.6c.13 0 .25 0 .36.1-.1 0-.23-.1-.35-.1zm-.68-.24c.23.1.46.1.7.23-.24 0-.47-.2-.7-.3zm1.74.58c-.23-.12-.47-.12-.7-.23.23.2.47.2.7.3zm352.94-78.02l.23-.23c-.1.1-.1.2-.23.2zM152.9 477.3c.24.1.47.1.7.22-.23-.12-.46-.12-.7-.23zm352.48-78.96l.23-.23-.2.3zm.47-.34c.1-.13.23-.24.35-.36-.24.12-.35.12-.35.35zm-353.3 79.17c-.1 0-.23-.12-.34-.12.2 0 .3.12.4.12zm237.9-26.6c.1-.1.23-.1.34-.22-.2.12-.3.12-.4.23zM253.8 493.43h-.35.34zm136.53-42.84c-.12.1-.23.1-.23.2l.23-.3zm-136.07 42.8h-.23.23zm.46.1c-.1 0-.1 0-.23-.1 0 .1.1.1.2.1zm-2.32-.4h-.58.58zm.93.1h-.35.35zm-.46 0c-.12 0-.35 0-.47-.1.23 0 .35.1.47.1zm-1.17-.1h-.46a.35.35 0 0 1 .46 0zM152.2 477c-.1 0-.23-.1-.34-.1.1.1.23.1.35.1zm107.28 22.2zm-.1-.13zm-4.3-5.43c-.1 0-.24 0-.36-.12.12 0 .24.12.35.12zm.92.24c-.12 0-.12 0-.23-.1.1.1.23.1.23.1zm12.65 5.2h-.23.23zm-13.23-5.3c-.12 0-.23 0-.35-.1.23 0 .23 0 .35.1zm-7.9-.8h.82-.82z"/><path d="M256.12 493.9s.92.1.34 1.85c-.58 1.74.35 2.43 2.67 3.25h.12c-.46-.24-.46-.47-.46-.47s0-.46.4-1.16 0-2.1-1.6-2.9c0 0-.5-.23-1.5-.58z" opacity=".36" fill="#231F20"/><path opacity=".1" fill="#231F20" d="M260.4 499.35zm-4.63-5.58c-.12 0-.12 0-.23-.1.1.1.1.1.23.1zm-99.04-15.1h-.1.1zm.12.13s-.12 0-.12-.12l.12.12zm-.45-.24h-.13.12zm93.56 14.52h.47-.47zM149.2 476.13c.22.1.45.1.57.1-.23 0-.35-.1-.58-.1zm.57.23c.1 0 .23.1.35.1-.12-.1-.24-.1-.35-.1zm6.38 2.1c-.1 0-.1 0-.1-.13 0 .12 0 .12.1.12z"/><path d="M150.8 478.56c-.1-.1-.1-.1-.1-.23a5.67 5.67 0 0 1-1.86-2.32v-.1c.12 0 .23.1.23.1-1.62-.4-2.78-.5-2.67-.1.12.4.7.8 1.5 1.4.94.5 1.87 1.1 2.9 1.5v-.2z" opacity=".38" fill="#231F20"/><path opacity=".1" fill="#231F20" d="M156.5 478.56h-.1.1zm-.58-.23c-.1 0-.1 0-.23-.12.1.2.1.2.2.2zm1.28.57h-.12.12zm-3.37-1.27c-.1 0-.1-.1-.23-.1.12 0 .12.1.23.1zm95.44 15.45h.46-.46zm-.7-.12h.46-.46zm-94.04-15.1c-.23-.1-.35-.1-.58-.23.1.12.35.12.58.24zm.8.34c-.1 0-.1 0-.22-.1.2 0 .3.1.3.1zm-.57-.22c-.12 0-.12-.1-.23-.1.1 0 .23.1.23.1zm.94.35c-.13 0-.13-.12-.24-.12 0 0 .1 0 .23.2zm-.6-.23c-.1 0-.1-.12-.22-.12.1 0 .1.12.23.12zm233.37-16.95c0 .1 0 .1 0 0 0 .1 0 .1 0 0zm-2.67 1.28s0-.12 0 0c0-.12 0 0 0 0zM268.07 499.1h-.23.23zm120.4-47.12c.12 0 .12-.12.23-.24-.1.12-.1.12-.23.24zm.93-.7c.1 0 .1-.12.23-.12 0 0-.12 0-.23.12zm-.23.22c.1 0 .1-.1.23-.1-.12 0-.23 0-.23.1z"/><path d="M389.17 459.64c1.04.35.58.93-.47 1.5l.47-.22s4.4-2.44 2.55-3.5c-1.86-1.03-6.27-1.5-3.37-5.33l.12-.2c-2.44 1.8-4.18 4-2.8 5.5 0 .1.6 1.12 3.5 2.1z" opacity=".19" fill="#231F20"/><path opacity=".1" fill="#231F20" d="M387.3 461.73s0 .1 0 0c0 .1 0 0 0 0zm-.57.23s0 .12 0 0c0 .12 0 0 0 0zm2.1-10.22c.1 0 .1-.1.22-.1-.12 0-.12 0-.23.1zm-124.35 47.72h-.12.12zm.46 0h-.12.12z"/><path d="M274 493.3s1.97 1.3 9.17 1.63c0 0 2.44 0 2.55.24.12.1.23.34-.35.58.35-.12 4.42-1.4 2.67-2.2-.23-.13-.34-.13-.46-.13h-5.9c-.8-.1-1.5-.23-2.1-.34l-1.03-.12s-2.55-.12-3.6-1.74c-.7-1.05 2.56-1.74 2.56-1.74s5.2-1.05 10.6-1.74c0 0-14 1.62-15.3 3.48-.9 1.16 1.3 2.1 1.3 2.1z" opacity=".25" fill="#231F20"/><path opacity=".1" fill="#231F20" d="M384.06 462.9zM267.5 499.23s-.12 0 0 0c-.12 0 0 0 0 0zm-.6 0h-.1.1zm-.57.12h-.1.1zm-.46 0h-.12.12zm118.88-36.7z"/><path d="M40.17 373.26c-.35-.35-.58-.58-.8-.7l-.13.12.93.58z" fill="url(#A)"/><path d="M496.67 328.1l3.84.58c11-8.7 21.4-19.74 21.4-19.74s7-6.96 10.5-13c1.2-2.1 1.5-1.98 1.5-.93.1-.4.6-2.5-.2-3.9-.4-.9-2.1 1.7-4.5 4.8 0 0-11.1 16.2-31.9 32.1-20.9 15.9-26.3 20.8-44.53 31.3 0 0-12.8 5.57-21.6 3.7-6.86-1.5 0-8.46 1.5-14.85 1.5-6.27.35-8.7-1.3-10-1.63-1.26-5-2.1-11.85-.56 0 0-26 6.92-37.6 18.2-10.6 10.2 2.66 14.4 5.56 15.9 0 0 4.3 1.84 3.95 3.7-.34 1.85-2.8 3.5-4.06 4.3-1.3.92-18.5 10.9-45.9 15.2-22.3 3.5-18 1.4-39.34 3.6-21.4 2.2-27.3 3.95-44.5 8-17.2 4.1-27.3 8.5-29.5 13-1.85 3.73 2.7 6.05 5.5 7.8 2.75 1.62 7.9 4.3 6.1 7.1-1.6 2.8-8.92 7.1-26.8 7.7-17.83.54-25.14-1.9-28.4-5.7-3-3.6-.46-7.3.6-10.7 0 0 2.1-4.54.9-6.75-1.3-2.2-4.1-2.7-7.1-3.16-3-.37-17.9-.95-29.4-1.5-13.1-.7-28.64-1.2-47.44-5.14 0 0-12.3-2.5-20.3-7-.58-.35-1.05-.6-1.4-.8a4.65 4.65 0 0 1-1.4-1.2c-2.2-2.42-.2-4.2-1-6.4a23.9 23.9 0 0 0-5-8.2 62.53 62.53 0 0 0-4-4c-.5-.3-.95-.8-1.4-1.13-7.1-5.7-7.9-6.37-10.8-6.37-3-.15-1.3 5-.7 6.82.2.7.8 1.9 1.3 2.8-1.1-1.95-1.9-4.04-1.4-5 .8-1.83 1.7-1.7 1.7-1.7s.7-.37 3.27 1.6c2.54 1.97 8.23 5.9 11.13 9.4 2.8 3.5 2.66 6.5 2.66 6.5s-.55 3.14 2.47 6.5c3 3.37 9.5 9.4 32.3 13h.34l1.04-3 3.16 3.6h.1c19.86 2.9 30.54 3.13 30.54 3.13s26 .98 32.97.98c6.96 0 5.7 3.7 5.7 3.7s-.36 2-1.3 3.6c-.8 1.65-2.9 7.57-.8 10.7 0 0 3.25 7.9 24.14 8.48 0 0 18.38 1.52 31.15-3.82 12.8-5.2 1.3-12.5 1.3-12.5s-4.4-2.7-6.25-4.1c-1.76-1.3-1.07-2.7-.7-3.6.33-.93 1.6-2 3.1-2.7 1.5-.7 6.84-3.6 29.6-9.5s36.34-6.5 36.34-6.5h.4l1.85-3.6 4.65 3.1a416 416 0 0 1 13.97-.9c9.3-.44 23.9-2.65 32.4-4.5 8.46-1.86 21.35-5.8 30.9-10.8 9.5-4.88 10-8.36 10-8.36s1.83-2.54-2.2-5.44c-3.98-2.9-5.7-2.1-9.2-5.7-3.5-3.6 3-8.9 3-8.9s3.36-4.8 22.2-12c18.8-7.2 21.9-4.76 22.84-4.06.96.8 1.07 3.4.7 5.1-.32 1.77-2.65 8.04-3.92 11.4-1.3 3.26-1.76 7.8 3.34 8.8 5.1 1.08 12.2 0 18.95-2.4 15.9-5.7 20.65-12.65 47-31.8.1 0 .1-.1.1-.1v-3.97z" opacity=".83" fill="url(#B)"/><path d="M554.5 259.95c-3.5 6.5-6.4 14.4-8.02 19.27-.23 1.16-.35 1.86-.35 1.86s-.7 3.6-.34 5.7c.1.92.3 1.5.5 2.08.1.23.2.58.3.7.1.23.1.46.2.57a24 24 0 0 1-1.5 6.74 58 58 0 0 1-1.3 3.02c-.1.2-.38.5-.5.8-2.56 4.5-6.04 8-8.83 8.4-1.74.2-2.67-.7-3-2.1.1 2.1.46 4.1 1.62 5.3 2.2 2.4 8.6-4.4 8.6-4.4s3.8-4.3 5.3-11.4c2.23-10.3 1.07-12.4 1.07-12.4s-1.4-2.1-.46-4.8c.8-2.6 6.4-16.87 10.9-22.1l2.8-3.14v-.1l-1.16-2.9a16 16 0 0 0-2.1 2.56l-3.95 6.14z" fill="url(#C)"/><path d="M56.42 388c-.8-.46-1.74-1.27-2.55-1.97-.7-.58-3.48-3.25-6.5-6.04-1.16-1.1-2.32-2.1-3.25-3.1-1.5-1.4-2.9-2.7-3.83-3.6l.5 1.9c.1.1.2.3.2.42 1 1.63 4.7 6.97 11.8 12.54 8.6 6.76 8.6 4.1 8.6 4.1s.3-2.2-1.7-4.66l-1.14-1.5c.1.1 5.7 8.24-2.34 1.74z" fill="url(#D)"/><path d="M57.12 383.48c.58 1.04 1.16 2.1 1.86 2.9-.12-.12-1.05-1.5-1.86-2.9z" fill="url(#E)"/><path d="M532.43 300.93s1.28-4.18 1.4-5.92v.2s-2.8 8-1.86 12c-.23-3 .46-6.1.46-6.1z" fill="url(#F)"/><path d="M347.25 21.94l4.07.35c7.9-2.2 14.63-4.3 14.63-4.3s6.96-2.2 10.45-3.5a41.9 41.9 0 0 1 9.17-2.2c3.13-.6 7.2-.8 9.4-.7 2.2 0 2.9.7 2.9.7s.93.7 1.4 1.5c.46.8 4.06 10.4 16.37 11 12.3.6 12.42-6.1 11.37-8.2-1.2-2.3-4.9-4.8-4.9-4.8s-5-3.17-6-4.68c-1-1.5.3-1.97.6-2.1.4-.1 13.5-2.77 15.1-3.35l.1-.1-3.1-.9s-.7.7-4.3 1.75c-3.6 1.05-6.8 1.4-9.6 1.75-2.8.3-2.8 1.26-2.8 1.26l-.42.7c-.12.46-.35 1.74 2.1 3.5 2.9 2.1 6.5 4.16 7.88 5.7 1.5 1.6 3.26 4.3.13 6.24a9.73 9.73 0 0 1-4.3 1.5v.12c-1.4.1-2.6.1-3.5.1h-.8l-.16-.1c-2.8-.1-4.03-.8-5.9-1.63-2.43-1.24-4.2-4.02-5.1-6-.93-2-2.9-3.6-2.9-3.6-3.25-1.86-9.4-1.86-15.56-.8-6.14 1.03-14.62 3.93-16.13 4.5-1.5.58-8.94 3-12.77 4.06-3.85.9-6.75 1.95-9.07 2.53-2.3.6-18.9 5.54-25.06 7.4a94.5 94.5 0 0 1-10.24 2.54c-9.3.94-12.05-.7-12.05-.7-1.62-.7-1.4-2.9-1.4-2.9v-6.2s-.1-2.42-2-3.35c-1.82-1.05-4.3-1.4-8.8-1.63a52.9 52.9 0 0 0-11.5.7c-2.2.5-6.5 1.8-9.73 5.3-3.13 3.5-2.67 6.3-2.67 6.3V31c.8 1.4 2.32 2.9 4.76 4.07 5.6 2.67-6.25 7.43-6.25 7.43a102.87 102.87 0 0 1-12.17 4.3C236.1 50.3 228 51 228 51l3.72 1.36s30.17-5.57 39.35-14.4c0 0 3.47-1.62.1-4.87-3.36-3.3-5-4.2-5-4.2s-2.2-1.3.13-4.3c2.32-3 5.1-4.4 7.43-5.1 2.33-.7 9.64-1.4 16.15-.5 0 0 2.66.2 2.54 2.2a72.76 72.76 0 0 0-.48 5.7 6 6 0 0 0 2.2 4.6c2.1 1.8 6.06 2.5 6.06 2.5s6.96 1.3 15.67-1.2c8.7-2.43 20.07-6.26 29.94-8.93l1.5-2.1z" opacity=".1" fill="#232323"/><path d="M503.3 69.2l1.5 2.67c-.1 0-.23.1-.23.1-6.15 2.8-22.06 7.33-23.57 7.67-1.5.47-.93 1.28-.93 1.28.12.47 5.46 6.15 5.46 6.15 6.5 6.85 2.67 12.66 2.67 12.66s-4.64 7.43-15.67 6.15c-11.03-1.27-14.4-9.75-15.1-11.26a24.22 24.22 0 0 1-1.16-6.04c-.1-1.85-1.5-1.74-1.5-1.74-5.93-.1-15.9 6.04-15.9 6.04-4.54 2.55-9.3 6.27-19.17 10.8-4.88 2.2-9.3 3.94-12.65 5.1l-5.34-.92.5 2.67c-.2.1-.3.1-.3.1s-12.5 4.54-24.9 8.6c-12.5 4.07-20.1 4.42-20.1 4.42s-7.3.7-12.5-1.5c-5.1-2.1-5.3-5.24-5.2-7.8.15-2.66 2.7-7.77 3.5-10.8.8-3-3.7-3.6-3.7-3.6s-10.8-1.27-20.1 1.64c-9.26 2.9-14.02 6.3-14.02 6.3-5 2.8-4.75 5.2-4.75 5.2s-.12 2.5 3 4.7c3.15 2.2 5.94 2.8 9.53 3.6 3.74.8 4.44 1.7 4.44 1.7 5.9 4.86 2.3 9.86.2 13.46-3.47 6.17-20.2 9.2-20.2 9.2a432.43 432.43 0 0 1-43.2 8l-4.86-2.57-1.5 3.36c-39.12 5.1-55.5 10.32-61.1 11.72-5.42 1.33-6.93 4.23-7.5 4.93-.6.7.44.94.44.94a8.5 8.5 0 0 1 3.6 2.48s7.67 9.4-.1 17.15c-7.53 7.57-15.3 9.3-15.3 9.3s-11.96 4.07-22.5 1.86c-10.47-2.2-13.5-10.4-13.38-13.2.1-2.8.9-5.94 3.82-9.2 2.9-3.26 3.6-3.7 3.6-3.7s1.98-1.5 2.3-2.3c.48-.95-2.2-1.3-2.2-1.3-5.7-.7-19.3-.6-32.15.7-7.9.8-15.3 2.1-19.74 2.9l-1.3-2.7-3 3.5-17.17 2.8c-8.35 1.26-14.16-.1-14.16-.1s-7.3-2.2-8.12-6.86c-.8-4.65 2-10.34 2.7-11.96.7-1.74 2.8-5.1 2.8-5.1s.33-.7.33-1.87-1.25-2.9-1.25-2.9-1.15-2.2-4.86-2.1c-3.7.1-4.75.7-6.26 2a3.1 3.1 0 0 0-.6.7c.1-.3.22-.7.34-.9 1.17-1.76 3.6-3.7 7.78-3.8 4-.15 5.5 1.35 5.5 1.35 3.98 4.55.6 10.2-1.94 15.2a22.78 22.78 0 0 0-1.74 3.98c-1.97 5.8 1.63 8.6 3.7 9.18 2.1.57 6.28 3.13 23.58-.1 17.3-3.4 19.74-4.1 19.74-4.1s33.9-6.04 49.4-2.33h.1s7.2 2 1.83 7.4-9.52 8.95-8.24 13.1c1.26 4.2 6.95 10.48 20.1 8.85 0 0 4.63-.57 6.02-.9 9.5-1.86 16-6.96 16-6.96s5.35-3.95 4.3-8.94c-1.04-5-5.6-6.5-5.6-6.5s-3.6-2.3-.8-6.84c0 0 .8-3.83 14.07-7.3 13.35-3.5 37.62-8.37 58.2-10.9 19.3-2.2 53.2-8.7 60-11.5 6.9-2.8 8.25-7.68 8.4-9.4.1-1.76.33-4.55-6.3-6.06-6.76-1.4-9.67-3.6-10.7-4.43-.94-.8-3-2.65-3-7.06 0-4.4 8.8-9.64 18.7-13 9.84-3.4 21.7-1.9 21.7-1.9 10.8.96 5.1 10.8 5.1 10.8-.47 1.77-5.2 9.9 2.8 11.98 8.45 2.2 23-1.88 28.54-3.73 4.57-1.4 17.3-5.92 25.9-8.94a261 261 0 0 1 5-1.76c9.2-3.14 16.6-6.74 20.9-9.3 4.3-2.55 11.86-7.2 11.86-7.2s7.43-4.05 9.87-4.4c2.44-.35 8.94-1.86 9.75 4.3.8 6.15 3.5 10.44 7.64 12.53a18.22 18.22 0 0 0 17.9-1.3c6.5-4.3 1.98-10.4 1.98-10.4-.13-.1-.25-.37-.36-.5-.8-1.5-2.1-2.9-2.68-3.6a74.57 74.57 0 0 0-4.08-4.5c-1.6-2.4.38-3.8 2.36-4.6 2.1-.8 13-4.2 13-4.2 6.4-2.1 8.8-3.03 11.37-5.47 2.44-2.3-1.05-7.43-1.28-7.77l3.35 1.4c.7 1.05 1.5 1.98 2.2 3 0 0 1.3 2.9.36 4.44-.6.8-1.86 1.6-3.02 2.2l-2.68-2.1z" fill="url(#G)"/><path d="M314.98 506.43c-.23-.23-.23-.23-.12-.35.12-.12.47-.47.58-.8 0 0-6.5-.36-11.84.45-5.34.8-10.68 1.86-10.68 1.86l1.63.8s.7-.4 5.8-1.1c5.1-.7 6.97-.7 6.97-.7s4.4-.4 5.34-.4c.93 0 .34.6.34.6s-.46.7 1.98.7c0 0 3.6-.2 7.2-1.1.23 0-5.92 1.3-7.2-.1zm-16.48 2.2s.8 1.5-16.15 2.2c0 0 9.87.24 18.23-1.04 6.16-1.1-2.1-1.2-2.1-1.2zM70.47 51.9s0 .58.12.7c.1.23.5.57.5.57s1.9-2.77 1.1-2.43c0 0-.7 1.04-.9 1.27 0 0-.2.3-.5.5-.3.3-.4.1-.4-.6zm-13.8 14.63s-2.1 2.55 0 2.9l2.9-2.9s.8-1.28.8-2.2c-.1-.13-2.9 1.27-3.7 2.2z" opacity=".1" fill="#232323"/><path d="M114.47 128.3c6.74.8 8.25-.7 8.48-.94 1.63 0 8.13-.23 15.8-1.16 9.28-1.16 19.6-4.88 19.6-4.88s8.6-3.13 11.62-6.5h.12s-3.9-3.25-5.9-6.15c0 0-1.6-3.02.1-5.7 1.7-2.66 4.6-5.56 12.8-9.05 8.34-3.48 13-2.78 13-2.78s3.24 0 5.6 2.44c2.3 2.55 3.6 5.57 3.6 5.57s.1 2.1-.6 3.48c-.8 1.4-.8 1.5-.8 1.5s.2.13 2.1 0c1.84-.1 6.4-.8 14.73-2.77 8.35-1.98 18.8-5.35 18.8-5.35s27.05-8.7 29.84-9.4c2.8-.7 7.42-2.4 7.42-2.4l.1.4s2.2 3.6 2.2 7v-.3s-.13 1.6-3.84 4.56c-3.7 2.9-6.7 2.68-9.3 2.44-2.4-.23-3.7-.34-4.4-.23l-3.9.26c-4.3.6-6.73 2.2-6.73 2.2-10 5.96 4.07 51.2 4.07 51.2a534.24 534.24 0 0 0-58.17 10.95c-13.38 3.5-14.07 7.3-14.07 7.3-2.9 4.54.8 6.86.8 6.86s4.5 1.5 5.56 6.6c1.06 5-4.3 8.95-4.3 8.95s-6.37 5.3-16 6.93c-9.64 1.6-13.24 1.95-18.93-2.57-5-3.95-1.6-10.34 1.74-12.66 3.36-2.42 5-5 5.45-6.13.44-1.17.2-2.1.2-2.1l-3.24-2.9c-11.03-7.3-54.45.34-54.45.34-1.14-6.5-1.96-6.5-1.5-17.13.24-6.88 1.63-9.66 1.63-9.66l.33-.95s2.46-8 6.3-13.42c0 0 3.36-.93 7.54-1.97a61.3 61.3 0 0 1 6.37-1.64z" fill="#6B6B6B"/><path d="M273.07 90.9l-21.48 6.97s-2.3.47-3.9.93c-1.7.47-3 1.4-3 1.4s-18 6.6-35.3 10.1c-17.4 3.48-16.4-1.98-15-4.53 1.2-2.2 4.5-6.16-1.1-6.97-5.6-.8-9.9 1.4-12.2 2.44-2.3 1.04-17.4 7.55-6.9 12.42 0 0 7.9 3.48-2.1 9.64 0 0-9.98 6.38-29.5 9.75 0 0-3.15.35-10.35.58a90.3 90.3 0 0 0-22.77 3.6c-7.5 2.2-11 3.13-15.1 5.92l1.1-2.8 1.02-2.54c5.95-2.9 20.6-7 31.6-7.5 11.04-.4 16-.9 26-3.5 11.74-3 14.9-5.5 16.15-6.4 1.06-.7 4.3-2.6 2.7-3.5-1.96-1-5-4-5-4-1.14-1.4-2.2-2.1-.9-5.8 2-5.7 12.1-9 12.1-9s5.7-2.9 12.9-2.8c7.2.2 7.1 4.2 7.1 4.2s.32 1.9-1.5 4.5c0 0-2.8 3.2-.27 3.6 2.55.5 8.94 1.1 30.18-5.6 21.26-6.6 44.6-14.4 44.6-14.4s.83 2 .83 3.5z" opacity=".45" fill="url(#H)"/><path d="M169.97 114.7c-3.02 3.37-11.6 6.5-11.6 6.5s-10.34 3.72-19.63 4.88c-8.82 1.17-15.33 1.17-15.33 1.17h-.4c-.9.8-2.6 1.04-4 1.16-1.4.2-4.4-.2-4.4-.2s-11.8 2.5-14.4 3.4c0 0-1.4 2.2-1.8 3-.44.8-1.6 3.3-1.6 3.3 5.94-2.9 20.56-7 31.6-7.5 11.03-.4 16.03-.9 26-3.5 11.74-3 14.87-5.5 16.15-6.3 1.05-.7 4.3-2.68 2.68-3.5-2-1.04-4.9-4.06-4.9-4.06-1.15-1.4-2.2-2.1-.92-5.8 1.98-5.7 12.08-9.06 12.08-9.06s5.7-2.9 12.9-2.8c7.2.13 7.1 4.2 7.1 4.2s.35 1.85-1.5 4.5c0 0-2.8 3.15-.24 3.6 2.56.48 8.95.95 30.2-5.7 21.24-6.6 44.57-14.4 44.57-14.4a33.2 33.2 0 0 0-1.6-3.6s-4.62 1.66-7.4 2.47c-2.8.7-29.84 9.4-29.84 9.4s-10.46 3.38-18.8 5.36c-8.4 2-12.9 2.7-14.76 2.8-1.86.1-2.1 0-2.1 0s.1-.1.8-1.5c.83-1.4.6-3.46.6-3.46s-1.3-3.05-3.6-5.6c-2.3-2.6-5.57-2.48-5.57-2.48s-4.63-.7-13 2.77c-8.35 3.5-11.14 6.4-12.9 9.04-1.72 2.68-.1 5.7-.1 5.7 2.2 3.14 6.04 6.4 6.04 6.4" fill="url(#I)"/><path d="M117.38 169.85s-.35-1.85.93-5.22c1.3-3.37 5-3.25 7.6-2.8 2.6.6 4.7 1.64 8.2-.68 3.5-2.33 2.6-8.7.3-15.68-2.3-6.96-1.85-11.72-1.85-11.72l-3.35-3.6-1.3 3.83c.23 7.3 3.6 17.76 4.53 20.78.94 2.9 1.63 4.4-4.06 2.9-5.7-1.5-8.36.7-8.36.7-7.3 4.76-5.9 11.96-5.9 11.96l3.5-.47z" opacity=".2" fill="url(#J)"/><path d="M149.77 199.58c-1.5-9.76-5.1-15.2-5.1-15.2-1.4 1.03-2.8 3.82-2.8 3.82s1.05 1.16 2.56 8.6c0 0 .8.57 2.44 1.5a10.23 10.23 0 0 0 2.9 1.28zM181 178.9s-4.3 5-2.1 12.9c0 0 2.56-2.1 3.26-3.72 0 0-.8-2.55.8-5.57-.1-.1-.8-2.4-1.96-3.6z" opacity=".5" fill="#141414"/><path d="M115.05 169.85c.12-7.2 2.56-8.24 5-9.98 2.44-1.86 7.3-.12 7.3-.12s3.73 1.16 5.82-.58c2.1-1.74-.12-8.12-1.16-11.72a58.78 58.78 0 0 1-2.4-12.43c-.1-2.67-.4-3.94-.7-4.3l-1.1 3.38c.3 7.3 3.6 17.76 4.6 20.78.97 2.9 1.6 4.4-4.03 2.9-5.7-1.5-8.36.7-8.36.7-7.3 4.76-5.9 11.95-5.9 11.95l1.4-.1-.25-.48z" opacity=".18" fill="url(#K)"/><path d="M142.92 186.57c.23.35 2.32 3.25 4.06 11.6v.13c1.63.93 2.9 1.16 2.9 1.16-1.5-9.75-5.1-15.2-5.1-15.2-.7.7-1.4 1.5-1.86 2.3zM181 178.9s-4.3 5-2.1 12.9c0 0 .7-.58 1.4-1.4l.12-.23c-1.63-5.7 1.5-9.75 1.5-9.75a3.33 3.33 0 0 0-.92-1.5z" opacity=".3" fill="#505050"/><path d="M92.76 42.72h.7c-.93 2.68-4.3 6.27-5.92 8.7-.8 1.4-1.4 3.15-2.67 4.2l.23.22c.47.24 4.53-.8 5.23-1.27.46.1.46.1.7.23.22.35-2.68 5.46-3.26 6.15v.23c1.05-.1 2.8-.34 3.48-.92 2.1-1.63 2.56-5.23 4.18-7.43-.1-.35-.1-.7-.23-1.05-1.28-.23-3.7.12-4.76.8h-.23c.5-2.54 4.8-7.42 6.3-9.62 2.6-3.6 4.9-6.97 7.5-10.45 1.4-1.8 3.3-3.4 4.6-5.2 1.5-1.9 3.17-4.6 5.2-6.1v-.4h-.9c-1 .7-3.7 1.2-5 2 .27.7.16.6.7.96-.8 2.1-3.2 3.7-4.6 5.43-2.1 2.8-4.3 5.34-6.28 8.12-.7.93-1.17 2.3-2 3-1.3 1.17-5 1.06-6.5 2.2h-.5c.38-1.84 5-7.65 6.3-8.92v-.23c-2.2.37-3.94 1.5-5.45 2.58.24.45.24.34.7.7-.8 1.26-1.97 2.3-2.8 3.47-1.03 1.5-1.6 3.33-2.77 4.72.1.27.1.5.2.7 1.4-.2 7.2-2.1 8-2.64zm191.8 29.5l3.25 1.04c1 0 1.9 0 2.5-.23 0-3.6-1.9-5-3.2-7.43-.5-1.16-.9-2.9-1.9-3.72.37-1.28 4.1-1.74 5.48-2.2 3.6-1.17 7.55-2.33 11.15-3.5 1.6-.57 3.7-.45 5-1.26.8.1 1.15.1 1.5.7.8 1.15 1.4 9.16.8 11.6-2.2 9.17-5 16.37-10.67 21.83v.23c2.1-.35 3.16-2.44 4.55-3.48 5.8-4.4 9.78-10.92 11.7-19.04 1.2-4.76-.8-9.4 1.1-13.47h-.22c-.44-1.1-5.9-3.1-7.64-3.1-.9.9-2.2 2.3-3.45 2.8-2 .8-4.67.5-6.3 1.7-1.6-.2-2.77-3.2-1.7-4.4-.15-.5 0-.6-.26-1-1.3-1.1-4.68-.97-7-.97-.7.7-1.4.8-1.75 1.96h-.4c-.1.46.1.23.23.46.1.1.9 0 1.25.2 2.5.2 2.5 3.1 3.8 4.5-.1.36-.1.24-.2.47-.8.7-7.2 2.6-8.48 2.8-1.08.26-2.36-.32-3.05-.44-1.85-.1-3.5.94-4.52 1.5.6.84 2.46.7 3.04 1.5 2.4 3.3 3.46 7.2 5.55 10.7zm43.42-3.14c1.05.46 1.05 1.86 1.5 2.8 1.06 2.08 2.45 4.5 3.03 6.72v1.74c.5 1.4 2.3 1.5 3.3 2.44a4.1 4.1 0 0 0 1.8-.7c-.3-4.18-2.9-7.54-4.4-10.9-.4-1.06-1.1-2.45-1.3-3.5-.1-.57.4-.92 0-1.5-.2-.7-.3-.47-.8-.93-.3-.23-.1-.12 0-.47.4-.8 1.2-1.62 1.5-2.43.7-1.75.7-3.14 2.3-4.18-.22-2.2-3.5-2.56-6.14-2.44-.35.23-.8.35-1.27.46.2.5.44.7 1.02.8.56 6.4-3.85 12.3-6.75 16.1-1.15 1.5-3 2.5-4.17 4.2h-.26v.2c3.05-.3 9.3-6.2 10.8-8.5zM66.64 123.4c-.46.13-.46 0-.7.25-1.62.8-4.3 7.9-7.43 5.92-1.6 0-1.7-.35-2.6-.93.1-2.1 3.6-5.8 5-6.74.1-3.36 1.1-6.85.7-9.98-.2-.12-.4-.12-.7-.23-.8-.3-1.4.9-2 1.5-1.6 1.6-3.6 3.2-4.7 5.2-1.8 0-7.7-.1-8.9.7h-.7c.6-1.4 4.8-6.1 3.5-8.2-.1-.3-.1-.5-.2-.7-3.94 0-8.82 7.1-10 10-.56 1.5-.56 3.1-1.5 4.4v.2l8.95-1.1c1.13-.25 2.64.2 3.5-.25h3c.44-.7 1-1.3 1.5-2 1.84-1.96 4.2-3.8 5.7-6.14h.7v3c-1.66 1.5-4.3 3.85-5 6.17v1.7c-1.2 4.86 1.25 7.3 5.43 6.95 2.8-2.6 7.3-4.7 6.74-9.8l-.13-.2zm-25.3-3.93h-1.3c.6-2.44 3.03-5.1 5.94-5.23v1.05a89.26 89.26 0 0 0-3.02 3.9c-.7 0-1.28 0-1.63.2zm469.85 1.16c-1-2.2-1.7-3.95-2.7-5.92-1.7-3.1-3.4-7.7-8.2-7.9-1.2 1.1-2.5 1.8-3.1 3.3-4.3 9.8 4.5 20.7 8.5 26 1.4 1.9 3 4 5.2 5-.48 7.6-6.98 10-13.9 7-5-2.1-9-6.8-12-10.9-1.05-1.4-2.68-2.5-3.7-3.9-.95-1.3-1.65-2.8-2.8-3.9v-.3h-.36c.6 2.3 1.96 4.5 2.8 6.5 3.7 8.5 8.34 14.4 15.53 19.4 3.36 2.3 8.93 6 13.7 2.68 8.35-5.92 4.3-28.45.8-36.92zm-.6 10.45c-.6.58-3-2.33-3.5-2.8-2.5-2.43-7.3-6.72-4.5-10.9h1c2.1 2.2 4 4.3 5.4 7.43.7 1.7.8 4.5 1.7 6-.1.4-.1.1-.3.4zm-144.7 43.65v-2.2c1-4.42.8-9.76 1.7-14.17 1.2-6.04-.6-11.84 5.4-13.35.1-.5.3-.8 0-1.2-.1-.3 0-.2-.2-.4-.3-.1-.3-.1-.7-.2-1.6 1.3-6.3 2.1-8.5 2.7-1.78.48-3.5 0-4.8.94-.24.1-.47.1-.7.24.1.47.1.94.23 1.28 2.42.85 4.75-.1 5.9 2 .7 1.4.6 6.4.24 8.25-1.4 6.4-.8 13.7-2.2 20.1-.48 2.2.1 6.5-.8 8v.46c-1.3-.6-2.2-2.32-3.05-3.5-1.96-2.6-4.86-4.66-6.7-7.2-1.2-1.5-2.47-3.4-3.98-4.65.2-4.16 1.4-8.6 2.42-12.4.7-2.9.7-5.6 2.2-7.7.8-1.14 2.8-1.95 4.16-2.65 0-.58 0-.8-.2-1.04-.1-.2-.1-.43-.2-.7-3 .5-5.6 1.9-8.27 2.7-2.57.7-5 .46-6.98 1.5.1.47 0 .6.2.94.1.24.1.47.2.7 7.7-.46 6.5 3.7 5 9.64-.45 1.7-.1 4.3-1.03 5.7v.42h-.2c-1.6-2.48-3.96-4.68-5.9-6.77-.8-.7-1.65-1.5-2.46-2.2-.6-.83-.97-1.76-1.5-2.45.1-2.43 2.04-3 3.9-3.7-.13-1.04-.24-1.16-.7-1.74-5.7.8-10.7 4.06-17.07 4.4v.24h-.26c0 .56 0 .8.26 1.03v.47c1.25.24 3.1-.34 4.5.24 2.32.8 4.4 3.6 5.92 5.44 2.1 2.8 5.44 5.28 7.65 8 1.2 1.57 2.46 3.5 3.97 4.7-.2 3.85-1.24 7.9-2.2 11.4-.43 1.75-.2 4.1-1.02 5.47-.1.36 0 .24-.23.47-2.1-3.94-6.04-6.96-8.7-10.44-5.1-6.74-10.7-12.78-15.9-19.4 0-.93 0-1.5.44-2 .35-1.25 2-2.4 3.5-2.65.1-.7.22-.7-.25-1.26-.1-.27-.1-.5-.25-.7-4.4.7-8.35 2.8-12.64 3.9-2.2.58-5.1.34-6.72 1.5-.2.1-.4.1-.7.24.17.8.4.92.7 1.5 1.8 0 3.6-.47 5.28 0 4.4 1.27 7.53 6.27 9.97 9.63 1.15 1.5 2.8 2.65 3.94 4.16 4.64 6.3 10 11.87 14.63 18.13 1.84 2.43 4.3 4.52 5.9 7.2 1.04 0 1.16-.1 1.74-.47 1.2-5.1 1.9-10.34 3.28-15.45.7-2.44 1.5-5.23 1.73-7.9 1.85.7 3.24 3.37 4.4 4.76 3.37 4.5 8.25 8.25 11.4 13.1.93 0 1.05-.1 1.5-.44.7-7.56 1.64-15 2.6-22.4zM21.9 212c-.1 13.58-.8 34.6 9.9 37.5 3.85 1.04 6.06-1.5 7.2-3.25 4.3-6.5 3.15-19.04-1.03-24.38-1.88.23-4.55 4.64-5.48 6.15-.5-.12-.5-.12-.7-.23-.5-.3-.5-.4-1-.7-.4-5.2.7-10 .9-14.9 5.8.6 10.7 3.8 16.6 4.2 0-1.1 0-2.5.5-3 0-.5 0-.6-.25-1-.8-.6-5.2-1.8-6.5-1.8v-.3H42c.82-6.5-1.03-11.5-5.44-13.36-2.44-.45-5-.9-7.44-1.26-1.28-.46-1.86-1.5-2.8-2.2-.34-2.1-.7-4.4.94-5.7-.1-.8-.22-.9-.7-1.27v-.2h-.22a14.6 14.6 0 0 0-1.73 4.4c-1.3 5.46 1.8 10 5 11.15 2.2.37 4.4.7 6.5 1.07 1.7.7 2.6 2.1 3.7 3.28 0 2.8-2.8 3.15-5 2.46-3.5-1.14-7.3-1.96-10.9-3.23-.9-.37-1.8-.95-3-1.07-.1 1.4-.3 2.8-.4 4.2 3 .94 6.2 1.87 9.2 2.8-.1 7.66-3.12 16.95.7 22.87.48.1.8.2 1.06.45 4.3-.3 5.24-3.7 7.44-6.1 1.85 4.5.46 12.4-3.7 13.55-1.77 1.24-4.44-.38-5.48-1.3-3.6-3.25-4.3-8.36-5.7-13.9-.47-1.9.2-5.7-.7-7.2 0-2.2.46-6.3-.7-7.46v-.25L22 212zm523.98 36.7c-.8-3.73.35-8.14-.46-11.62v-3.5c-.58-2.54-.35-5.8-.82-8.23-1.04-4.88-.1-10.57-1.97-14.63a16.2 16.2 0 0 0-3.7-.46c-.6.58-1.06.93-.94 1.5.5 1.98 3 2.44 3.7 4.42.1.93.1 1.86.2 2.78.7 3.14.52 7.1 1.22 10.22v2.67c.35 1.63.93 5.7.47 6.97-.8 2.2-3.25 4.3-4.75 5.92-4.2 4.18-9.1 9.4-16.4 10.22-.1.34 0 .23-.23.46.1 2.67 2.68 2.2 4.4 3.25.5-.12.95-.12 1.3-.23.7-.47 1.05-1.28 1.5-1.98 1.06-1.4 3.15-2.2 4.2-3.7h.25c0 6.6.1 14.15.22 20.54h.7c1.5-6.5 1.35-14.4 1.24-22.3 2.9-2.66 4.77-6.6 7.67-9.16v-.35h.25c0 6.8.23 13.9.23 20.9 0 2.2-.6 7.5 0 8.4v1.3h.44c.56-2.3.7-5.7 1.26-8.3v-3.7c.6-2.9.6-8.6-.1-11.5zm-391.6 13.9c-1.86-.82-4.3-2.56-5.46-4.18-3.48-4.88-7.3-16.26-4.76-24.85 2.1-6.97 6.62-11.73 13.93-13.6 3.7-.92 7.7.36 10 1.52 6.6 3.4 9.5 8.3 11.6 16.3 2.7 10.4-.7 19.9-7.6 23.1.4 4.1.9 8.4 1.2 12.6a36.9 36.9 0 0 0 6.7-1.1c3.5-.8 6.9-.95 10.2-1.76 2.3-.58 5.8-.1 7.6-1.28.48-.96-1.4-7.46-1.73-8.97-.34-1.3 0-2.57-.7-3.5v-.46c-.45.1-1.03.1-1.5.25.1 6.6-4.64 5.7-9.86 6.93-2.53.7-5.8 1.5-8.7 1.5v-2.8c.25-.48 4.08-2.1 4.78-2.68a24.92 24.92 0 0 0 6.73-7.2 23.7 23.7 0 0 0 2.57-6.4c.8-2.68.8-6.5.25-9.18-.47-1.87-.24-3.38-.94-5A23.66 23.66 0 0 0 175 218c-2.8-1.16-6.05-1.28-9.4-1.98-3.03-.7-8.37.7-10.46 1.28-10.5 3.14-17.7 8.13-20.9 18.34-1.3 4.1-.97 9.52.2 13.36 2.54 8.6 9.74 16.6 20.54 16.83v.2c.4.47.4 1.5.7 2-.1.33 0 .22-.2.45-.94.6-2.2.37-3.5.7-2.57.7-10.93 2.7-12.9.95-1.3-.35-2.1-1.98-2.2-3.5-.6 0-.8 0-1.06.25h-.46l2.4 12.63h.24v.28c7.68-1.27 15.34-2.67 22.9-3.94-1-4.06-2.2-8-3.2-11.95-.37-1.17-2.34-1.06-3.5-1.5zm373.26-24.15c.46 1.16 1.4 3.25 2.44 3.95.46.34.7.23 1.04.7 7.2.57 10.1-11.85 7.2-18.93-.58-1.3-2.9-4.9-5-3.5h-.34c.1-.34 0-.23.23-.46 0-1-.1-1.4-.4-1.9-.4-.1-.8-.1-1.3-.2-.3.1 0 .1-.5.3.1 1.3.6 1.4.7 2.8-3.6 3.16-6.6 10.8-4.1 17.44zm2.44-11.6c.46-1.17 1.5-1.98 2.2-2.8.47-.1.47 0 .7-.23 1.62 0 2.1.35 3.02.93 1.62 3.95 1.85 10.8-.82 13.7-.46.46-1.27.7-1.74 1.04-4.64-.4-5-8.7-3.36-12.7zm-101.24 85.9c-2.44-1.5-2.8-9.3-3.72-12.65-1.86-6.74-2.67-13.7-4.53-20.55-1.2-4.3-2.9-8.83-2.4-14.17.8-.8 1.3-1.74 2.2-2.43 1.3-.82 3.2-1.28 4.2-2.44.1-.2-.1-.7-.3-1.2-2.6.5-4.9 2-7 2.8-4.4 1.9-8.6 2.9-13.16 4.8-1.4.6-2.78 1.5-4.64 1.8V270c.14.1.37.1.48.26.25.23 5.7-2.2 7.44-.7 1.97.7 1.74 3.25 2.8 4.76-.36 3.37-3.7 8.6-5 11.6a435.77 435.77 0 0 1-10 21.14c-1.4 2.68-3 7.33-4.75 9.4v.25c-1.2-1.68-1.07-5.86-1.77-8.06-1.96-6.83-3.1-14.3-5.2-20.9-.35-1.3-1.63-7.1-.8-8.22.22-3.03 4.5-4.3 6.95-5.24-.14-.5-.14-1.07-.25-1.5-3.8.54-7.9 2.63-11.36 3.9-3.25 1.3-6.27 1.76-9.64 2.9-1.6.6-3.46 1.5-5.43 1.76v.24h-.23c.1.6.1.9.48 1.26.92.6 5.7-1.95 7.65-.44 3.02 1.04 3.14 5.9 4.18 9.17 2.7 8.7 4.1 18.3 6.5 27.3.6 2.2 2.2 9.23.7 11.1-.8 2.43-4.84 3.4-7.2 4.4.16.5.16.93.27 1.3 3.36-.5 6.4-2.1 9.4-3.16 5.8-2 11.4-3.6 17.07-5.7-.1-.46-.1-1.04-.2-1.5-2.4.7-4.3 1.4-7.6 1.27-.5-.32-.8-.7-1.3-1l-1.07-3.5c.2-2.76 3.7-7.75 5-10.2a313.63 313.63 0 0 0 10.2-21.8c1.26-2.9 4.2-7.08 4.63-10.2 1.04.56.7 2.42 1.04 3.7.7 2.7 1.17 5.46 1.98 8.24 1.5 5.5 2.2 11.5 3.7 17.2.6 2.1 1.4 5.8.47 8.1-1.06 2.25-4.65 3.76-6.98 4.57.1.47.23 1.06.5 1.3 0 0 5-1.64 5.9-2 6.02-2.54 12.3-5.33 18.6-7.65-.1-.45-.1-1.03-.28-1.5-1.87.47-5.36 2.44-7.56 1.16zm103.2 18.35c-.8.7-1.96.93-2.78 1.5-2.78 1.98-5.7 5.35-7.66 8.02-1.63 2.2-2.9 4.64-4.4 6.96-.6 1.05-.82 2.2-1.52 3.02v.47c1.86-.36 3.02-1.52 4.4-2.45 3.6-2.2 6.86-4.3 10.23-6.74 1.7-1.15 2.8-3 4.6-4.17.1-2.5.7-4.6-.4-6.5-.6 0-1.4-.1-2.4-.1zm-2.66 7.9c-1.28.92-2.56 2.3-3.95 3.24-1.16.8-2.55 1.28-3.48 2.2h-.23c.7-2.2 4.52-6.15 6.27-7.42.9-.7 2.1-.82 3-1.5h.8l.4.45c0 1.62-1.73 2.2-2.9 3zM57.9 347.47c-.92-2.8-1.5-5.47-2.42-8.14-.47-1.4-.35-2.9-1.05-3.95v-.68c1.5.58 3.72.46 5 1.27h1.15c-.23-1.17-.46-3.03-1.16-3.95-.7-1.05-4.87-1.05-6.15-1.98-1.8-1.4-3.4-5.22-4.7-7.2-3.14-4.87-7.2-10.1-11.73-13.58-2.44-1.87-4.18-3.73-8.48-3.73-.47.35-1.05.7-1.5 1.05-.94 4.3.8 12.42 3.24 14.4v.46a5.43 5.43 0 0 1-2.8-1.5h-.23c0 1.27.24 2.9.94 3.7.3 1.05 2 1.98 3 2.2a151.9 151.9 0 0 0 5.3 16.85c1.6 4.1 2.5 8.1 4.2 12.2.8 1.9 2.9 3.3 3.5 5.4h.7c-.42-1.9-1.5-3.6-2.2-5.2-1.93-4.9-3.6-10-5.2-14.9-1-3.3-1.82-6.3-2.8-9.4-.3-1.2-.2-2.3-.9-3.3v-.3c1.5.22 2.35 1.04 3.5 1.5 2.57 1.16 5 1.5 7.68 2.7 1.97.8 4.4 1.85 6.73 2.2.24 2 1.4 7.2 2.45 8.5v.7c-3.35-2.3-3.23-5.47-9.15-5-.38.34-.7.7-1.08.93a7.37 7.37 0 0 0 0 5c1.4 3.6 5.93 11.02 9.65 11.95 1.4 1.07 3.48-.2 4.18-1.25 1.3.7 1.64 3.7 2.2 5.24 1.2 3.13 2.9 7.1 5.7 8.47v.26h.48c-.34-2.47-1.73-4.67-2.66-6.76-2.2-4.53-3.7-9.5-5.22-14.3zm-6.37-17.66c-2.32-.1-4.3-1-6.15-1.7-4.88-1.8-9.4-3.3-13.7-5.4-.6-1.9-4.18-9-2.2-11.5.1-.2.34-.4.45-.7.47-.1.47-.1.7-.2 6.73.8 13.47 9 16.83 13.5 1.28 1.78 2.33 4.4 4.18 5.7v.5h-.1zm3.47 19c-.7.9-1.27 1.7-1.96 2.5-.58.5-1.28.6-1.74 1.1-3.72-.1-3.84-3.82-5.46-6.15 0-2.1.8-2.2 1.74-3.26.47 0 .58 0 .93-.2 3.4 0 4.2 1.5 6.2 2.8.3 1.4.5 1.96.4 3.35zm128.3 33.7c-.93-1.5-2.67-1.8-3.95-3-.34-.1-.23 0-.46-.2 2.8-1.5 5.8-3 8.7-4.4.8.9 4.4 4.4 5.7 3.7.2-.1.4-.1.7-.2-.1-1.24-.1-2.4-.2-3.7-2.8-2.8-6.9-5-11.4-5.9v.24h-.1c.5 1.5 2.2 2.9 3.5 3.7v.7c-2.6.37-4.9 1.65-7.2 2.46-1.6.42-3.5.42-4.8 1.24h-.7c.9-2.7 4.04-4.8 5.7-7 3.1-4.3 5.7-9.5 10.64-11.95-.1-1.98-5.9-6.16-8.1-4.77-.6.2-.1-.16-.5.42-.34.8.82 1.74.47 3-.47 1.64-4.5 9.65-5.7 10.46v.26c-2.2-.83-3.94-2.9-6.14-3.96.35-2 2.1-3.6 3.02-5 2.55-3.7 4.52-7.3 8.24-9.87 0-2.9-4.72-5.9-7.9-5.9 0 1.3.7 2.1.5 3.25-.8 3.6-2.43 7.2-3.7 10.2-.8 2-1.27 4.4-2.66 5.9-.36.1-2.68 0-3.26-.46-.8 0-1.6 0-2.2.25v.42c3.7 3.6 7.66 4.75 12.65 6.95-.7 3.6-4.3 6.05-6.15 8.72-.9 0-1.6-.14-2.2-.48-.45.1-.6.1-.92.23a7.22 7.22 0 0 0 5.46 6.5c1.86-2 4.06-3.04 6.73-4.2 2.43 2.55 3.13 6.27 4.2 10.45.44 1.84-.26 3.8.2 5.44.8 2.8 2.32 3.7 3.7 5.7h1.5c.94-5.1-1.4-10.1-2.66-14.12a27 27 0 0 0-.7-5.1zM528 345.6c-1.3 1.15-3.13 1.62-4.53 2.66-2.2 1.5-4.2 3.6-6.3 5.23-.9.7-2.46 1.4-3 2.4-1.1 1.6-.97 4.4-2.2 5.9v.8c1.7-.6 2.5-2.7 3.9-3.7 1.74-1.3 3.13-2.9 4.76-4.2 1.04-.7 2.32-1.2 3.25-2 .7.1.6.22 1.05.5-.1 5.6-3.03 9.4-4.77 13.6-.47 1.12-.7 3-1.5 3.9-.48.5-1.3.5-1.76.83-1.53 1.62-2.9 3.25-4.43 4.76-1.4 1.84-1.97 4.4-3.48 6.25 0 .56 0 1.14.2 1.5.2.1.5.34.9.45 2.8-2.63 5.5-4.83 7.9-8.1 3.6-5 5.4-11.23 8.1-17.2 1.6-3.7 4-7.4 3.9-12.83a6.44 6.44 0 0 1-.7-.92l-1.5.1zM512.8 380v.23h-.22c.35-2.67 2.32-3.37 3.25-5.23h.47a7.94 7.94 0 0 1-3.5 5zm-326.23 3.48c-.46 1.86 4.18 6.15 5.7 7.2.7.58 1.73 1.85 2.78 1.27.58 0 .7-.1 1.04-.23.2-.58.5-1.28.2-1.97 0-2.67-7.1-5.7-9.8-6.27zm21.02 16.83c.3.3.6.2 1-.2.8-.6.3-1.7.9-2.6 1.3-.9 3.3-.7 5-1 4.4-1.1 9.6-1 14.6-2.2 2.3-.4 6.2 1 8.1-.2.2-.1.4-.1.7-.2-.1-2.9-5.6-4.07-8.5-3.26-1.3.36-2.8 1.17-4.2 1.5-1.1.14-2.1.14-3 .26-.4-3.6-2.1-6.3-2.2-10 3.2-.13 7.4-.47 9.6-1.75 0-1.03-.28-1.03-.7-1.72-2.6-.6-6.78-.7-8.7.7-.6 0-.87 0-1.1-.25-1.14-1.5-.67-4.6-1.7-6.24v-.9c2.3-.44 6.13-.9 7.4-2.65.14-.24.14-.1.25-.47-.24-.2-.24-.34-.47-.7-3.4-.8-4.9-.2-7.9.94-.95-2.9.2-5.35-2.8-6.16.7-1.14 2.76-1.03 4.16-1.5a39.2 39.2 0 0 0 6.4-2.66c.1-.35 0-.23.23-.47-.15-1.02-.5-1.02-.96-1.72-3.16-.2-5.7.16-7.45 1.78h-.4a13.94 13.94 0 0 1 2.2-5.2c.6-.94 1.74-.8 2.2-1.98h.24v-.3c-.46-.58-.9-1.16-1.27-1.74-1.1-.7-2.6-.8-3.5-1.5-1.4 0-2.8 0-3.7.46.1.8.4 1.4.7 1.98.6 2.2-1.5 9.17-2.5 10.2-.7.8-8.6 3.7-10.7 3a12.3 12.3 0 0 1-2.45-1.25c-.2-.2-.1 0-.2-.45 3.1-2.9 5.3-9.4 9.6-10.67.12-.36.12-.7.24-1.06-1.06-1.07-6.28-6.5-8.95-4.78-.27.1-.5.1-.7.2 0 1.87.9 3.26.43 5.24a49.58 49.58 0 0 1-5.2 11.8c-1.1 2-3.8 4.08-3.9 6.75 3.6-.37 4.4-4.08 7.2-5 .8.7 1.64 1.5 2.45 2.2 1.2 1.74.95 4.3 1.5 6.5 1.07 4.75 2.1 9.4 3.05 14.15.1 2.35.25 4.67.48 7 .24 2.2 1.98 5.8 4.3 6.4zm6.9-16.6c.1 2 1.4 7.8 2.4 9.2v.5c-2.7.6-5.4 1.3-8.3 1.3-.5-3.1-2-5.8-2-9.1 3.2 0 5-1.4 7.74-1.7zm-12.7-18.1c.3-.5 6.1-1.5 6.7-1 2.3 1.1 1.5 4.6 2.8 6.5-.5 1.1-5.9 2.7-7.5 2.8-.26-2.2-.6-6.9-2.1-8.2zm9.9 8.3h.2c.5 2 .7 5.4 1.77 7-.8 2-5.58 1.8-7.43 2.9-.8-.4-1.75-5.9-1.75-7.4 1.72-.1 6-1.5 7.2-2.4zM174 386.3c-.35.7-.35 2-.7 2.8-1.85 4.7-2.55 5.6.47 10 1.27 0 1.5-.2 2.2-.7.93-3.4 1.05-10.3-1.97-12zm248.8 1.4c-6.4-1.6-11.7 1.6-18.34 1.1-.57-.7-1.04-1-1.5-1.92-4.65.1-9.64 10.45-5 13.58 2.56 1.76 9.64.7 12.66 0 1.74-.33 4.3-.8 5.7.25 1.85 1.4 1.5 6.5.8 9.4-.7 5.37-1.5 10.8-2.2 16.17-.7 3.25-1.28 6.5-1.98 9.75 3.35 0 6.5-3.5 7.4-5.93.6-1.4.26-2.8.7-4.4 1.18-4.54 1.3-10 2.46-14.88.7-3.17.25-6.07.8-8.97.5-2.2.84-9.4.26-11.37-.37-.93-1.3-1.86-1.76-2.67zm-298.7 65.8c-.7-.6-1.3-1.5-2-2.2-2.54-2.3-5.7-4.5-8.46-6.5-2.3-1.6-5.58-2.6-7.66-4.5 0-.4.7-1.6.2-2.9-1.86-5-8.7-10.7-13.1-13.3-2-1.23-5.35-1.8-7.2-3-1.4-.1-2.1-.1-2.45.8-.6 1.2 1.13 2.9 1.7 3.76 1.5 2.1 3.24 4.54 5.2 6.05 1.5 1.2 3.27 2.2 4.55 3.5h.7c-.8-2.3-3.4-3.6-5.23-5-1.7-1.3-2.4-3.5-3.92-5 .12-.7.23-.6.46-1 6.02 0 10 5.57 12.64 9.17 1.15 1.64 3.12 2.57 3.24 5.24-.7 0-1.14 0-1.5-.24h-.7c1.06 2.9 4.54 2.67 7 4.18 4.86 3.05 8.8 7.8 13.1 11.5 1.4 1.3 3.95 2.58 4.4 4.78-3-.15-5.1-1.9-6.95-3.05-3.37-2.2-8.83-6.05-11.15-9.2-.44-.6-.56-1.4-1.02-1.97-.6-.6-1.4-.8-1.97-1.5h-.8c-.25 2.2 2.2 3.8 3.7 5.2 4.5 4.18 9.4 7.9 15.1 10.9 2.1 1.06 5.8 2.9 8.1 1.53-.45-3.05-3.93-5.5-6-7.1zm134.3 14.4c-11.13-7.5-27.5-15.3-46.43-14.8-.9.6-2.77.1-3.93.5-1.63.46-2.56 1.27-3.7 1.97 0 5.34 8 8.24 12.4 9.4 2.68.7 5-.6 6.5-1.04 1.18-4.5-4.3-5.2-6.72-7.4h-.46v-.23c16.7-.7 29.23 4.05 38.76 11.13 2.43 1.74 5.1 4.3 6.4 7.2.5 1.04.7 2.8 0 3.7-.9 2.45-3.8 2.2-6.5 2.8-6.4 1.5-15.2-2.2-18.1-5-.6 1.05.25 2.68-.7 3.7-.9 2.7-4.3 2-7.4 2.7-5.1 1.03-13-1.5-15.9-3.5-.8-.6-1.4-1.6-2.2-2.2 0-.6-.14-.7-.25-1.05.47-.34.94-1.03 1.28-1.5 6.26-.46 9.5-.1 13.1 3.25-.1.43 0 .3-.22.54-.48.8-1.4.93-2.7.93v.46c2.33 0 3.26-.37 4.54-1.07.1-.5.1-.98.2-1.3-.7-.8-1.3-1.9-2.2-2.47-3.6-2.34-11.04-3.5-15.1-.83-.7 3.2 1.3 4.8 3 6.1a32.2 32.2 0 0 0 11.6 5.7c1.65.45 3.04 0 4.8.45a15 15 0 0 0 5.9 0c2.8-.7 6.6-3.6 3.45-6.98v-.24c1.62.54 3 2.2 4.52 3 4.15 2.2 11.12 3.92 17.4 2.64 3.12-.7 6.26-.7 7.2-3.47 1.03-1.5-.36-3.7-.8-4.55-1.77-3.83-4.4-6.27-7.8-8.6zm-40.27-10c.8.5 1.15 1.7 1.96 2.2 0 .6 0 .9-.2 1.1-1.4 3.9-9.4 1.1-11.4-.4-.6-.47-.8-1.4-1.3-2 .13-.42 0-.42.25-.7.53-1.7 2.3-1.12 3.7-1.93 2.63.1 5.2.7 6.93 1.86zm202.47 2.2h-2.2c-1.4 1.2-3.8 1.3-5.44 2.2-1.4.9-3.26 1.9-4.53 2.8-1.16.8-1.74 2.4-2.9 3.3 0 1.1 0 1.3.93 1.5.24.1 0 .1.48.3.24-.23.47-.35.7-.7.23-.1-.1-.6-.23-1.3a20.74 20.74 0 0 1 6.77-4.62c.8-.35 2.43-1.3 3.5-.7h.44c-.13 2.2-5.13 8.83-6.5 9.87v.58c4.04-1 6.7-9 9.4-11.9-.13-.48 0-.6-.25-.8l-.1-.38zm-17.5 16.2c-1.26 1.2-4.4 1.3-5.9 2.5h-.2c.6-.8 1.63-1.17 2.2-2 .47-.54.6-1.24 1.05-1.7-.1-.5 0-.5-.2-.7v-.5c-6.4-1.14-17 4.3-20.38 7.2-.8.7-1.4 1.88-2.2 2.7 0 .6.1.94.22 1.3 3.8.2 11.1-2.1 11.9-5.24.1-.1.1 0 0-.23v-.47c-2.66-.14-6.15.44-7.9 1.95h-.2c1.4-2.2 6.7-4.02 9.62-5 .95-.3 3-.8 3.96-.2.26.1.5.1.7.27-.44 2.2-3.6 4.66-5.7 5.24v.48c3.4-.8 6.4-2.3 9.44-3.5 1.97-.8 4.3-1 6.15-2.2 1.3-.8 5.6-6.6 5.9-8.2-5 .7-5.3 5.67-8.5 8.46zm-17.1 4.3v.7c-.4.25-.7.8-1 1.06-1.2.7-2.7.57-3.75 1.27-.46-.12-.58 0-.8-.24h-.24c.5-1.78 4.1-2.7 5.8-2.8zm-91 20.55c.15-.25.15-.5.26-.7l-16.14-.7c-.7.46-1.73.23-2.66.46-1.16.38-2.32.8-3.25 1.3.1.37 0 .26.3.5 1.3 1.03 8.97 1.03 10.5 0h.45v-.36c-2.32-.7-6.5 1-8.24 0h-.24v-.27c5.8-.34 12.3-.22 18.37-.22-.56.3-1.84.2-2.42.7-.22.1-.46.1-.7.22v.5c1.3.26 2.68.5 3.96.7l.24.26c-2 1.3-6.98.8-8.7-.23v-.47c-.95-.44-5.48.5-6.4.7-.7.13-1.5-.1-1.98.25-.9 0-1 .13-1.5.48.1.7.2.6.5 1.05 1.4.37 3.86.37 5.5.8v-.2h.22v-.2c-.8-.35-3.13-.1-3.94-.6h-.44c.7-.6 7.9-1.5 9.2-.7.33.1.2 0 .44.24l-3.5.7c.1.38 0 .26.2.5.35.23 1.05.23 1.74.23a2.8 2.8 0 0 1-.7.9c.1.1.1.25.25.48 3.12 0 5.7-.34 8.23-.8 1.55-.35 3.5.2 4.57-.5h1.77v-.44c-3.02 0-10.45-.3-12.2.98h-.7l.25-.23c.8-1.05 2.55-.47 4.18-.8 2.47-.6 6.4-1.5 8.5 0 .58.34.2 0 .2.7.6 0 1.08 0 1.3-.24h1.5v-.9c-1.95-.44-4.9-1.4-6.5-2.4-.8-.57-.33-1.4-2.1-1.5zM73.4 98.8c-.47 1.74-1.5 3.25-2.2 4.76-1.52 3.37-2.8 6.73-4.2 10.1-1.15 2.8-1.85 7.2-3.47 9.4v.47c2.33-.46 3.84-2.67 5.23-4.18 3.37-3.48 10.57-12.2 10.45-18.8a8.6 8.6 0 0 1-.9-1.28 18.7 18.7 0 0 0-4.8-.47zm.92 9.17c-1.04 1.63-1.5 3.25-2.67 4.76-.93 1.4-2.55 2.44-3.48 3.95h-.23c.23-1.63 1.16-3.02 1.74-4.4 1.28-3.15 2.2-6.16 3.72-8.95.8 0 1.5.1 1.97.46.58.2.1-.2.46.4.36 1-1.03 2.8-1.5 3.7zm387.2-67c-2.33-2.3-4.07-5.2-6.27-7.42v-.23c-1.16.35-5 3.83-5.7 4.76-1.38-.58-2.2-1.97-3.24-2.8-3.7-2.77-7.2-6.37-13.7-6.26-.8.6-2 .7-3 1.05-2.9 1.28-5.9 3.83-7.2 6.73-1.4 3.37 0 8.25 1.1 10.68 2.2 5 5.7 9.18 8.7 13.36 2.6 3.36 5.4 6.85 10 8.12 5.2 1.28 7.9-4.87 9.9-7.2 2.1-2.43 6.5-3 8.1-6.15.6-1.1.3-3.3-.2-4.4-1-2.3-5.9-8.9-7.9-10.2.1-1.2.7-1.4 1.3-2.2 1.4.7 1.9 2.6 2.9 3.7 1.3 1.4 3 2.2 4.4 3.5 2.1 0 3.4-.4 4.4-1.5h.3c-.7-1.5-2.67-2.4-3.7-3.5zM449.1 64.55c-3.84.93-5.8-1.62-7.9-3.7-5.23-5.12-8.7-11.5-12.66-17.9-1.4-2.2-4.87-6.26-3-9.4h.8c1.04 1.63 3.02 2.8 4.18 4.4 3.25 4.3 7.2 8.14 10.45 12.44 1.97 2.6 4.18 5.2 6.15 7.8.93 1.4 1.74 3.1 3.02 4.2-.23.9-.58 1.4-1.05 2.1zM452.3 49c1.75 2.43 4.18 3.83 4.18 8-.7.7-.8 1.28-1.97 1.5-.2.25-.1.13-.4.25-3.1-5.1-7.5-9.4-11.1-14.17-1.1-1.5-3-2.78-4.1-4.4-1.97-2.68-4.4-4.77-6.5-7.2-.6-.7-.93-1.4-1.74-1.98.23-.47.1-.35.46-.7 3.7 0 5.47 2.56 7.67 4.18 5.35 4.18 9.76 9.17 13.7 14.5z" opacity=".88" fill="#231F20"/><path d="M273.3 91.5c.1-3.38-2.2-6.98-2.2-6.98l-.12-.35s-2.67-5.22-7.2-6.73c-4.53-1.5-8.13 1.86-8.13 1.86s-.58.7-2.32 2.67c-1.74 1.97-2.8 3.7-6.62 5.22-3.8 1.5-7.5 1.1-9.6.2-2-1-2.5-3-2.5-3s-1.3-4-1.7-5.8c-.4-1.9-1.7-9.3-1.7-9.3s-2.64-15.1-2.9-18.3c0 0 8.1-.7 20.3-4.3 12.7-3.7 16.88-6.6 16.88-6.6s-2.44-.8-2.67-3.6c-.22-2.8-.46-6.7-.46-6.7s-.46-2.8 2.67-6.3c3.15-3.5 7.44-4.77 9.77-5.2a52.8 52.8 0 0 1 11.5-.7c4.5.22 6.96.6 8.8 1.6 1.87.9 2 3.36 2 3.36V29s-.25 2.2 1.38 2.9c0 0 2.8 1.63 12.06.7 0 0 3.98-.7 10.25-2.55 6.13-1.86 22.74-6.73 25.06-7.43 2.34-.58 5.24-1.63 9.07-2.55A225.03 225.03 0 0 0 367.5 16c1.5-.58 9.96-3.37 16.1-4.4 6.1-1.05 12.3-1.05 15.5.8 0 0 1.98 1.63 2.9 3.6.94 1.98 2.68 4.76 5.1 6.04 2.58 1.28 4.2 2.1 10.35 1.5 0 0 .1-.57-2.2-2.08-2.3-1.5-5.44-3.83-5.44-3.83s-1.8-1.4-2.3-2.44c-.3-1.2-.2-1.8-.2-1.8l4.9-7.8s0-1 2.8-1.3c2.8-.4 5.9-.7 9.67-1.8 3.7-.96 4.3-1.77 4.3-1.77l3.25.93s19.5 15.67 25.68 19.73l1.05-1.3s2.44.1 4.53.9c2.2.8 5.33 3.15 5.33 3.15s8.9 7.2 11.34 12.06l1.3 3.7-.6.93s5.1 7.2 11.6 14.4c0 0 6.76 9.17 9.3 11.5 0 0-.56-2.2-1.14-4.65l1.8-1.2 1.15-.8 3.4 1.35a287.03 287.03 0 0 1 44.9 90l-.7 2.66 2.2 2.8a278.75 278.75 0 0 1 9.54 72.8c0 6.2-.3 12.3-.6 18.5l-1.6 2.8 1.2 3c-12.3 144-133.06 256.9-280.16 256.9-102.05 0-191.33-54.34-240.55-135.6l-.6-1.98-1.15-.83a278.63 278.63 0 0 1-36.3-105.3l1.17-2.9-1.86-2.68A286.8 286.8 0 0 1 .7 230c0-16.5 1.4-32.63 4.18-48.3l1.4-3.14-.48-1.86a282.05 282.05 0 0 1 35.65-92.64l3.7-2.1.48.24s1.27-.93 1.97-1.16l.47-.12s6.5-10.9 8.93-14.4c0 0 3.02-1.97 4.07-2.2 0 0 .7-.12 1.04.46 0 0 2.8-2.43 9.5-11.37 0 0 0-.1.1-.1 0 0-.5-.4-.7-.9-.1-.6.6-3.2 1-3.9.4-.7.6-.8.6-.8S82.16 36.5 90 29.8c0 0 1.4-1.1 3.73-1.4 0 0 8.1-3.3 18-12 0 0 .2-1.62 2.66-4.76 2.3-3.13 8-6.4 12.3-7.3 4.2-.94 5-.24 5-.24l.3.32 2.8 4.2s3.1-1.76 7.74-3.4c4.64-1.6 5.34-1.4 5.34-1.4l4.52 7.3-5.4 11.06s-3.6 7.8-9.17 12.1c0 0-2.6 1.5-6.2.7s-5.9 1.87-5.9 1.87l-.92.8s.8-.1 1.9-.54c0 0 .95.4 1.5 1.3.6.97 5 6.5 5 6.5s0 4.68-2.3 10.7-8.1 15.9-8.1 15.9-4.1 7.9-5.93 12.45c-1.85 4.5-2.8 9.74-2.66 12.4 0 0 1.05.37 3.96-1.14 3.6-1.87 5.9.1 5.9.1s3.95 2.9 5.7 4.87c1.4 1.64 4.4 9.76 1.15 17.78 0 0-2.2 5.6-7.54 9.54 0 0-1.1 1.85-8.42.92-1.97-.22-3.24-1.5-7.54-1.03-4.3.5-6.7 4.55-6.7 4.55l.1-.1c-3.87 5.45-6.4 13.57-6.4 13.57l-.35.94s-1.23 2.8-1.6 9.6c-.33 7.06 1.5 17.16 1.5 17.16s43.45-7.67 54.48-.36l3.27 2.9s.24.94-.1 2.1c-.5 1.16-2.1 3.7-5.5 6.15-3.35 2.44-6.7 8.7-1.72 12.65 5.7 4.55 9.3 4.2 18.9 2.58a36.8 36.8 0 0 0 16.05-6.93s5.33-3.94 4.3-8.94c-1.06-5-5.6-6.5-5.6-6.5s-3.6-2.3-.8-6.84c0 0 .8-3.85 14.03-7.3 13.33-3.5 37.6-8.4 58.14-10.95 0 0-14.06-45.4-4.07-51.2 0 0 2.4-1.62 6.7-2.2l3.95-.23c.7-.1 1.86 0 4.4.25 2.45.2 5.58.43 9.3-2.47 3.7-2.9 3.83-4.53 3.83-4.53" opacity=".38" fill="url(#L)"/></g></svg>