<svg width="107" height="67" viewBox="0 0 107 67" xmlns="http://www.w3.org/2000/svg"><title>Group</title><g fill="none" fill-rule="evenodd"><path d="M48.295 65.16h-.215c-1.106 0-1.26-.277-1.26-1.696v-6.69h1.475c3.194 0 3.777 2.343 3.777 4.163 0 1.88-.583 4.223-3.777 4.223zm-12.96-4.285v-4.1h1.26c1.38 0 1.995.956 1.995 2.065 0 1.08-.614 2.035-1.996 2.035h-1.26zm12.868-5.025h-5.497v.585c1.72 0 1.995.37 1.995 2.56v3.946c0 2.19-.27 2.59-1.99 2.59-1.32-.18-2.21-.89-3.44-2.25l-1.41-1.54c1.91-.34 2.92-1.54 2.92-2.9 0-1.69-1.44-2.99-4.14-2.99h-5.41v.59c1.72 0 2 .37 2 2.56v3.95c0 2.19-.27 2.59-1.99 2.59v.59h6.11v-.58c-1.72 0-1.99-.4-1.99-2.59v-1.11h.52l3.41 4.29h8.94c4.39 0 6.296-2.34 6.296-5.15 0-2.8-1.9-5.12-6.292-5.12zm-34.088 6.165l2.12-6.29c.613-1.818.337-2.34-1.628-2.34v-.618h5.773v.617c-1.935 0-2.395.462-3.163 2.712l-3.5 10.544h-.4l-3.133-9.65-3.194 9.65h-.4L3.183 56.096c-.737-2.25-1.228-2.712-3.01-2.712v-.617H6.99v.617c-1.812 0-2.303.43-1.658 2.342l2.057 6.29 3.1-9.25h.58l3.04 9.25m10.44-5.61c-2.83 0-3.81 2.557-3.81 4.56 0 2.036.98 4.564 3.81 4.564 2.85 0 3.84-2.528 3.84-4.563 0-2.004-.99-4.562-3.84-4.562zm0 10.11c-3.38 0-6.14-2.496-6.14-5.55 0-3.02 2.76-5.517 6.14-5.517s6.14 2.49 6.14 5.51c0 3.05-2.77 5.55-6.14 5.55z" fill="#006B8A"/><path d="M61.407 53.877h-1.75v5.364h1.75c1.72 0 2.52-1.2 2.52-2.65 0-1.48-.8-2.71-2.52-2.71zm.676 11.622v.61H55.05v-.61c2.058 0 2.426-.53 2.426-3.61v-4.93c0-3.09-.368-3.58-2.426-3.58v-.62h6.357c3.164 0 4.914 1.63 4.914 3.82 0 2.12-1.75 3.79-4.91 3.79h-1.75v1.51c0 3.08.37 3.61 2.43 3.61zm9.06-4.63v-4.1h1.26c1.38 0 1.995.95 1.995 2.06 0 1.08-.615 2.03-1.996 2.03h-1.26zm16.275 2.34l-.153.55c-.276 1.01-.615 1.38-2.795 1.38h-.43c-1.597 0-1.872-.37-1.872-2.56v-1.41c2.394 0 2.58.21 2.58 1.82h.582V58.4h-.583c0 1.6-.185 1.816-2.58 1.816v-3.45h1.69c2.18 0 2.517.37 2.793 1.387l.155.59h.49l-.214-2.89h-9.02v.584c1.72 0 2 .37 2 2.56v3.946c0 2.003-.23 2.507-1.59 2.58-1.29-.2-2.17-.904-3.38-2.24l-1.41-1.54c1.91-.34 2.92-1.544 2.92-2.9 0-1.695-1.44-2.99-4.14-2.99h-5.41v.585c1.72 0 2 .37 2 2.56v3.947c0 2.19-.275 2.59-1.995 2.59v.586h6.11v-.59c-1.72 0-2-.4-2-2.59v-1.11h.523l3.406 4.29H87.7l.183-2.89h-.463zm6.235 3.3c-1.23 0-2.304-.65-2.764-1.05-.16.15-.43.61-.5 1.05h-.59v-4.25h.61c.24 2.03 1.66 3.24 3.47 3.24.98 0 1.78-.56 1.78-1.48 0-.81-.71-1.42-1.97-2.01l-1.75-.83c-1.23-.59-2.15-1.6-2.15-2.96 0-1.48 1.38-2.74 3.28-2.74 1.012 0 1.872.37 2.394.8.152-.13.305-.47.4-.84h.58v3.63H95.8c-.215-1.45-1.014-2.65-2.64-2.65-.86 0-1.66.49-1.66 1.26 0 .8.645 1.23 2.12 1.91l1.69.83c1.473.71 2.056 1.85 2.056 2.772 0 1.944-1.69 3.3-3.747 3.3m9.46.005c-1.23 0-2.306-.648-2.766-1.05-.154.153-.43.616-.49 1.047h-.585v-4.25h.62c.246 2.032 1.66 3.234 3.47 3.234.983 0 1.78-.557 1.78-1.48 0-.803-.705-1.42-1.964-2.006l-1.75-.833c-1.23-.587-2.15-1.604-2.15-2.96 0-1.48 1.382-2.744 3.286-2.744 1.016 0 1.875.37 2.4.8.15-.12.304-.46.4-.83h.58v3.635h-.65c-.214-1.45-1.01-2.653-2.64-2.653-.86 0-1.66.494-1.66 1.264 0 .8.646 1.235 2.12 1.91l1.69.836c1.48.71 2.06 1.85 2.06 2.775 0 1.94-1.69 3.298-3.745 3.298M33.57 23.39c0 7.884 4.563 14.697 11.18 17.926l-9.463-26.032c-1.1 2.477-1.718 5.22-1.718 8.106m33.23-1.005c0-2.462-.88-4.166-1.64-5.493-1.01-1.64-1.95-3.03-1.95-4.67 0-1.832 1.38-3.536 3.33-3.536.09 0 .17.01.26.016-3.53-3.247-8.24-5.23-13.4-5.23-6.93 0-13.03 3.572-16.58 8.978.46.015.9.024 1.27.024 2.07 0 5.28-.253 5.28-.253 1.07-.06 1.19 1.52.12 1.65 0 0-1.077.13-2.27.19l7.225 21.57 4.34-13.07-3.09-8.5c-1.07-.06-2.08-.19-2.08-.19-1.07-.06-.943-1.7.127-1.64 0 0 3.27.25 5.22.25 2.077 0 5.29-.25 5.29-.25 1.07-.06 1.196 1.52.127 1.64 0 0-1.076.13-2.27.19l7.17 21.41 1.98-6.64c.857-2.76 1.51-4.73 1.51-6.44" fill="#3E3D39"/><path d="M53.758 25.132l-5.953 17.366c1.777.525 3.657.81 5.605.81 2.31 0 4.526-.4 6.588-1.128-.053-.085-.1-.175-.14-.274l-6.1-16.774M70.82 13.834c.085.635.133 1.316.133 2.05 0 2.02-.376 4.292-1.508 7.133l-6.06 17.59c5.898-3.454 9.866-9.87 9.866-17.217 0-3.463-.88-6.72-2.43-9.556" fill="#3E3D39"/><path d="M53.41 45.544c-12.168 0-22.07-9.938-22.07-22.154 0-12.215 9.902-22.153 22.07-22.153 12.167 0 22.067 9.938 22.067 22.153 0 12.216-9.9 22.154-22.067 22.154zm0-45.37c-12.753 0-23.128 10.414-23.128 23.216 0 12.804 10.375 23.22 23.128 23.22 12.752 0 23.13-10.416 23.13-23.22C76.54 10.588 66.16.173 53.41.173z" fill="#3E3D39"/></g></svg>