<svg width="17" height="16" viewBox="0 0 17 16" xmlns="http://www.w3.org/2000/svg"><title>Fill 3</title><path d="M8.376 0C3.846 0 .174 3.672.174 8.203c0 3.624 2.35 6.698 5.61 7.782.41.076.56-.177.56-.395 0-.194-.008-.71-.012-1.395-2.28.496-2.763-1.1-2.763-1.1-.375-.947-.91-1.2-.91-1.2-.747-.508.054-.498.054-.498.823.058 1.256.846 1.256.846.733 1.253 1.92.89 2.39.68.073-.53.285-.89.52-1.095-1.822-.207-3.737-.91-3.737-4.054 0-.896.32-1.628.844-2.2-.084-.21-.366-1.043.08-2.172 0 0 .69-.22 2.256.84.654-.18 1.356-.272 2.054-.276.697.004 1.398.095 2.053.277 1.566-1.062 2.254-.84 2.254-.84.447 1.128.166 1.962.082 2.17.525.573.843 1.305.843 2.2 0 3.152-1.92 3.845-3.747 4.048.294.255.556.756.556 1.52 0 1.098-.01 1.98-.01 2.25 0 .22.147.476.563.396 3.257-1.087 5.605-4.16 5.605-7.782C16.58 3.674 12.905 0 8.375 0" fill-opacity=".5" fill="#E3D9CE" fill-rule="evenodd"/></svg>