<svg width="17" height="14" viewBox="0 0 17 14" xmlns="http://www.w3.org/2000/svg"><title>Fill 1</title><path d="M16.875 1.603c-.62.272-1.288.456-1.988.538.715-.42 1.264-1.09 1.522-1.89-.67.397-1.41.68-2.2.83C13.58.42 12.68 0 11.68 0 9.77 0 8.22 1.53 8.22 3.418c0 .268.032.53.09.78C5.434 4.054 2.883 2.693 1.176.625c-.298.505-.47 1.092-.47 1.718 0 1.186.612 2.233 1.54 2.845-.566-.018-1.1-.172-1.567-.428v.043C.68 6.46 1.87 7.84 3.45 8.155c-.29.078-.596.12-.912.12-.222 0-.44-.022-.65-.062.44 1.358 1.72 2.347 3.234 2.374-1.185.916-2.678 1.463-4.3 1.463-.28 0-.555-.016-.826-.048 1.532.97 3.352 1.536 5.307 1.536 6.368 0 9.85-5.208 9.85-9.725 0-.15-.003-.296-.01-.443.677-.48 1.264-1.084 1.728-1.77" fill="#E3D8CD" opacity=".5" fill-rule="evenodd"/></svg>