<svg width="236" height="54" viewBox="0 0 236 54" xmlns="http://www.w3.org/2000/svg"><title>evilmartians</title><g fill="none" fill-rule="evenodd"><path d="M234.465 50.294l-3.073-3.176v-1.59c0-3.598-2.713-6.563-6.143-6.828v-2.17h1.53c3.682 0 6.65-3.072 6.65-6.884v-6.88c0-.584-.466-1.06-1.023-1.06-.57 0-1.025.476-1.025 1.06 0-.584-.466-1.06-1.024-1.06-.57 0-1.024.476-1.024 1.06 0-.584-.467-1.06-1.025-1.06-.57 0-1.025.476-1.025 1.06v5.822c0 .9-.674 1.59-1.543 1.59h-.52v-7.413h-12.797c-1.44 0-2.568-1.165-2.568-2.646 0-1.486 1.128-2.65 2.555-2.65h12.798v-1.053c1.128 0 2.05-.945 2.05-2.12 0-1.16-.922-2.105-2.05-2.105V8.478c0-3.707-1.997-5.824-5.64-5.824h-6.134c-3.63 0-5.628 2.12-5.628 5.827v3.7c-1.128 0-2.048.953-2.048 2.12 0 1.163.92 2.12 2.048 2.12v13.76h-.518c-.87 0-1.543-.688-1.543-1.588V22.76c0-.594-.467-1.067-1.025-1.067-.57 0-1.024.473-1.024 1.053 0-.58-.467-1.066-1.025-1.066-.57 0-1.024.472-1.024 1.053 0-.594-.468-1.067-1.025-1.067-.57 0-1.025.473-1.025 1.053v6.884c0 3.82 2.97 6.885 6.652 6.885h1.53v4.765c0 .904-.674 1.593-1.543 1.593h-3.58v9.53l3.074-3.172h1.53c2.762 0 5.11-1.755 6.133-4.24h10.23c.87 0 1.53.69 1.53 1.594v3.7h9.214l.095.034z" fill="#E2CBB5"/><path d="M219.62 2.646h-6.145c-3.644 0-5.64 2.12-5.64 5.825V9l1.024-1.06 1.53 1.59 1.53-1.593 1.53 1.58 1.53-1.594 1.53 1.58 1.53-1.593 1.53 1.58 1.53-1.594 1.53 1.593 1.53-1.594 1.024 1.053v-.527c0-3.713-1.997-5.832-5.64-5.832l.075.056z" fill="#BF6C35"/><ellipse fill="#FFF" cx="213.475" cy="13.235" rx="2.047" ry="2.118"/><ellipse fill="#FFF" cx="219.619" cy="13.235" rx="2.047" ry="2.118"/><ellipse fill="#9FA628" cx="213.475" cy="13.235" rx="1.024" ry="1.058"/><ellipse fill="#9FA628" cx="219.619" cy="13.235" rx="1.024" ry="1.058"/><path d="M213.476 15.83c-1.383 0-2.51-1.165-2.51-2.593 0-1.43 1.127-2.596 2.51-2.596 1.373 0 2.502 1.166 2.502 2.595 0 1.43-1.13 2.592-2.516 2.592l.014.002zm0-4.236c-.87 0-1.588.742-1.588 1.64 0 .902.717 1.643 1.587 1.643s1.582-.743 1.582-1.642c0-.9-.726-1.64-1.595-1.64h.014zm6.143 4.235c-1.384 0-2.51-1.165-2.51-2.593 0-1.43 1.128-2.596 2.51-2.596 1.38 0 2.507 1.166 2.507 2.595 0 1.43-1.116 2.592-2.503 2.592l-.005.002zm0-4.236c-.873 0-1.588.742-1.588 1.64 0 .902.715 1.643 1.587 1.643.868 0 1.585-.743 1.585-1.642 0-.9-.716-1.64-1.586-1.64zm16.073 39.23l-3.787-3.918V45.53c0-3.707-2.663-6.83-6.146-7.305V37.06h1.024c3.942 0 7.17-3.336 7.17-7.413v-6.87c0-.892-.663-1.58-1.532-1.58a1.41 1.41 0 0 0-1.024.43 1.41 1.41 0 0 0-1.024-.417 1.41 1.41 0 0 0-1.025.432c-.26-.257-.61-.42-1.025-.42-.87 0-1.53.69-1.53 1.594v5.82c0 .593-.454 1.065-1.025 1.065v-7.424h-2.554v-.27c0-.418-.35-.796-.765-.796-.4 0-.764.378-.764.796v.27h-1.53v-.27c0-.418-.35-.796-.765-.796-.4 0-.765.378-.765.796v.27h-1.543v-.27c0-.418-.35-.796-.765-.796-.402 0-.765.378-.765.796v.27h-1.53v-.27c0-.418-.35-.796-.765-.796-.402 0-.765.378-.765.796v.27c-1.128 0-2.05-.958-2.05-2.12 0-1.16.922-2.12 2.05-2.12h1.543v.27c0 .42.363.798.765.798.415 0 .778-.37.778-.797v-.262h1.543v.27c0 .42.364.793.78.793.414 0 .764-.378.764-.797v-.27h1.543v.258a.8.8 0 0 0 .778.783c.41 0 .766-.377.766-.796v-.27h1.538v.264c0 .426.358.796.765.796.412 0 .77-.368.77-.796v-.26h1.025v-1.12a2.64 2.64 0 0 0 2.05-2.593c0-1.27-.87-2.33-2.05-2.592v-3.24c0-4.023-2.254-6.352-6.144-6.352h-6.146c-3.89 0-6.146 2.323-6.146 6.346v3.226a2.644 2.644 0 0 0-2.05 2.592c0 1.275.87 2.336 2.05 2.6V29.64c-.562 0-1.025-.472-1.025-1.052v-5.832c0-.9-.66-1.59-1.533-1.59-.414 0-.77.156-1.024.42a1.445 1.445 0 0 0-1.024-.42c-.41 0-.77.163-1.025.425a1.41 1.41 0 0 0-1.023-.425c-.87 0-1.537.69-1.537 1.59v6.886c0 4.078 3.223 7.412 7.165 7.412h1.024v4.24c0 .58-.464 1.066-1.025 1.066h-4.1v11.326l3.787-3.915h1.333c2.762 0 5.278-1.64 6.454-4.24h9.932c.564 0 1.024.473 1.024 1.063v4.233h10.957-.08zm-9.933-20.118c1.128 0 2.05-.953 2.05-2.12v-5.82c0-.32.204-.53.51-.53.308 0 .513.216.513.54 0 .324.205.526.512.526.308 0 .51-.202.51-.526 0-.31.206-.527.513-.527.308 0 .513.215.513.54 0 .323.205.526.513.526.307 0 .512-.203.512-.527 0-.31.205-.527.51-.527.308 0 .513.216.513.54v6.885c0 3.496-2.762 6.358-6.133 6.358h-1.025v-5.292l-.01-.048zm0-17.895c.616.213 1.024.795 1.024 1.484 0 .688-.408 1.27-1.024 1.482v-2.964zm-19.45 1.484c0-.69.408-1.27 1.024-1.482v3.017a1.658 1.658 0 0 1-1.025-1.536zm17.404 30.176h-10.597l-.156.324c-.97 2.39-3.17 3.915-5.678 3.915h-1.742l-2.354 2.443v-7.736h3.07c1.128 0 2.05-.945 2.05-2.12v-5.29h-2.05c-3.378 0-6.142-2.863-6.142-6.346v-6.884c0-.31.205-.527.512-.527.307 0 .512.215.512.54 0 .323.204.526.51.526.3 0 .507-.216.507-.527 0-.31.207-.527.505-.527.3 0 .506.216.506.54 0 .324.208.526.506.526.298 0 .506-.217.506-.527 0-.31.194-.527.505-.527.3 0 .506.216.506.54v5.82c0 1.173.92 2.118 2.048 2.118h1.024V8.478c0-3.388 1.842-5.3 5.11-5.3h6.146c3.267 0 5.122 1.906 5.122 5.295v8.47h-12.28c-1.7 0-3.073 1.424-3.073 3.172 0 1.748 1.374 3.175 3.073 3.175h12.28v15.89l.453.054c3.164.263 5.68 3.016 5.68 6.35v1.8l2.347 2.436h-7.417v-3.178c0-1.22-.92-2.173-2.05-2.173h.06z" fill="#663F4C"/><path d="M10.75 22.765c-1.433 0-2.56-1.165-2.56-2.646 0-1.486 1.127-2.65 2.56-2.65h12.8V8.478c0-3.707-1.997-5.824-5.628-5.824h-6.148c-3.635 0-5.63 2.12-5.63 5.825v32.818c0 .904-.667 1.593-1.537 1.593H1.024v9.532l3.07-3.173h1.538c2.764 0 5.12-1.742 6.142-4.226h10.24c.868 0 1.535.688 1.535 1.593v3.712h9.22l-3.074-3.187V45.55c0-3.59-2.71-6.56-6.134-6.83V37.61h12.293l-2.554-2.12 3.074-1.052-3.06-1.053 2.554-2.12H23.575v-2.12h12.28L33.273 27l3.07-1.058-3.068-1.06 2.567-2.106H10.75v-.01z" fill="#9FA628"/><g transform="translate(9.725 11.117)" fill="#FFF"><ellipse cx="2.047" cy="2.118" rx="2.047" ry="2.118"/><ellipse cx="8.191" cy="2.118" rx="2.047" ry="2.118"/></g><g transform="translate(10.75 12.177)" fill="#BF6C35"><ellipse cx="1.024" cy="1.058" rx="1.024" ry="1.058"/><ellipse cx="7.167" cy="1.058" rx="1.024" ry="1.058"/></g><path d="M6.144 39.177v-5.295l-4.61 2.646 4.61 2.65zm0-5.295v-5.294l-4.61 2.646 4.61 2.65v-.002zm0-5.294v-5.292l-4.61 2.646 4.61 2.646zm-4.61-7.94l4.61 2.645V18l-4.61 2.647z" fill="#E2CBB5"/><path d="M23.548 22.235l-1.024-2.117-1.025 2.12h-1.022l-1.025-2.12-1.024 2.12h-1.026l-1.024-2.12-1.022 2.12h-1.024l-1.025-2.12-1.025 2.12H11.26l-1.02-2.12-.77 1.64c-.46-.423-.768-1.004-.768-1.64 0-1.006.674-1.854 1.595-2.066l.973 2.066 1.024-2.12h1.024l1.025 2.12 1.024-2.12h1.025l1.024 2.12 1.024-2.12h1.025l1.024 2.12 1.024-2.12h2.567V8.473c0-1.8-.453-3.23-1.27-4.29l1.323-1.376c.467.202.92.364 1.49.364.312 0 .52-.215.52-.525 0-.31-.208-.527-.52-.527-.97 0-1.542-.58-1.542-1.58 0-.323-.206-.526-.505-.526-.298 0-.505.203-.505.527 0 .58.155 1.052.415 1.484L22.15 3.4c-1.077-.796-2.452-1.268-4.19-1.268h-6.186c-1.74 0-3.122.472-4.147 1.323l-1.33-1.39c.205-.477.358-.953.358-1.536 0-.318-.205-.53-.51-.53-.31 0-.513.212-.513.53 0 1.005-.564 1.588-1.537 1.588-.307 0-.51.203-.51.527 0 .31.203.526.51.526.564 0 1.024-.16 1.434-.43l1.33 1.39C6.043 5.19 5.58 6.62 5.58 8.418v9.213L.46 20.642l4.608 2.646L.46 25.936l4.608 2.646L.46 31.228l4.608 2.657L.46 36.53l5.172 2.967v1.8c0 .583-.462 1.06-1.025 1.06H.512v11.328L4.3 49.768H5.63c2.764 0 5.272-1.642 6.45-4.237h9.932c.562 0 1.025.478 1.025 1.06v4.236H33.99l-3.787-3.928V45.52c0-3.712-2.663-6.83-6.146-7.303v-.108h13.26l-2.97-2.444 3.636-1.27-3.635-1.268 2.97-2.444H24.067v-1.066H37.32l-2.97-2.444 3.636-1.27-3.635-1.268 2.97-2.443H23.548v.04zm.512 1.06h10.29l-2.14 1.8 2.517.847-2.503.846 2.153 1.8H24.08v-5.292l-.02-.002zM5.632 18.9v3.494L2.61 20.647 5.632 18.9zm0 5.295v3.494L2.61 25.94l3.022-1.747zm0 5.292v3.496L2.61 31.235l3.022-1.747zM2.61 36.53l3.022-1.755v3.496L2.61 36.517v.014zM6.656 8.463c0-3.388 1.84-5.305 5.118-5.305h6.144c3.275 0 5.12 1.903 5.12 5.292v8.464H10.75c-1.69 0-3.07 1.43-3.07 3.173 0 1.74 1.38 3.172 3.072 3.172h12.285v8.464H34.35l-2.14 1.795 2.517.85-2.503.85 2.14 1.81h-11.32v2.12l.467.054c3.177.208 5.693 3.01 5.693 6.295v1.8l2.36 2.437H24.08v-3.162c0-1.165-.92-2.12-2.048-2.12H11.424l-.156.32c-.92 2.383-3.125 3.914-5.63 3.914H3.89l-2.355 2.443V43.41h3.073c1.126 0 2.047-.952 2.047-2.12V8.464zm5.118 7.358c1.382 0 2.51-1.174 2.51-2.59 0-1.432-1.13-2.607-2.51-2.607-1.382 0-2.508 1.16-2.508 2.592 0 1.43 1.126 2.592 2.508 2.592v.014zm0-4.238c.87 0 1.587.742 1.587 1.633 0 .89-.717 1.647-1.586 1.647-.87 0-1.587-.742-1.587-1.647 0-.904.718-1.632 1.587-1.632zm6.144 4.225c1.382 0 2.508-1.174 2.508-2.592 0-1.43-1.126-2.605-2.508-2.605-1.382 0-2.51 1.16-2.51 2.592 0 1.43 1.13 2.592 2.51 2.592v.013zm0-4.24c.87 0 1.587.744 1.587 1.635 0 .89-.717 1.633-1.587 1.633s-1.587-.742-1.587-1.647c0-.904.718-1.647 1.588-1.647v.028z" fill="#663F4C"/><path d="M69.11 16.942h4.098v25.412H69.11V16.942zm15.357 25.41v-3.707h-6.142V16.942H74.23v25.412h10.24l-.003-.002zm-23.548 0c3.94 0 7.167-3.334 7.167-7.41V16.94H63.99v18.53c0 1.745-1.38 3.174-3.07 3.174h-1.025V16.943H55.8v25.41h5.12zm57.335-25.41c-3.942 0-7.166 3.335-7.166 7.412v18h4.096v-9h4.094v9h4.095V16.942h-5.12zm-3.07 12.704v-5.823c0-1.746 1.374-3.176 3.06-3.176h1.024v9h-4.085zm21.5-5.292c0-4.077-3.23-7.412-7.172-7.412h-5.122v25.412h4.086v-9h1.024c1.686 0 3.074 1.43 3.074 3.176v5.818h4.097v-5.292c0-2.39-1.127-4.347-2.813-5.562 1.738-1.215 2.814-3.186 2.814-5.562v-1.58l.014.002zm-4.098 2.117c0 1.748-1.388 3.177-3.074 3.177h-1.024v-8.992h1.023c1.686 0 3.074 1.43 3.074 3.177v2.646-.007zm28.67-9.53c-3.942 0-7.17 3.337-7.17 7.41v18.004h4.097v-8.472h4.097v8.472h4.086V16.942h-5.122l.013-.002zm-3.073 13.237v-6.354c0-1.746 1.374-3.176 3.073-3.176h1.024v9.53h-4.096zM147.94 16.94h-10.23v3.7h3.06v21.708h4.096V20.642h3.06v-3.7h.014zm1.024 0h4.098V42.35h-4.098V16.94zm-47.096 6.873c0-1.755 1.374-3.186 3.073-3.186h1.025v21.708h4.098V16.942h-5.122c-1.996 0-3.837 1.112-5.12 2.752-1.285-1.64-3.126-2.754-5.123-2.754h-5.11v25.41h4.086V20.64l1.024.002c1.686 0 3.073 1.43 3.073 3.18v18.527h4.085V23.825l.013-.012zm73.717 18.522h4.098V16.942h-4.098v2.964c-1.543-1.852-3.682-2.965-6.146-2.965h-2.05V42.35h4.098V21.546c2.1.9 4.084 3.442 4.084 5.983V42.35l.013-.017zM43.505 16.942v17.996c0 4.077 3.226 7.41 7.168 7.41l4.097.002v-3.706h-4.097c-1.69 0-3.074-1.43-3.074-3.175v-6.35h6.143V25.41h-6.14v-4.765h7.167v-3.704H43.504zm149.483 8.47v-2.12c0-4.765-2.2-6.88-6.142-6.88s-6.147 2.805-6.147 6.882c0 7.94 8.186 7.992 8.186 12.706v.53c0 1.58-.514 2.646-2.05 2.646-1.536 0-2.048-1.067-2.048-2.646v-2.66h-4.095v2.12c0 4.806 2.2 6.87 6.142 6.87s6.142-2.807 6.142-6.884c0-7.897-8.183-7.95-8.183-12.717v-.527c0-1.593.52-2.646 2.05-2.646 1.542 0 2.048 1.053 2.048 2.646v2.646h4.098l-.002.032zM89.178 8.63c-1.18 0-2.05-.425-2.56-.954l.766-.9a2.473 2.473 0 0 0 1.737.69c.61 0 1.077-.32 1.077-.797 0-.476-.26-.69-1.128-.953-1.492-.476-2.05-1.058-2.05-2.065 0-1.215 1.077-1.904 2.4-1.904.972 0 1.737.316 2.243.847l-.726.846a2.09 2.09 0 0 0-1.44-.54c-.57 0-.972.204-.972.636 0 .418.298.58 1.27.89 1.232.42 1.945.892 1.945 2.12-.05 1.215-1.024 2.066-2.606 2.066l.043.017zm4.97-.53v2.33l-1.487.158v-7.2h1.324l.052.58c.402-.526.868-.74 1.322-.74 1.27 0 1.79 1.06 1.79 2.7 0 1.59-.713 2.7-1.893 2.7a1.43 1.43 0 0 1-1.13-.528h.022zm1.533-2.17c0-1.27-.254-1.588-.767-1.588-.307 0-.562.212-.767.58v2.12c.205.317.408.422.716.422.512.054.82-.378.82-1.54v.005zm7.066 0c0 1.693-.87 2.7-2.406 2.7-1.478 0-2.4-1.007-2.4-2.7 0-1.588.87-2.7 2.413-2.7 1.543 0 2.412 1.058 2.412 2.7h-.02zm-3.277 0c0 1.112.245 1.588.868 1.588.61 0 .868-.486.868-1.593 0-1.12-.26-1.593-.868-1.593-.623 0-.882.473-.882 1.58l.013.017zm4.24 2.54V3.39h1.27l.104.58c.402-.526.92-.74 1.53-.74.868 0 1.322.53 1.322 1.536v3.7h-1.477v-3.28c0-.635-.104-.796-.462-.796-.306 0-.562.213-.87.634v3.442h-1.425l.006.007zm8.285-1.376c0-.317-.195-.424-1.167-.742-.87-.264-1.53-.69-1.53-1.588 0-.904.765-1.593 2.14-1.593.816 0 1.53.258 1.944.582l-.622.904c-.363-.27-.817-.378-1.336-.378-.518 0-.713.108-.713.365 0 .256.21.364 1.18.634.974.257 1.583.635 1.583 1.58 0 1.107-1.076 1.687-2.308 1.687-.972 0-1.7-.27-2.204-.742l.714-.85c.35.31.87.472 1.426.472.506.094.87-.054.87-.378l.025.048zm7.326-1.165c0 1.693-.867 2.7-2.398 2.7-1.49 0-2.41-1.007-2.41-2.7 0-1.588.867-2.7 2.397-2.7 1.53 0 2.398 1.058 2.398 2.7h.013zm-3.266 0c0 1.112.26 1.588.868 1.588.61 0 .87-.486.87-1.593 0-1.12-.26-1.593-.87-1.593-.622 0-.868.473-.868 1.58v.017zm8.04 2.54h-3.748V7.41l1.024.002V4.447h-1.024V3.39l2.308-.002.104.954c.194-.69.765-1.113 1.322-1.113.26 0 .415.053.623.107l-.26 1.482c-.207-.054-.363-.054-.557-.054-.623 0-.973.526-1.128 1.16v1.486h1.22v1.052h.102l.013.007zm3.02-2.064c.09.794.558 1.165 1.168 1.165.402 0 .816-.16 1.23-.476l.61.847c-.466.372-1.18.69-1.944.69-1.686 0-2.568-1.112-2.568-2.7 0-1.483.87-2.7 2.36-2.7 1.427 0 2.308.952 2.308 2.594 0 .158 0 .37-.05.53H127.1v.053h.013zm0-.953h1.79c0-.69-.26-1.23-.87-1.23-.517 0-.868.366-.92 1.216v.013zm7.055-1.755V1.215l1.477.16V8.47h-1.336l-.05-.53c-.26.377-.714.688-1.336.688-1.232 0-1.803-1.053-1.803-2.7 0-1.58.766-2.7 1.946-2.7.402 0 .765.162 1.077.486l.026-.016zm-1.532 2.214c0 1.27.3 1.58.766 1.58.31 0 .557-.217.765-.595v-2.16c-.21-.27-.416-.432-.715-.432-.518 0-.817.473-.817 1.58v.027zM143.336 3.9c.3-.432.765-.688 1.232-.688 1.27 0 1.79 1.053 1.79 2.7 0 1.58-.675 2.7-1.945 2.7-.52 0-.92-.216-1.232-.635l-.05.473h-1.337V1.377l1.49-.16v2.7h.053V3.9zm1.53 2.012c0-1.27-.31-1.593-.778-1.593-.31 0-.57.2-.778.58v2.12c.195.32.402.478.714.478.505 0 .816-.425.816-1.59l.026.004zm2.153-2.538h1.53l.92 4.023h.052l1.024-4.023h1.53L150.43 8.45c-.416 1.377-1.284 2.065-2.763 2.12l-.155-1.067c.972-.108 1.322-.432 1.582-1.067h-.52l-1.58-5.09.025.028z" fill="#583345"/></g></svg>