<svg width="182" height="40" viewBox="0 0 182 40" xmlns="http://www.w3.org/2000/svg"><title>Group</title><g fill="none" fill-rule="evenodd"><path d="M180.816 37.255l-2.37-2.353v-1.177c0-2.666-2.092-4.862-4.737-5.058V27.06h1.18c2.84 0 5.13-2.276 5.13-5.1v-5.097c0-.432-.36-.785-.79-.785-.44 0-.79.353-.79.785 0-.432-.36-.785-.79-.785-.44 0-.79.353-.79.785 0-.432-.36-.785-.79-.785-.44 0-.79.353-.79.785v4.313c0 .667-.52 1.177-1.19 1.177h-.4v-5.49h-9.87c-1.11 0-1.98-.863-1.98-1.96 0-1.1.87-1.962 1.97-1.962h9.87v-.78c.87 0 1.58-.7 1.58-1.57 0-.86-.71-1.56-1.58-1.56V6.28c0-2.746-1.54-4.314-4.35-4.314h-4.73c-2.8 0-4.34 1.57-4.34 4.316v2.74c-.87 0-1.58.706-1.58 1.57 0 .862.71 1.57 1.58 1.57v10.194h-.4c-.67 0-1.19-.51-1.19-1.177v-4.32c0-.44-.36-.79-.79-.79-.44 0-.79.35-.79.78 0-.43-.36-.79-.79-.79-.44 0-.79.35-.79.78 0-.44-.36-.79-.79-.79-.44 0-.79.35-.79.78v5.1c0 2.83 2.29 5.1 5.13 5.1h1.18v3.53c0 .67-.52 1.18-1.19 1.18h-2.76v7.06l2.37-2.35h1.18c2.13 0 3.94-1.3 4.73-3.14h7.89c.67 0 1.18.51 1.18 1.18v2.74h7.105z" fill="#E2CBB5"/><path d="M169.367 1.96h-4.738c-2.81 0-4.35 1.57-4.35 4.315v.392l.79-.785 1.18 1.177 1.18-1.18 1.18 1.17 1.18-1.18 1.18 1.17 1.18-1.18 1.18 1.17 1.18-1.18 1.18 1.18 1.18-1.18.79.78v-.39c0-2.75-1.54-4.32-4.35-4.32z" fill="#BF6C35"/><ellipse fill="#FFF" cx="164.629" cy="9.804" rx="1.579" ry="1.569"/><ellipse fill="#FFF" cx="169.367" cy="9.804" rx="1.579" ry="1.569"/><ellipse fill="#9FA628" cx="164.629" cy="9.804" rx=".79" ry=".784"/><ellipse fill="#9FA628" cx="169.367" cy="9.804" rx=".79" ry=".784"/><path d="M164.63 11.725c-1.067 0-1.935-.862-1.935-1.92 0-1.06.868-1.923 1.934-1.923 1.06 0 1.93.863 1.93 1.922 0 1.06-.87 1.92-1.94 1.92zm0-3.137c-.672 0-1.225.55-1.225 1.216 0 .667.553 1.216 1.224 1.216.67 0 1.22-.55 1.22-1.216 0-.667-.56-1.216-1.23-1.216zm4.737 3.137c-1.066 0-1.935-.862-1.935-1.92 0-1.06.87-1.923 1.935-1.923 1.066 0 1.934.863 1.934 1.922 0 1.06-.86 1.92-1.93 1.92zm0-3.137c-.672 0-1.224.55-1.224 1.216 0 .667.552 1.216 1.224 1.216.67 0 1.223-.55 1.223-1.216 0-.667-.552-1.216-1.223-1.216zm12.396 29.06l-2.92-2.903v-1.02c0-2.745-2.054-5.058-4.74-5.41v-.864h.79c3.04 0 5.528-2.47 5.528-5.49v-5.09c0-.66-.51-1.17-1.18-1.17-.31 0-.59.12-.79.32-.19-.19-.47-.31-.79-.31-.31 0-.59.12-.79.32-.2-.19-.47-.31-.79-.31-.67 0-1.18.51-1.18 1.18v4.31c0 .44-.35.79-.79.79v-5.5h-1.97v-.2c0-.31-.27-.59-.59-.59-.31 0-.59.28-.59.59v.2h-1.18v-.2c0-.31-.27-.59-.59-.59-.31 0-.59.28-.59.59v.2h-1.19v-.2c0-.31-.27-.59-.59-.59-.31 0-.59.28-.59.59v.2h-1.18v-.2c0-.31-.27-.59-.59-.59-.31 0-.59.28-.59.59v.2c-.87 0-1.58-.71-1.58-1.57 0-.86.71-1.57 1.58-1.57h1.19v.2c0 .31.28.59.59.59.32 0 .6-.274.6-.59v-.194h1.19v.2c0 .31.28.587.6.587.32 0 .59-.28.59-.59v-.2h1.19v.19c0 .31.28.58.6.58.315 0 .59-.28.59-.59v-.2h1.186v.195c0 .316.276.59.59.59.317 0 .594-.273.594-.59v-.193h.79v-.83c.91-.195 1.58-.98 1.58-1.92s-.67-1.725-1.58-1.92v-2.4c0-2.98-1.738-4.705-4.738-4.705h-4.74c-3 0-4.74 1.72-4.74 4.7v2.39c-.91.2-1.58.98-1.58 1.92 0 .944.67 1.73 1.58 1.925v9.45c-.433 0-.79-.35-.79-.78v-4.32c0-.667-.51-1.177-1.182-1.177-.32 0-.595.115-.79.31-.2-.19-.476-.31-.79-.31-.317 0-.594.12-.79.314-.2-.197-.475-.315-.79-.315-.67 0-1.185.51-1.185 1.178v5.1c0 3.02 2.485 5.49 5.525 5.49h.79v3.14c0 .43-.357.79-.79.79H156v8.39l2.92-2.9h1.028c2.13 0 4.07-1.214 4.977-3.14h7.66c.435 0 .79.35.79.787v3.136h8.45zm-7.66-14.903c.87 0 1.58-.706 1.58-1.57v-4.312c0-.236.158-.392.395-.392.237 0 .395.16.395.4 0 .24.158.39.395.39.237 0 .394-.15.394-.39 0-.23.158-.39.395-.39.237 0 .395.16.395.4 0 .24.158.39.395.39.237 0 .395-.15.395-.39 0-.23.158-.39.394-.39.237 0 .395.16.395.4v5.1c0 2.59-2.13 4.71-4.73 4.71h-.79v-3.92zm0-13.255c.475.157.79.588.79 1.098 0 .51-.315.94-.79 1.098V9.49zm-15 1.098c0-.51.315-.94.79-1.098v2.235c-.475-.196-.79-.627-.79-1.137zm13.422 22.353h-8.172l-.12.24c-.75 1.77-2.446 2.9-4.38 2.9h-1.343l-1.816 1.81v-5.73h2.368c.87 0 1.58-.7 1.58-1.57v-3.92h-1.58c-2.605 0-4.737-2.12-4.737-4.7v-5.1c0-.23.158-.39.395-.39.237 0 .395.16.395.4 0 .24.157.39.394.39.23 0 .39-.16.39-.39s.16-.39.39-.39.39.16.39.4c0 .24.16.39.39.39s.39-.16.39-.39.15-.39.39-.39c.23 0 .39.16.39.4v4.31c0 .87.71 1.57 1.58 1.57h.79V6.28c0-2.51 1.42-3.926 3.94-3.926h4.74c2.52 0 3.95 1.412 3.95 3.922v6.274h-9.47c-1.31 0-2.37 1.055-2.37 2.35s1.06 2.352 2.37 2.352h9.47v11.77l.35.04c2.44.195 4.38 2.234 4.38 4.705V35.1l1.81 1.804h-5.72V34.55c0-.903-.71-1.61-1.58-1.61z" fill="#663F4C"/><path d="M8.29 16.863c-1.105 0-1.973-.863-1.973-1.96 0-1.1.868-1.962 1.974-1.962h9.87V6.28c0-2.746-1.54-4.314-4.34-4.314H9.08c-2.803 0-4.342 1.57-4.342 4.315v24.31c0 .67-.514 1.18-1.185 1.18H.79v7.06l2.368-2.35h1.185c2.132 0 3.948-1.29 4.737-3.13h7.896c.67 0 1.185.51 1.185 1.18v2.75h7.11l-2.37-2.36v-1.18c0-2.66-2.09-4.86-4.73-5.06v-.82h9.48l-1.97-1.57 2.37-.78-2.36-.78 1.97-1.57h-9.48v-1.57h9.47L25.66 20l2.368-.784-2.367-.785 1.98-1.56H8.29z" fill="#9FA628"/><g transform="translate(7.5 8.235)" fill="#FFF"><ellipse cx="1.579" cy="1.569" rx="1.579" ry="1.569"/><ellipse cx="6.317" cy="1.569" rx="1.579" ry="1.569"/></g><g transform="translate(8.29 9.02)" fill="#BF6C35"><ellipse cx=".79" cy=".784" rx=".79" ry=".784"/><ellipse cx="5.527" cy=".784" rx=".79" ry=".784"/></g><path d="M4.738 29.02v-3.922l-3.554 1.96 3.554 1.962zm0-3.922v-3.922l-3.554 1.96L4.738 25.1zm0-3.922v-3.92l-3.554 1.96 3.554 1.96zm-3.554-5.882l3.554 1.96v-3.92l-3.554 1.96z" fill="#E2CBB5"/><path d="M18.16 16.47l-.79-1.568-.79 1.57h-.788l-.79-1.57-.79 1.57h-.79l-.79-1.57-.788 1.57h-.79l-.79-1.57-.79 1.57h-.79l-.788-1.57-.592 1.216c-.356-.314-.593-.745-.593-1.216 0-.745.52-1.373 1.23-1.53l.75 1.53.79-1.57h.79l.79 1.57.79-1.57h.79l.79 1.57.79-1.57h.79l.79 1.57.79-1.57h1.98V6.276c0-1.334-.35-2.393-.98-3.177l1.02-1.02c.36.15.71.27 1.15.27.24 0 .4-.16.4-.39s-.16-.39-.4-.39c-.75 0-1.19-.43-1.19-1.17 0-.24-.16-.39-.39-.39s-.39.15-.39.39c0 .43.12.78.32 1.1l-1.03 1.02c-.83-.59-1.89-.94-3.23-.94H9.08c-1.342 0-2.408.35-3.198.98L4.856 1.53c.158-.354.276-.706.276-1.138C5.132.157 4.974 0 4.738 0c-.237 0-.395.157-.395.392 0 .745-.435 1.177-1.185 1.177-.237 0-.394.15-.394.39 0 .23.157.39.394.39.435 0 .79-.12 1.106-.32L5.29 3.06c-.63.783-.987 1.842-.987 3.175v6.824L.355 15.29l3.553 1.96-3.553 1.962 3.553 1.96-3.553 1.96L3.908 25.1.355 27.06l3.988 2.197v1.333c0 .432-.356.785-.79.785H.395v8.392l2.92-2.902h1.028c2.132 0 4.066-1.216 4.974-3.138h7.66c.433 0 .79.353.79.785v3.137h8.447l-2.92-2.91v-1.02c0-2.75-2.054-5.06-4.74-5.41v-.08H28.78l-2.29-1.81 2.804-.94-2.803-.94 2.29-1.81H18.56v-.79h10.22l-2.29-1.81 2.804-.94-2.803-.94 2.29-1.81H18.16zm.395.785h7.936l-1.65 1.333 1.94.628-1.93.627 1.66 1.333h-7.94v-3.92zM4.343 14v2.588l-2.33-1.294L4.343 14zm0 3.922v2.588l-2.33-1.294 2.33-1.294zm0 3.92v2.59l-2.33-1.295 2.33-1.294zm-2.33 5.217l2.33-1.3v2.59l-2.33-1.3zm3.12-20.79c0-2.51 1.42-3.93 3.947-3.93h4.738c2.526 0 3.948 1.41 3.948 3.92v6.27H8.29c-1.302 0-2.368 1.06-2.368 2.35s1.066 2.35 2.37 2.35h9.474v6.27h8.725l-1.65 1.33 1.94.63-1.93.63 1.65 1.34h-8.73V29l.36.04c2.45.154 4.39 2.23 4.39 4.663v1.333l1.82 1.806h-5.77V34.5c0-.863-.71-1.57-1.58-1.57H8.81l-.12.236c-.71 1.766-2.41 2.9-4.343 2.9H3l-1.816 1.81v-5.72h2.37c.868 0 1.578-.706 1.578-1.57V6.276zm3.947 5.45c1.066 0 1.935-.87 1.935-1.92 0-1.06-.87-1.93-1.935-1.93-1.066 0-1.934.86-1.934 1.92s.868 1.92 1.934 1.92zm0-3.14c.67 0 1.224.55 1.224 1.21s-.554 1.22-1.224 1.22c-.67 0-1.224-.55-1.224-1.22S8.41 8.58 9.08 8.58zm4.738 3.13c1.066 0 1.934-.87 1.934-1.92 0-1.06-.868-1.93-1.934-1.93-1.066 0-1.935.86-1.935 1.92s.87 1.92 1.935 1.92zm0-3.14c.67 0 1.224.55 1.224 1.21 0 .66-.553 1.21-1.224 1.21-.67 0-1.224-.55-1.224-1.22s.553-1.22 1.224-1.22z" fill="#663F4C"/><path d="M53.297 12.55h3.16v18.823h-3.16V12.55zM65.14 31.372v-2.746h-4.737V12.55h-3.158v18.823h7.896zm-18.16 0c3.04 0 5.528-2.47 5.528-5.49V12.548h-3.16v13.725c0 1.294-1.065 2.352-2.368 2.352h-.79V12.55h-3.157v18.823h3.947zM91.197 12.55c-3.04 0-5.527 2.47-5.527 5.49v13.333h3.16v-6.667h3.157v6.667h3.158V12.55h-3.948zm-2.368 9.41v-4.313c0-1.294 1.06-2.353 2.36-2.353h.79v6.667h-3.15zm16.58-3.92c0-3.02-2.49-5.49-5.53-5.49h-3.95v18.823h3.15v-6.667h.79c1.3 0 2.37 1.06 2.37 2.353v4.31h3.16v-3.92c0-1.77-.87-3.22-2.17-4.12 1.34-.9 2.17-2.36 2.17-4.12v-1.17zm-3.16 1.568c0 1.294-1.07 2.353-2.37 2.353h-.79V15.3h.79c1.3 0 2.37 1.06 2.37 2.353v1.96zm22.11-7.06c-3.04 0-5.53 2.472-5.53 5.49v13.335h3.16v-6.275h3.16v6.275h3.15V12.55h-3.95zm-2.37 9.805v-4.706c0-1.294 1.06-2.353 2.37-2.353h.79v7.06h-3.16zm-7.9-9.804h-7.89v2.74h2.36v16.08h3.16V15.29h2.36v-2.74zm.79 0h3.16v18.82h-3.16V12.55zm-36.32 5.09c0-1.3 1.06-2.36 2.37-2.36h.79v16.08h3.16V12.55h-3.95c-1.54 0-2.96.823-3.95 2.038-.99-1.215-2.41-2.04-3.95-2.04h-3.94V31.37h3.15V15.29h.79c1.3 0 2.37 1.06 2.37 2.355V31.37h3.15V17.648zm56.85 13.72h3.16V12.55h-3.16v2.195c-1.19-1.372-2.84-2.196-4.74-2.196h-1.58v18.82h3.16V15.96c1.62.667 3.15 2.55 3.15 4.432v10.98zM33.55 12.55v13.33c0 3.02 2.488 5.49 5.528 5.49h3.16v-2.745h-3.16c-1.303 0-2.37-1.058-2.37-2.352V21.57h4.738v-2.746H36.71v-3.53h5.528V12.55h-8.685zm115.28 6.274v-1.57c0-3.53-1.697-5.097-4.737-5.097s-4.74 2.078-4.74 5.098c0 5.882 6.313 5.92 6.313 9.412v.392c0 1.17-.396 1.96-1.58 1.96-1.185 0-1.58-.79-1.58-1.96v-1.97h-3.158v1.57c0 3.56 1.697 5.09 4.737 5.09s4.736-2.08 4.736-5.1c0-5.85-6.31-5.89-6.31-9.42v-.39c0-1.18.4-1.96 1.58-1.96 1.19 0 1.58.78 1.58 1.96v1.96h3.16zM68.772 6.392c-.91 0-1.58-.314-1.973-.706l.59-.666c.35.313.79.51 1.34.51.47 0 .83-.236.83-.59 0-.352-.2-.51-.87-.705-1.15-.353-1.58-.784-1.58-1.53 0-.9.83-1.41 1.85-1.41.75 0 1.34.234 1.73.627l-.56.627c-.32-.28-.71-.4-1.11-.4-.44 0-.75.15-.75.47 0 .31.23.43.98.66.95.31 1.5.66 1.5 1.57-.04.9-.79 1.53-2.01 1.53zM72.605 6v1.725l-1.146.118V2.51h1.02l.04.43c.31-.39.67-.548 1.02-.548.98 0 1.38.784 1.38 2 0 1.177-.55 2-1.46 2-.32 0-.63-.117-.87-.392zm1.183-1.608c0-.94-.197-1.176-.592-1.176-.237 0-.434.157-.592.43v1.57c.158.235.315.313.552.313.395.04.632-.28.632-1.14zm5.448 0c0 1.255-.67 2-1.855 2-1.14 0-1.85-.745-1.85-2 0-1.176.67-2 1.86-2s1.86.784 1.86 2zm-2.527 0c0 .824.19 1.177.67 1.177.47 0 .67-.36.67-1.18 0-.83-.2-1.18-.67-1.18-.48 0-.68.35-.68 1.17zm3.27 1.883V2.51h.98l.08.43c.31-.39.71-.548 1.18-.548.67 0 1.02.392 1.02 1.137v2.74H82.1V3.84c0-.47-.08-.59-.356-.59-.236 0-.433.158-.67.47v2.55h-1.1zm6.39-1.02c0-.235-.15-.314-.9-.55-.67-.195-1.18-.51-1.18-1.176 0-.67.59-1.18 1.65-1.18.63 0 1.18.19 1.5.43l-.48.67c-.28-.2-.63-.28-1.03-.28s-.55.08-.55.27.16.27.91.47c.75.19 1.22.47 1.22 1.17 0 .82-.83 1.25-1.78 1.25-.75 0-1.31-.2-1.7-.55l.55-.63c.27.23.67.35 1.1.35.39.07.67-.04.67-.28zm5.65-.863c0 1.255-.67 2-1.85 2-1.15 0-1.86-.745-1.86-2 0-1.176.67-2 1.85-2s1.85.784 1.85 2zm-2.52 0c0 .824.2 1.177.67 1.177.47 0 .67-.36.67-1.18 0-.83-.2-1.18-.67-1.18-.48 0-.67.35-.67 1.17zm6.2 1.883h-2.89V5.49h.79V3.294h-.79V2.51h1.78l.08.706c.15-.51.59-.824 1.02-.824.2 0 .32.04.48.08l-.2 1.098c-.16-.04-.28-.04-.43-.04-.48 0-.75.39-.87.86v1.1h.94v.78h.08zm2.33-1.53c.07.588.43.863.9.863.31 0 .63-.118.95-.353l.47.627c-.36.275-.91.51-1.5.51-1.3 0-1.98-.823-1.98-2 0-1.098.67-2 1.82-2 1.1 0 1.78.706 1.78 1.922 0 .117 0 .274-.04.392h-2.41v.04zm0-.706h1.38c0-.51-.2-.91-.67-.91-.4 0-.67.27-.71.9zm5.44-1.3V.9l1.14.118v5.256h-1.03l-.04-.393c-.2.28-.55.51-1.03.51-.95 0-1.39-.78-1.39-2 0-1.17.59-2 1.5-2 .31 0 .59.12.83.36zm-1.18 1.64c0 .94.23 1.17.59 1.17.24 0 .43-.16.59-.44v-1.6c-.16-.2-.32-.32-.55-.32-.4 0-.63.35-.63 1.17zm8.25-1.49c.23-.32.59-.51.95-.51.98 0 1.38.78 1.38 2 0 1.17-.52 2-1.5 2-.4 0-.71-.16-.95-.47l-.04.35h-1.03V1.02l1.15-.118v2h.04zm1.18 1.49c0-.94-.24-1.18-.6-1.18-.24 0-.44.15-.6.43V5.2c.15.236.31.354.55.354.39 0 .63-.315.63-1.178zm1.66-1.88h1.18l.71 2.98h.04l.79-2.98h1.18l-1.27 3.76c-.32 1.02-.99 1.53-2.13 1.57l-.12-.79c.75-.08 1.02-.32 1.22-.79h-.4l-1.22-3.77z" fill="#583345"/></g></svg>