<svg width="152" height="126" viewBox="0 0 152 126" xmlns="http://www.w3.org/2000/svg"><title>postcss-logo-vertical</title><g fill="none" fill-rule="evenodd"><path d="M132.228 123.436l.322-7.774h3.22l.828 4.922c1.32.49 2.637.736 3.956.736 2.637 0 4.447-.86 5.428-2.576.337-.583.506-1.342.506-2.277s-.284-1.78-.85-2.53c-.568-.75-1.504-1.45-2.807-2.093-1.3-.644-2.59-1.227-3.86-1.748-1.27-.52-2.42-1.142-3.45-1.863-1.02-.72-1.87-1.61-2.53-2.668-.66-1.058-.99-2.33-.99-3.818 0-1.487.27-2.737.81-3.75.54-1.01 1.27-1.87 2.19-2.575 1.93-1.472 4.3-2.208 7.09-2.208 2.7 0 5.29.46 7.78 1.38l.65 7.912h-3.17l-2.02-4.968c-.92-.307-2.08-.46-3.47-.46s-2.58.322-3.54.966c-.96.644-1.45 1.625-1.45 2.944 0 1.533.77 2.79 2.3 3.772.68.46 1.43.866 2.26 1.22.83.352 1.79.773 2.88 1.264 1.09.49 2.11 1.073 3.06 1.748.95.675 1.72 1.38 2.3 2.116 1.11 1.38 1.66 2.96 1.66 4.738 0 1.78-.3 3.243-.89 4.393-.6 1.15-1.4 2.09-2.41 2.82-1.9 1.41-4.41 2.11-7.54 2.11s-5.86-.59-8.19-1.75zm-23.322 0l.322-7.774h3.22l.828 4.922c1.32.49 2.637.736 3.956.736 2.637 0 4.447-.86 5.428-2.576.337-.583.506-1.342.506-2.277s-.284-1.78-.85-2.53c-.568-.75-1.504-1.45-2.807-2.093-1.31-.644-2.6-1.227-3.87-1.748-1.28-.52-2.43-1.142-3.45-1.863-1.03-.72-1.87-1.61-2.53-2.668-.66-1.058-.99-2.33-.99-3.818 0-1.487.27-2.737.8-3.75.53-1.01 1.26-1.87 2.18-2.575 1.93-1.472 4.29-2.208 7.08-2.208 2.7 0 5.29.46 7.77 1.38l.64 7.912h-3.17l-2.03-4.968c-.92-.307-2.08-.46-3.48-.46s-2.58.322-3.54.966c-.97.644-1.45 1.625-1.45 2.944 0 1.533.76 2.79 2.3 3.772.67.46 1.42.866 2.25 1.22.82.352 1.78.773 2.87 1.264 1.09.49 2.11 1.073 3.06 1.748.95.675 1.72 1.38 2.3 2.116 1.1 1.38 1.65 2.96 1.65 4.738 0 1.78-.3 3.243-.9 4.393-.6 1.15-1.41 2.09-2.42 2.82-1.9 1.41-4.42 2.11-7.54 2.11s-5.86-.59-8.19-1.75zm-3.68-.322c-1.932 1.38-4.646 2.07-8.142 2.07-4.232 0-7.85-1.35-10.856-4.048-3.28-2.975-4.922-6.87-4.922-11.684 0-5.09 1.564-9.14 4.692-12.144 2.852-2.73 6.47-4.094 10.856-4.094 1.963 0 4.232.29 6.808.874l.874 8.372h-3.128l-1.794-4.968c-.583-.215-1.595-.322-3.036-.322-1.44 0-2.83.322-4.163.966-1.334.644-2.46 1.503-3.38 2.576-1.933 2.27-2.9 5.03-2.9 8.28 0 3.527 1.06 6.44 3.175 8.74 2.147 2.33 5 3.496 8.556 3.496 1.32 0 2.53-.2 3.634-.598 1.104-.4 1.9-.782 2.392-1.15l1.334 3.634z" fill="#FFFFFF"/><path d="M7.66 120.998c.767.153 2.99.46 6.67.92L14.192 125H.576l-.46-3.22 2.944-.644V96.94l-2.898-.23v-3.496h9.706c4.263 0 7.483.966 9.66 2.898 1.963 1.78 2.944 4.2 2.944 7.268 0 3.588-1.21 6.27-3.634 8.05-2.147 1.564-5.167 2.346-9.062 2.346H7.66v7.222zm9.982-17.664c0-4.11-2.79-6.164-8.372-6.164H7.66v12.65h1.932c2.82 0 4.907-.644 6.256-1.932 1.196-1.135 1.794-2.653 1.794-4.554zm13.294 16.49c.98 1.274 2.27 1.91 3.864 1.91 1.595 0 2.898-.62 3.91-1.863 1.012-1.24 1.518-3.13 1.518-5.68s-.483-4.53-1.45-5.95c-.965-1.42-2.276-2.14-3.932-2.14-1.748 0-3.097.75-4.048 2.26-.89 1.44-1.334 3.4-1.334 5.87s.49 4.34 1.472 5.61zm-5.842-6.094c0-1.78.26-3.358.782-4.738.52-1.38 1.242-2.545 2.162-3.496 1.78-1.9 4.048-2.852 6.808-2.852 2.82 0 5.152 1.012 6.992 3.036 1.84 2.024 2.76 4.738 2.76 8.142 0 3.557-.98 6.363-2.944 8.418-1.81 1.963-4.08 2.944-6.808 2.944-2.852 0-5.183-1.043-6.992-3.128-1.84-2.055-2.76-4.83-2.76-8.326zm30.59-11.086c.98 0 1.886.138 2.714.414.828.276 1.55.63 2.162 1.058 1.165.797 2.07 1.825 2.714 3.082l-4.692 1.794-1.058-2.346c-.613-.307-1.273-.46-1.978-.46-.705 0-1.35.207-1.932.62-.583.415-.874 1.02-.874 1.818 0 .797.383 1.45 1.15 1.955.767.5 1.825 1.03 3.174 1.58 1.35.55 2.384 1.07 3.105 1.56.72.49 1.28 1.01 1.67 1.56.76 1.01 1.15 2.14 1.15 3.38 0 1.24-.23 2.26-.69 3.06-.46.79-1.06 1.45-1.8 1.98-1.44.98-3.19 1.47-5.25 1.47-1.72 0-3.39-.48-5.02-1.43-1.51-.92-2.49-2.06-2.95-3.41l4.74-1.8 1.1 2.66c.7.3 1.35.46 1.95.46s1.08-.05 1.45-.14c.37-.1.7-.23 1.01-.42.7-.46 1.05-1.14 1.05-2.03 0-1.13-.7-2-2.1-2.6-1.4-.6-2.59-1.14-3.59-1.63s-1.83-1.01-2.51-1.56c-1.38-1.17-2.07-2.7-2.07-4.6 0-1.87.75-3.38 2.26-4.51 1.41-1.04 3.09-1.56 5.06-1.56zm22.54 17.71c.06.215.383 1.227.966 3.036-.43.4-1.058.797-1.886 1.196-.828.4-1.9.598-3.22.598-1.32 0-2.43-.4-3.335-1.196-.91-.797-1.36-2.1-1.36-3.91v-13.984h-3.77l-.65-2.99.32-.46h4.09v-7.682l3.68-.874.23.69v7.866h4.78c.15 0 .23.092.23.276v3.174h-5v13.202c0 .98.14 1.618.43 1.91.29.29.65.436 1.1.436.44 0 .82-.046 1.12-.138.3-.092.59-.215.87-.368.58-.245 1.04-.506 1.38-.782z" fill="#DD3735"/><path d="M52.447 32.623c.106.08.29.132.106.29-.132.184-.29.342-.395.553-.105.185-.184.237-.342.106.21-.343.42-.66.63-.95zm52.895 27.616c0 .07.026.13.026.21.053-.11.053-.16.08-.21h-.106zm0 .23v-.03.02zm-5.368 10.28l-4.58-25.4c-.078-.03-.183-.08-.368-.13.053.1.08.18.106.26.13-.03.184-.03.236-.05 0-.03 0-.06.027-.08l4.58 25.4zm-4.737-31.12c-.026.08-.026.16-.026.23 0-.08 0-.16.03-.24zm.026.52c-.026 0-.026 0-.052-.03v.02c.03.02.03.02.06 0zm-.052.21v-.19c-.07.02-.15.02-.26.05.13.05.27.08.27.13z" fill="#DD3735"/><path d="M115.71 33.967c-.052-1.028-.078-2.056-.184-3.083-.184-1.397-.368-2.82-.684-4.19-.237-1.133-.63-2.214-1.026-3.294-.5-1.265-1-2.556-1.632-3.768-1.026-1.95-2.368-3.69-3.605-5.508-.82-1.16-1.87-2.108-2.66-3.294-.45-.685-1.11-1.264-1.77-1.79-1.06-.845-2.16-1.61-3.27-2.347-.84-.58-1.69-1.133-2.58-1.634-.71-.4-1.48-.72-2.21-1.06-.84-.4-1.66-.87-2.61-1.06-.24-.05-.45-.13-.69-.21-.61-.21-1.18-.45-1.79-.64-.92-.29-1.82-.63-2.76-.87-.91-.22-1.86-.38-2.8-.51C84.39.55 83.31.5 82.25.39c-.678-.078-1.36-.154-2.02-.18-1-.05-2.025-.05-3.025-.077-.5-.027-1.03-.08-1.53-.053-.77.027-1.53.106-2.29.21-.74.08-1.48.21-2.19.318-.867.1-1.73.15-2.6.26-.82.1-1.66.26-2.477.39-.29.05-.58.15-.87.21-.63.13-1.288.18-1.92.39-1.13.34-2.263.74-3.368 1.16-1.03.42-2.03.87-3 1.394-1 .55-1.95 1.21-2.898 1.843-.896.61-1.79 1.24-2.66 1.925-.84.66-1.63 1.395-2.394 2.133-.42.42-.763.92-1.16 1.394-.656.764-1.314 1.5-1.946 2.292-.525.66-1 1.34-1.5 2.03-.894 1.21-1.657 2.5-2.367 3.79-.29.53-.55 1.05-.815 1.58-.395.79-.816 1.55-1.184 2.37-.262.55-.472 1.16-.63 1.76-.364 1.29-.733 2.61-1.075 3.9-.31 1.16-.39 2.37-.42 3.56-.02 1.05.08 2.08.19 3.13.03.26-.13.58.19.79-.1.29-.02.45.13.5-.18.29.08.48-.02.74-.03.05.08.16.13.24 0 .08-.02.18 0 .26.03.23.13.47.13.74 0 .18.16.39.21.58.03.08 0 .21-.05.26-.16.18-.13.34.11.45.14.34.08.5.06.66.05.23-.03.31 0 .37.21.42.29.89.31 1.37 0 .1.06.21.11.34.03 0 0 .5 0 .5.13-.08.24-.11.37-.16.08.34.16.66.26.95.13.21.13.31.08.34.11.47.16.92.34 1.37 0-.5-.05-1-.13-1.48.37.13.69.26.9.26.03-.08.06-.19.08-.24-.16-.16-.29-.39-.45-.55.06.21 0 .29 0 .37-.1-.05-.23-.11-.37-.16.11-.13.21-.26.37-.42 0-.24-.13-.45-.5-.42.16-.06.32-.13.5-.19.29-.16-.02-.45-.02-.82.02-.45-.24-.9-.32-1.37-.13-.74-.11-1.85-.18-2.59-.16-.13-.29.21-.32.23.08.63.16 1.26.21 1.9-.16-.53-.26-1.11-.39-1.74-.03.18-.05.26-.05.37-.13.13-.02.29.06.47-.18-.08-.39-.05-.39-.05v.74c-.26-.27-.34-.48-.48-.66-.05-.21-.08-.42-.13-.63.05-.14 0-.21 0-.29l-.08-.64c.03-.03-.02-.42-.02-.42.21.02.34.05.47.05-.26-.34-.08-.55.03-.77.06-.11.24-.13.29-.24.21-.39.56-.71.56-1.21 0-.24.08-.5.11-.74.05-.45.1-.9.13-1.35.05-.58 0-1.16.13-1.71.21-.92.48-1.85.77-2.77.21-.66.45-1.29.71-1.95.39-1.03.76-2.05 1.26-3.03.71-1.42 1.53-2.79 2.32-4.19.5-.87 1.03-1.69 1.58-2.53.53-.82 1.05-1.66 1.66-2.42.85-1.08 1.77-2.08 2.79-2.98 1.06-.95 2.06-1.92 3.19-2.79 1.47-1.13 3.03-2.13 4.68-3 1.35-.71 2.74-1.27 4.14-1.8.9-.34 1.87-.5 2.79-.79 1.06-.35 2.11-.5 3.21-.53.71-.03 1.4-.11 2.11-.19.63-.05 1.26-.1 1.95-.18-.08.11-.1.16-.13.21-.29.42-.6.84-.89 1.27l-.74 1.05c-.42.56-.87 1.11-1.26 1.69-.6.87-1.15 1.76-1.79 2.63-.63.84-1.31 1.63-1.97 2.45-.87 1.13-1.69 2.29-2.55 3.43-.79 1.08-1.63 2.11-2.4 3.19-.68.95-1.29 1.95-1.95 2.92-.97 1.45-1.94 2.87-2.92 4.32-.76 1.1-1.52 2.18-2.31 3.29-.05.08-.13.1-.21.15-.21.34-.21.53-.29.68-.21.4-.42.79-.66 1.16-.13.21-.31.4-.47.61-.02-.32.42-.48.21-.87-.13.21-.26.39-.39.61l-.32.63c.11.08.29.13.11.29-.08.13-.16.29-.24.42.14-.08.21-.16.29-.27 0 .29-.15.52-.29.76-.1.21-.36.37-.55.52.03.03.21.11.24.14.24-.08.32-.21.34-.14.08-.11.16-.19.18-.26.1-.27.26-.48.52-.58.1-.06.18-.13.26-.21.79-.82 1.6-1.61 2.31-2.48 1.11-1.35 2.11-2.74 3.16-4.11.45-.58.97-1.16 1.45-1.71.08.6.03 1.18 0 1.74-.08.97-.13 1.95-.21 2.95-.03.39 0 .79-.03 1.18 0 .1-.08.18-.08.29 0 .26.08.55.08.81-.08.972-.18 1.92-.26 2.9-.02.21.08.42.13.603-.13 1.42.16 2.92-.07 4.43.18-.29.24-.47.24-.66.03-.157 0-.31 0-.5v-.26c.03-.48.13-.98.08-1.45-.05-.53-.05-1.03.06-1.53.06-.21-.02-.48.11-.74V35c-.02 1.5.03 3-.18 4.506-.03.13.08.37-.21.34-.24.47.05.814-.21 1.08-.05.05.05.29.08.45-.11.312-.11.312.05.34.02.58.08 1.103.1 1.66.42-1 .21-2.03.4-3.06.02.42.05.842.02 1.29 0 .685-.02 1.343-.05 2.03 0 .13-.02.262-.05.394-.08.37-.1.74-.23 1.08-.1.265-.05.66-.05.976v1.007c.1.45-.03.686.05.95-.08.264-.1.343-.08.422l.08.394c.53-.05.29.34.5.55-.16.21-.1.29-.1.39 0 .24-.02.45-.05.69 0 .6-.022 1.21-.022 1.79 0 .08.02.15.02.23 0 .05-.02.74-.02.74.05.08 0 .16-.08.24-.03 0-.11-3.35-.11-3.35h-.39c-.05 1.58.08 3-.21 4.48-.32.03-.42.08-.77.08-.81 0-1.63 0-2.45.03-.97 0-1.92.02-2.89.02-.47 0-.97.05-1.45.05-.63 0-1.29-.08-1.92-.08-.97 0-1.92.08-2.89.1-.71.03-1.42.03-2.13.05-.474.02-.95.05-1.42.1-.21.02-.395.1-.66.18-.08 0-.26-.03-.42 0-.263.05-.5.21-.763.26-.393.08-.5.18-.45.58v.26c-.023.05.58-.08.58-.08-.05 0-.08.16-.16.29l.478-.18c.398.19.74.08 1.05.16 1.028.26 2.08.37 3.13.47.687.05 1.34.08 2.03.1.973.05 1.95.11 2.92.11.82 0 1.61-.08 2.42-.08 1.13 0 2.264.05 3.4.08.23 0 .5-.03.76-.03h1.92c1.71-.05 3.42-.08 5.13-.13.98-.03 1.98-.08 2.95-.11l3-.08c1.16-.03 2.32-.03 3.45-.05.87 0 1.71-.03 2.58-.06.97-.03 1.97-.11 2.94-.16.53-.03 1.05-.08 1.58-.13.63-.05 1.29-.13 1.92-.16.95-.05 1.92-.08 2.87-.13 1.18-.08 2.37-.18 3.58-.21 1.1-.05 2.233-.03 3.34-.05.973-.03 1.95-.08 2.95-.11l1.66-.08s1.1-.03 1.66-.08c.95-.05 1.9-.16 2.84-.19.605-.03 1.21 0 1.816-.03.97-.03 1.97-.08 2.95-.08.37 0 .764.05 1.24.08-.21.18-.34.29-.5.42.11.02.21.08.32.13-.16.1-.29.13-.42.13-.05.13-.11.19-.16.45h.47c-.18 0-.34.24-.52.39-.21-.06-.39 0-.5.29.183.1.16.18.13.29-.32.1-.55.21-.42.55-.11.05-.24.1-.37.18-.13.21-.37.26-.32.55.11.03.21.08.29.11-.13.05-.26.13-.39.18-.47.29-.26.42-.16.55-.08.05-.16.11-.24.13.05.24.13.29.16.29-.11.08-.24.19-.4.32-.08.24-.19.345-.29.5-.11.16-.16.37-.29.53-.56.61-.95 1.32-1.66 1.79-.27.19-.5.426-.74.66-.48.45-.9.95-1.4 1.37-.66.56-1.34 1.06-2.05 1.56-.87.604-1.74 1.21-2.61 1.79-.48.31-1 .55-1.5.84-.5.29-.98.55-1.48.84-.31.21-.6.5-.95.66-.87.37-1.79.686-2.68 1.03-.87.37-1.5.684-2.16.92-.61.21-1.24.37-1.87.5-.21.055-.45 0-.687.03-.45.08-.9.18-1.347.235-1.153.16-2.31.26-3.47.42-.68.08-1.34.21-2.02.29-.48.03-.98-.03-1.45-.03-.35 0-.71.08-1.06.03-.55-.08-1.104-.21-1.66-.31-.13-.02-.32-.08-.42-.02-.21.103-.4-.05-.61 0-.13.024-.26-.08-.393-.08-.11-.03-.24.03-.37 0-.29-.08-.55-.186-.87-.16-.312.026-.63-.13-.97-.21-.474-.106-.92-.21-1.4-.317-.183-.05-.34-.13-.53-.236-.68 0-1.13-.03-1.55-.19-.37-.13-.71-.32-1.1-.26-.1.02-.18-.03-.29-.03-.08-.11-.16-.32-.234-.32-.53.03-.84-.42-1.29-.55-.24-.08-.42-.346-.66-.42-.58-.24-1.05-.74-1.71-.82-.21-.03-.42-.13-.66-.21.08.1.13.18.21.26-.76-.37-1.47-.79-2.18-1.19-.105-.02-.184-.13-.26-.18l-.72-.46c-.394.08-.55-.08-.66-.13-.71-.5-1.524-.82-2.21-1.37-.29-.24-.63-.4-.84-.69-.37-.45-.82-.76-1.32-1.03-.39-.21-.76-.45-1.13-.68-.183-.13-.37-.29-.37-.58 0-.19-.08-.37-.313-.266-.11-.15-.21-.34-.345-.39-.32-.13-.53-.37-.77-.58-.24-.21-.42-.5-.71-.606-.53-.21-.84-.66-1.16-1.03-.74-.87-1.4-1.82-2.08-2.74-.05-.08-.16-.13-.24-.21.1.29.23.53.36.79-.26-.11-.44-.29-.6-.48-.03.03 1.81 3.06 1.81 3.06.16.23.29.47.44.71-.39.03-.655-.19-.79-.42-.23-.42-.5-.69-1.02-.63-.05-.19-.11-.4-.13-.58-.11 0-.19 0-.37-.03.37.58.68 1.08 1.03 1.66l-.26-.16c.47.5.82 1.13 1.42 1.45.13.61.82.9.97 1.48-.13-.03-.24-.06-.37-.08-.21-.27-.45-.53-.68-.82.05.183.13.34.23.473.32.39.61.79.98 1.13.13.13.31.18.31.42.21.1.29.13.36.13.05.16-.03.39.29.34.21.39.42.39.71.26.34.34.53.37.76.16 0 .13.03.26.03.364.11-.05.08-.13.08-.26.13.1.21.16.27.21.26.37.5.71.87 1 .5.42.95.87 1.42 1.26.92.76 1.95 1.39 2.97 1.97 1.26.71 2.47 1.47 3.76 2.16 1.55.81 3.21 1.37 4.92 1.76.63.13 1.23.26 1.87.42.55.16 1.1.4 1.65.53.84.19 1.71.34 2.55.5.18.03.37.05.58.08.23.05.52-.05.58.03.13.21.24.1.4.08.19-.06.4-.06.61-.06.74.03 1.45.19 2.18.14.16 0 .4-.138.53.13.24-.11.37-.11.48-.13.03.23 0 .23-.05.26-.05.023-.13.05-.24.13.95.182 1.84.21 2.63 0 1.37.103 2.56-.05 3.69-.45.11.132.19.32.35.053.057-.08.19-.11.29-.137.24-.05.53-.15.74-.08.24.08.31-.13.5-.13.31 0 .6-.02.89-.08.16-.02.32-.1.5-.15-.21-.11-.42-.14-.58-.14.32-.16.61-.29.9-.42-.06.08-.11.18-.21.18h.36c-.08 0-.19.234-.32.39.94-.24 1.81-.45 2.65-.66-.29-.55.32-.37.53-.684-.26.08-.53.16-.79.21.9-.44 1.82-.84 2.71-1.23-.13.16-.29.24-.52.37.15.025.26.025.34.05.42.133.31-.26.45-.5.5 0 .71-.078.95-.158.26-.08.52-.16.79-.27.42-.19.81-.42 1.23-.63.08-.03.21 0 .314 0 .29-.19.39-.35.47-.32.37.05.63-.08.73-.42.18-.13.32-.24.45-.32.58-.32 1.13-.63 1.71-.95.21 0 .31 0 .37-.03.34-.16.66-.34.97-.52-.08-.03-.26-.13-.26-.13.26-.06.34-.08.5-.136.63-.74 1.5-1.24 2.16-1.82.29-.03.29-.11.29-.16.1-.13.21-.29.34-.4.58-.527 1.21-.97 1.74-1.53.76-.77 1.5-1.56 2.18-2.38.63-.74 1.26-1.47 1.79-2.29.73-1.13 1.37-2.29 2.02-3.48.472-.84.893-1.68 1.37-2.52.05-.08.16-.19.24-.19.71-.08 1.42-.13 2.1-.21.15-.03.34-.13.5-.21-.08-.13-.14-.29-.21-.42-.11-.16-.27-.29-.37-.45-.11-.13-.19-.29-.27-.44-.08-.13-.16-.24-.24-.37-.16-.29-.32-.58-.45-.9-.03-.08-.08-.21-.05-.29.47-1.02.65-2.13 1.1-3.16.444-1.05.58-2.24.79-3.37.18-1.08.29-2.16.42-3.24.08-.76.182-1.5.21-2.27.16-1.21.103-2.34.08-3.48-.03-1-.08-2.02-.13-3.03zM49.685 66.405c-.184-.21-.342-.448-.526-.658l.08-.08c.28.317.57.633.86.976-.16-.08-.34-.132-.42-.238zm.42.238c.08-.027.16-.027.238-.053.08.132.132.29.21.448-.368-.027-.552-.185-.447-.395zm27.37 10.883v-.08c.5-.052.973-.105 1.473-.157v.07c-.5.08-.973.13-1.473.16zm6.63-.685c-.367.08-.762.14-1.13.19-.132.03-.29.16-.342-.08-.053.03-.106.03-.158.06.13.4.447.08.71.24-.58.08-1.13.13-1.684.21v-.06c.16-.02.35-.05.5-.08v-.07c-.26-.03-.52-.05-.79-.05-.07 0-.18.11-.26.13-.1.02-.21.05-.34.05-.44.02-.89.02-1.31.05-.02 0-.08-.03-.1-.03v-.08c1.77-.23 3.5-.47 5.27-.71.03.06.03.11.06.16-.15 0-.26.06-.39.08zm.396-.26c.61-.08 1.16-.13 1.74-.21-1.21.34-1.6.4-1.73.21zm-22.92-53.2c.84-1.16 1.71-2.32 2.56-3.5.27-.34.48-.71.74-1.05.08-.1.19-.15.32-.26l-.02-.05c.11-.13.21-.24.26-.34.14-.21.22-.45.32-.68.03-.05.11-.1.11-.1.37.19.37-.21.5-.34.24-.26.48-.55.69-.81.16-.21.32-.39.45-.63.03-.08-.05-.21-.08-.31h-.07c.08-.05.15-.13.23-.18.03 0 .03 0 .06-.02.16-.24.32-.47.48-.68.32-.42.66-.84 1.03-1.21-.05.13-.1.26-.15.37.03 0 .03.03.05.03.32-.42.66-.81.98-1.24-.02-.02-.05-.05-.08-.05-.13.14-.23.27-.36.4-.03-.02-.06-.05-.08-.05.26-.34.52-.69.79-1.08.05.08.1.18.21.39.1-.26.21-.44.29-.63-.08.08-.19.16-.27.24l-.08-.08.47-.71c.5-.71 1-1.45 1.5-2.16.19-.26.42-.47.58-.74.5-1 1.29-1.79 1.9-2.71.13-.18.32-.34.48-.5.13-.16.24-.11.34.03.71.9 1.42 1.82 2.13 2.72.53.66 1.05 1.29 1.55 1.98.6.85 1.18 1.69 1.79 2.53.68.98 1.37 1.95 2.02 2.95 1 1.48 1.95 2.96 2.95 4.43.74 1.08 1.48 2.14 2.19 3.22H87c-1.24-.03-2.5-.13-3.74-.08-1.684.08-3.394.26-5.078.4-2.138.19-4.29.21-6.42.21-.77 0-1.53.11-2.29.16-.928.06-1.82.11-2.74.13-1.08.06-2.13.08-3.21.11-.61.02-1.24 0-1.9 0zM91.77 35.5v.238c-.026 0-.052.028-.105.028-.105-.37-.21-.766-.342-1.135-.262-.76-.552-1.53-1.026-2.21-.53-.73-1-1.5-1.53-2.26-.13-.18-.32-.34-.48-.5-.553-.6-1.106-1.24-1.816-1.68-1.05-.66-2.13-1.21-3.29-1.69-.31-.13-.6-.29-.92-.47h.63l4.5-.08c.98-.02 1.93-.02 2.9-.08.24 0 .37.08.5.29.24.4.47.79.74 1.19.03.05.08.13.08.21 0 .58 0 1.19.03 1.77.03.61.08 1.19.11 1.8 0 .61-.05 1.24-.02 1.87.03.9.05 1.82.05 2.74zm-28.32-8.83c1.236-.053 2.42-.132 3.63-.185.94-.053 1.92-.08 2.86-.132.393-.025.76-.05 1.16 0-.42.212-.84.423-1.21.686-.477.31-.92.73-1.4 1.08-.473.34-.894.76-1.29 1.21-.5.6-1.05 1.13-1.58 1.71-.37.42-.79.81-1.103 1.26-.446.58-.84 1.21-1.26 1.87.13-2.51.29-4.98.18-7.51zm17.184 25.35c-.843.21-1.71.448-2.58.553-.736.106-1.5.08-2.263.08-.69 0-1.35-.026-2.03-.08-.77-.078-1.53-.157-2.27-.5-.63-.29-1.29-.553-1.92-.87-.63-.316-1.26-.684-1.74-1.264-.34-.43-.81-.77-1.23-1.14.08.31.27.58.56.76-.13.15-.31.08-.58-.35-.08.05-.15.08-.21.1.08-.19.16-.37.24-.53-.1-.21-.23-.45-.34-.66-.21-.35-.42-.71-.6-1.06-.05-.08-.05-.16-.1-.24-.13-.16-.26-.32-.37-.48-.21-.32-.39-.66-.66-.98 0 .08.03.16.03.26-.03 0-.05.02-.05.02l-.55-1.34c-.02 0-.02 0-.05.02l.48 1.74c-.02 0-.05.02-.08.02-.07-.11-.15-.21-.21-.34-.05-.21-.21-.21-.34-.13-.08.05-.13.24-.1.32.18.44.39.89.6 1.34.05.16.11.29.19.45.03.05.11.1.11.18.11.21.18.42.32.6.24.31.5.63.74.95.24.31.45.66.66.97.03.05.11.05.13.08.14.39.58.68.9.52.08.6.74.81 1 1.39-.31-.13-.55-.24-.76-.35-.02.03-.02.05-.05.11.32.15.63.31.92.5.27.16.53.31.77.5.32.29.69.45 1.13.55-.02-.08-.05-.11-.05-.11.74.34 1.5.71 2.08 1-2.73.05-5.65.11-8.68.16 0-.5-.03-.98-.03-1.48 0-.21.05-.4.02-.61-.08-1.21-.08-2.43-.24-3.61-.16-1.27-.16-2.5-.13-3.77.02-.68-.03-1.4-.06-2.08 0-.92 0-1.82.03-2.74 0-.13.06-.24.11-.37h.08c.03.05 0 .13.05.16.08.08.21.21.27.18.16-.11.4-.21.45-.37.13-.32.18-.66.18-.97 0-.24.11-.4.21-.55.06-.08.08-.16.14-.27-.1-.08-.21-.14-.34-.24.11-.29.08-.64.48-.79.05-.03.05-.16.08-.24.03-.21.05-.45.08-.66.05.08.08.1.13.16.03-.06.06-.08.06-.08 0-.11-.02-.32 0-.32.32-.05.19-.4.34-.55.03-.03-.02-.11-.02-.16s0-.13.03-.13c.37-.08.32-.48.55-.66.08-.05.11-.13.21-.26.21.36-.16.55-.18.81.45-.26.58-.89.32-1.08.11-.08.21-.18.29-.29.29-.32.61-.61.87-.92.19-.23.29-.52.48-.76.11-.13.32-.24.47-.32.47-.26.92-.55 1.21-1 .05-.06.13-.11.21-.16.08-.05.23-.05.26-.13.02-.05-.06-.18-.11-.26.1-.05.21-.16.42-.26-.08.16-.11.27-.16.37l.13.13c.24-.18.6-.39.84-.55 0-.02-.13-.13-.13-.13-.16.08-.4.21-.63.32.05-.08.05-.13.08-.16.36-.24.73-.47 1.13-.66.92-.42 1.84-.84 2.76-1.24.16-.08.37-.03.56-.03.08 0 .13 0 .21-.03.42-.13.84-.26 1.26-.37.18-.05.39-.08.58-.08.79.02 1.58.02 2.37.08.34.03.66.11.98.21.4.14.82.32 1.19.5.45.24.87.51 1.29.8.77.5 1.48 1.05 2.24 1.5.74.45 1.32 1.05 1.79 1.74.58.81 1.24 1.55 1.5 2.55l.39 1.74c.08.32.27.63.19 1-.13.66-.24 1.35-.34 2-.05.27-.11.53-.08.79.05.82-.27 1.53-.58 2.27-.11.24-.27.48-.4.74.03.03.19.11.21.11l.24-.47c.03 0 .03 0 .06.02-.13.37-.23.77-.37 1.14-.31.82-.63 1.66-1.02 2.45-.21.45-.58.82-.84 1.24-.26.37-.47.77-.73 1.11-.23.29-.47.58-.79.79-.71.53-1.44 1.06-2.21 1.48-.47.29-1.02.45-1.55.58zm-14.027-1.4l-.026.027c-.06-.026-.14-.052-.19-.105l-.63-.95c-.05-.078-.08-.157-.05-.262.29.448.58.87.89 1.29zm16.37 3.61c1.183-.5 2.157-1.21 3.05-2.028.133-.132.264-.263.422-.37 1.1-.684 1.92-1.633 2.65-2.687.84-1.212 1.39-2.582 2.08-3.873.05-.106.1-.21.15-.29-.06 3.004.29 5.955.68 8.933l-9.05.316zm26.683-.79c-.027.053-.08.106-.106.16-.027-.054-.027-.133-.053-.24-.15.423-.5.212-.73.212-1.42.027-2.87.027-4.29.027-1.37 0-2.76 0-4.13.02-.45 0-.92.1-1.37.13-1.08.05-2.15.08-3.23.1-.08 0-.16-.13-.29-.24-.02.05-.08.13-.16.23-.03-.05-.08-.11-.14-.18-.02.08-.05.16-.08.21H95c-.053-.37-.158-.71-.158-1.08 0-.79.08-1.58.105-2.37.027-.37 0-.71 0-1.06.106.08.185.13.29.21.052-.11.105-.19.158-.26 0 0-.053-.03-.106-.08.05-.03.1-.08.1-.11.02-.08.08-.16.08-.21 0-.19-.06-.35-.08-.5.02 0 .05 0 .08-.03l.15.79h.08c-.11-.19.23-.34-.06-.55-.03-.03.02-.19.02-.27-.08-.16-.13-.32-.21-.53.02-.03.1-.06.18-.08-.11-.05-.19-.11-.27-.13.26-.24.26-.37.03-.64.05-.02.1-.02.1-.05 0-.24 0-.47-.06-.71-.05-.27.08-.58-.32-.74.02.08.05.13.1.21 0 0-.08.03-.16.08-.34-.32-.13-.74-.21-1.21.19.05.32.1.45.16-.05-.19-.18-.4-.26-.64h-.11v-1.74c0 .03.18.03.29.05 0-.03.02-.06.02-.08-.08-.11-.19-.21-.29-.35l.05-.05c-.21-.26-.11-.63-.11-.71v-1.8c.27.26-.13.6.27.76v-.26h-.03c-.03-.4-.03-.79-.05-1.19h-.05c-.03.05-.03.08-.06.13h-.05l.15-6.3c.26.34.55.66.73 1 .61 1.1 1.4 2.05 2.13 3.05.63.87 1.21 1.81 1.79 2.71.71 1.08 1.39 2.16 2.1 3.24.52.82 1.08 1.63 1.63 2.42.5.71 1.03 1.4 1.55 2.08.44.61.92 1.21 1.36 1.82.53.74 1.06 1.47 1.58 2.19.26.37.55.73.84 1.1.16.21.4.37.56.5-.03 0-.05 0-.1-.02.08.11.13.19.18.24.29.16.31.32.16.56zm1.34-6.586v-.185c0 .05.026.13 0 .18zm.895-11.62c-.027 0-.184-.16-.21-.186-.027.08 0 .158-.053.264-.027-.078-.21-.052-.21-.13-.027.368.157.737.13 1.106.08-.053.395-.08.474-.158.027.026.08.052.106.052-.527.396-.395.79-.158 1.24.052.104.21.315.052.526-.052.053.027.21.053.343h.07v.05l-.24.08c-.06-.08-.37-.23-.37-.37v1.35c.26.08.26.45.36.64.05-.08.08-.13.1-.21l.02.03c-.03.16-.06.32-.11.48-.05.24-.11.45-.13.69 0 .03.05.08.05.11-.29.66-.13 1.4-.24 2.08-.08.5 0 1.03-.06 1.56-.06.45-.16.92-.27 1.37-.03.08-.08.11-.21.16.05-.31.02-.52-.03-.81-.03 0-.37-.19-.4-.19 0 .37.21.87.29 1.29-.08-.02-.4-.21-.42-.21-.06.32-.06.74-.08 1.08-.03.27-.27.5-.29.79 0 .16.18.27.15.53h.21c0-.52.24-1 .24-1.55h.08c.02.06.1.11.08.14-.06.29-.16.61-.14.9 0 .16.13.32.08.5-.05.16-.08.32-.11.55-.03-.13-.06-.18-.06-.26-.03 0-.26-.03-.29-.03-.03.16.18.32.16.45-.03.03-.06.03-.11.06l-.87-1.26c-.69-1-1.37-2-2.05-3.03-.19-.26-.34-.52-.48-.79-.81-1.4-1.71-2.74-2.71-4.03-.76-.97-1.37-2.03-2.08-3.05-.65-.97-1.31-1.92-1.97-2.9-.24-.31-.53-.6-.74-.95-.68-1.08-1.29-2.18-1.97-3.26-.58-.9-1.21-1.77-1.82-2.64-.21-.29-.42-.6-.63-.92-.02-.05-.05-.1-.05-.18-.05-.58-.11-1.16-.13-1.71 0-.52.05-1.05.05-1.61v-.48c0-.13.02-.23.02-.37.02-.02.05-.07.07-.1-.76 0-1.55-.03-2.31 0-.5.02-.76-.19-1.1-.56-1-1.13-1.74-2.42-2.61-3.63-.82-1.16-1.66-2.29-2.5-3.43-.68-.92-1.37-1.82-2.05-2.74-.76-1.05-1.5-2.11-2.29-3.16-.95-1.27-1.92-2.53-2.89-3.8-.45-.58-.95-1.13-1.45-1.74.34.06.66.11.97.14l1.26.08c.95.08 1.89.13 2.84.26.79.11 1.58.26 2.4.39 1.74.29 3.45.77 5.11 1.32.97.32 1.92.74 2.87 1.14 2.13.87 4.16 1.93 6.16 3.03.63.34 1 .9 1.47 1.4.68.71 1.37 1.42 2.02 2.16.76.87 1.47 1.77 2.21 2.66.66.79 1.34 1.58 2 2.37.21.24.37.53.55.79.42.64.89 1.24 1.26 1.93.26.5.42 1.08.6 1.64.27.82.53 1.61.79 2.43.19.61.34 1.24.48 1.87.1.42.08.87.21 1.29.16.56 0 1.16.16 1.71.02.06.05.14.07.19.11.1.18.21.03.37-.03.03-.03.13 0 .21.05-.05.08-.1.13-.18 0 .05.03.08.03.1 0 .11-.03.21 0 .32 0 .05.05.13.07.18.05-.05.1-.08.21-.16.23.9.26 1.8.26 2.72 0 .87.16 1.74-.21 2.59.08-.29-.11-.55-.03-.82z" fill="#DD3A0A"/><path d="M95.08 45.482c.025 0 .052.027.052.027l-.027-.03c0-.03 0-.03-.026 0zm4.157 26.036c-.29.21-.58.395-.948.474-.03-.026-.03-.053-.06-.08.29-.184.6-.368.89-.553.02.05.08.1.1.15zM49.895 35.81c.29-.367.58-.736.894-1.105.02.026.23.08.26.105-.29.37-.69.87-.98 1.265-.06-.053-.14-.237-.19-.264zM42.42 48.725c-.21-.448-.42-.923-.63-1.37.026-.027.21-.106.236-.106.29.42.42.92.632 1.37 0 0-.21.1-.237.1zm6.712-12.65c-.158.238-.316.502-.474.74-.026-.028-.316.104-.342.078.158-.237.552-.66.71-.896.027.026.053.053.106.08zM96.422 72.6c.025 0 .025-.026.052-.026.184.026.394.052.605.052-.35.237-.56.21-.66-.026zm-47.24-35.418c.028-.08.08-.158.133-.237.052 0 .13-.027.13-.027.107-.184.107-.316.212-.474-.026-.026-.053-.026-.08-.053-.157.11-.315.24-.473.35.053.05.053.08.053.13-.21-.02-.29.08-.395.37-.026.08-.158.11-.29.21-.026.06-.052.19-.105.32l.027.03c-.053.06-.132.08-.132.08-.158.16-.342.29-.5.45-.026.08-.052.16-.052.24.185-.18.5-.52.737-.73l.027.03c.105-.15.184-.31.29-.47.025.03.025.06.052.08-.08.21-.158.45-.237.66-.06.03-.14.08-.14.05-.11.08-.19.19-.29.27l-.48.32c-.27.24-.53.45-.82.69-.19.29-.37.56-.58.9.31-.08.39.06.37.32.37.06.39-.23.5-.44.02-.05.05-.16.1-.19.23-.21.5-.39.76-.6.05-.05.05-.16.05-.24 0-.03-.13-.03-.21-.05.23-.26.58-.71.81-1 .13-.08.26-.18.26-.26-.03-.29.15-.36.37-.47-.11-.08-.14-.15-.14-.18z" fill="#DD3735"/><path d="M49.71 36.892c-.105.184-.21.342-.315.527l-.158-.08c-.105.6-.474 1.13-.842 1.23.105.05.21.1.29.08.078-.03.13-.16.183-.24l.71-1.03.238-.4-.105-.11zM40.948 48.46c.132 0 .264.026.42.026 0-.105.133-.08.133-.184h.08c0 .132.03.237.03.37h-.55c-.02-.027-.13-.186-.1-.212zm-.21-1.212c-.08-.08-.21-.158-.21-.237-.027-.1.052-.23.13-.36.054.19.08.34.132.53-.027.03-.053.06-.053.08zm.658-1.687c.105.27.21.56.316.82-.026 0-.184.08-.21.11-.105-.26-.237-.55-.342-.81.026-.02.184-.1.237-.1zm58.58 25.2c.13-.05.288-.08.5-.13-.238.19-.422.32-.58.48-.027-.02-.053-.05-.08-.05.053-.1.106-.18.16-.29zM67.63 15.08c.157-.11.29-.19.447-.29l.052.05c-.16.21-.29.42-.48.683-.03-.18-.03-.29-.06-.42-.03 0 0 0 .02-.02zm7.71 13.33c.237-.107.474-.21.763-.344-.026.158-.026.264-.026.37-.08-.027-.185-.054-.264-.054-.158.026-.448.237-.58.263-.025 0 .106-.21.106-.237zm19.74 22.345c.052.263.552.395.052.658.08.06.157.08.236.14 0 .027-.026.08-.052.106-.053.02-.158.08-.21.05-.027 0-.08-.11-.08-.16 0-.24.027-.48.053-.79z" fill="#DD3735"/></g></svg>
